<svg width="36" height="36" viewBox="0 0 36 36" fill="none" xmlns="http://www.w3.org/2000/svg">
<path d="M32.379 7.16656C32.3413 7.11642 32.3167 7.07914 32.2791 7.03028C32.1792 6.90171 32.078 6.78085 31.9781 6.64456C31.8782 6.50828 31.764 6.38742 31.6512 6.25885L31.3125 5.87314C31.1997 5.74457 31.0738 5.62371 30.948 5.50028C30.7469 5.28814 30.5458 5.09014 30.3331 4.89085C30.2033 4.77899 30.0814 4.65428 29.9568 4.54242C29.8323 4.43057 29.7181 4.33028 29.5923 4.23128L29.1525 3.87L28.8139 3.61285C28.6128 3.46371 28.4 3.31457 28.1989 3.16543C28.137 3.113 28.0696 3.06731 27.9979 3.02914L27.1689 2.50714C27.056 2.44543 26.9431 2.37857 26.8419 2.32071C26.6538 2.22171 26.4774 2.12143 26.2893 2.02243C26.1595 1.96071 26.0298 1.88614 25.9001 1.82314C25.7178 1.73338 25.5335 1.64765 25.3474 1.566C25.2495 1.51547 25.149 1.46998 25.0464 1.42971C25.1463 1.467 25.2475 1.52871 25.3474 1.566C25.2177 1.50428 25.0879 1.43743 24.9582 1.39243C22.7383 0.476906 20.3583 0.00375557 17.9539 0L17.8903 0C14.3446 0.0156934 10.8818 1.06436 7.93289 3.01552C4.98397 4.96667 2.67911 7.73414 1.30512 10.9736C0.609694 12.6156 0.169647 14.3526 0 16.1254C9.4912 9.66183 20.882 6.51015 32.379 7.16656V7.16656Z" fill="#0D47A1"/>
<path d="M33.6101 9.02312C33.5855 8.98583 33.5725 8.94726 33.5478 8.90998C18.3184 8.40469 6.73317 16.5343 0.402161 22.1644C0.638107 23.165 0.957039 24.1446 1.3557 25.0932C1.83009 26.2014 2.41004 27.2622 3.08765 28.2612C11.0092 17.2041 24.0293 10.2613 33.7723 9.30083C33.7136 9.211 33.6595 9.11832 33.6101 9.02312V9.02312Z" fill="#CCCED2"/>
<path d="M35.682 14.9465C35.7066 15.0828 35.7442 15.2332 35.7702 15.3695C35.7455 15.2332 35.7079 15.0828 35.682 14.9465C35.6573 14.7729 35.6197 14.6109 35.5821 14.4322C35.5444 14.2535 35.5068 14.0709 35.4523 13.8973C35.4147 13.7482 35.3771 13.599 35.3395 13.437L35.189 12.8893C35.1513 12.753 35.1007 12.6322 35.0592 12.4908C34.9853 12.2812 34.9057 12.0737 34.8205 11.8685C21.8134 15.867 15.7445 24.4903 11.1493 34.6809C13.3094 35.5546 15.6207 36.0026 17.9538 36H18.0161C20.429 35.9966 22.8164 35.5099 25.0347 34.569C27.1764 33.6639 29.1219 32.3582 30.765 30.7235C32.4338 29.0586 33.7551 27.0841 34.6533 24.9128C35.5515 22.7416 36.0091 20.4161 35.9998 18.0695C35.9754 17.0219 35.8692 15.9778 35.682 14.9465V14.9465Z" fill="#0D47A1"/>
</svg>
