<svg xmlns="http://www.w3.org/2000/svg">
    <defs>
<symbol id="5_program" viewBox="0 0 24 24" fill="none" >
<path d="M21 16.5V22L5 22C3.34315 22 2 20.6569 2 19V19C2 17.3431 3.34315 16 5 16H6" stroke="currentColor" stroke-width="2" stroke-linecap="round" stroke-linejoin="round"/>
<path d="M2 19.5L2 5C2 3.34315 3.34315 2 5 2H6L6 16" stroke="currentColor" stroke-width="2" stroke-linecap="round" stroke-linejoin="round"/>
<path d="M16 14C19.3137 14 22 11.3137 22 8C22 4.68629 19.3137 2 16 2C12.6863 2 10 4.68629 10 8C10 11.3137 12.6863 14 16 14Z" stroke="currentColor" stroke-width="2" stroke-linecap="round" stroke-linejoin="round"/>
<path d="M17.5 9.5L16 8.25V6" stroke="currentColor" stroke-width="2" stroke-linecap="round" stroke-linejoin="round"/>
<path d="M6 5H7" stroke="currentColor" stroke-width="2" stroke-linecap="round" stroke-linejoin="round"/>
</symbol>
<symbol id="agree" viewBox="0 0 24 24" fill="none" >
<path d="M14.5 2H6C5.46957 2 4.96086 2.21071 4.58579 2.58579C4.21071 2.96086 4 3.46957 4 4V20C4 20.5304 4.21071 21.0391 4.58579 21.4142C4.96086 21.7893 5.46957 22 6 22H18C18.5304 22 19.0391 21.7893 19.4142 21.4142C19.7893 21.0391 20 20.5304 20 20V7.5L17.25 4.75L14.5 2Z" stroke="currentColor" stroke-width="2" stroke-linecap="round" stroke-linejoin="round"/>
<path d="M8 13.5C8.82843 13.5 9.5 12.8284 9.5 12C9.5 11.1716 8.82843 10.5 8 10.5C7.17157 10.5 6.5 11.1716 6.5 12C6.5 12.8284 7.17157 13.5 8 13.5Z" fill="currentColor" />
<path d="M12 13.5C12.8284 13.5 13.5 12.8284 13.5 12C13.5 11.1716 12.8284 10.5 12 10.5C11.1716 10.5 10.5 11.1716 10.5 12C10.5 12.8284 11.1716 13.5 12 13.5Z" fill="currentColor" />
<path d="M16 13.5C16.8284 13.5 17.5 12.8284 17.5 12C17.5 11.1716 16.8284 10.5 16 10.5C15.1716 10.5 14.5 11.1716 14.5 12C14.5 12.8284 15.1716 13.5 16 13.5Z" fill="currentColor" />
</symbol>
<symbol id="alert" viewBox="0 0 24 24" fill="none" >
<path d="M12 21C16.9706 21 21 16.9706 21 12C21 7.02944 16.9706 3 12 3C7.02944 3 3 7.02944 3 12C3 16.9706 7.02944 21 12 21Z" stroke="currentColor" stroke-width="2" stroke-linecap="round" stroke-linejoin="round"/>
<path d="M12 7C11.3103 7 10.75 7.56757 10.75 8.26611V8.6736L11.0374 13.0686C11.0733 13.6071 11.4684 14 12 14C12.5316 14 12.9267 13.6071 12.9626 13.0686L13.25 8.6736V8.26611C13.25 7.56757 12.6897 7 12 7Z" fill="currentColor" />
<path d="M13.25 15.75C13.25 16.4404 12.6904 17 12 17C11.3096 17 10.75 16.4404 10.75 15.75C10.75 15.0596 11.3096 14.5 12 14.5C12.6904 14.5 13.25 15.0596 13.25 15.75Z" fill="currentColor" />
</symbol>
<symbol id="app" viewBox="0 0 24 24" fill="none" >
<path fill-rule="evenodd" clip-rule="evenodd" d="M1.5 4.5C1.5 2.84315 2.84315 1.5 4.5 1.5H8.5C10.1569 1.5 11.5 2.84315 11.5 4.5V8.5C11.5 10.1569 10.1569 11.5 8.5 11.5H4.5C2.84315 11.5 1.5 10.1569 1.5 8.5V4.5ZM4.5 3.5C3.94772 3.5 3.5 3.94772 3.5 4.5V8.5C3.5 9.05228 3.94772 9.5 4.5 9.5H8.5C9.05228 9.5 9.5 9.05228 9.5 8.5V4.5C9.5 3.94772 9.05228 3.5 8.5 3.5H4.5Z" fill="currentColor" />
<path fill-rule="evenodd" clip-rule="evenodd" d="M12.5 4.5C12.5 2.84315 13.8431 1.5 15.5 1.5H19.5C21.1569 1.5 22.5 2.84315 22.5 4.5V8.5C22.5 10.1569 21.1569 11.5 19.5 11.5H15.5C13.8431 11.5 12.5 10.1569 12.5 8.5V4.5ZM15.5 3.5C14.9477 3.5 14.5 3.94772 14.5 4.5V8.5C14.5 9.05228 14.9477 9.5 15.5 9.5H19.5C20.0523 9.5 20.5 9.05228 20.5 8.5V4.5C20.5 3.94772 20.0523 3.5 19.5 3.5H15.5Z" fill="currentColor" />
<path fill-rule="evenodd" clip-rule="evenodd" d="M1.5 15.5C1.5 13.8431 2.84315 12.5 4.5 12.5H8.5C10.1569 12.5 11.5 13.8431 11.5 15.5V19.5C11.5 21.1569 10.1569 22.5 8.5 22.5H4.5C2.84315 22.5 1.5 21.1569 1.5 19.5V15.5ZM4.5 14.5C3.94772 14.5 3.5 14.9477 3.5 15.5V19.5C3.5 20.0523 3.94772 20.5 4.5 20.5H8.5C9.05228 20.5 9.5 20.0523 9.5 19.5V15.5C9.5 14.9477 9.05228 14.5 8.5 14.5H4.5Z" fill="currentColor" />
<path fill-rule="evenodd" clip-rule="evenodd" d="M12.5 15.5C12.5 13.8431 13.8431 12.5 15.5 12.5H19.5C21.1569 12.5 22.5 13.8431 22.5 15.5V19.5C22.5 21.1569 21.1569 22.5 19.5 22.5H15.5C13.8431 22.5 12.5 21.1569 12.5 19.5V15.5ZM15.5 14.5C14.9477 14.5 14.5 14.9477 14.5 15.5V19.5C14.5 20.0523 14.9477 20.5 15.5 20.5H19.5C20.0523 20.5 20.5 20.0523 20.5 19.5V15.5C20.5 14.9477 20.0523 14.5 19.5 14.5H15.5Z" fill="currentColor" />
</symbol>
<symbol id="approve" viewBox="0 0 24 24" fill="none" >
<path d="M16 22H18C18.5 22 19 21.8 19.4 21.4C19.8 21 20 20.5 20 20V7.5L14.5 2H6C5.5 2 5 2.2 4.6 2.6C4.2 3 4 3.5 4 4V7" stroke="currentColor" stroke-width="2" stroke-linecap="round" stroke-linejoin="round"/>
<g clip-path="url(#clip0_11619_541512)">
<path d="M13.8333 16C13.8326 17.2579 13.4253 18.4819 12.6721 19.4894C11.9189 20.4969 10.8602 21.2339 9.65396 21.5906C8.44767 21.9473 7.1584 21.9044 5.97844 21.4685C4.79848 21.0326 3.79105 20.2269 3.10639 19.1716C2.42174 18.1164 2.09654 16.868 2.17931 15.6129C2.26208 14.3577 2.74837 13.1629 3.56566 12.2066C4.38295 11.2504 5.48746 10.584 6.71444 10.3068C7.81004 10.0592 8.95087 10.1338 10.0006 10.5171" stroke="currentColor" stroke-width="2" stroke-linecap="round" stroke-linejoin="round"/>
<path d="M13.8333 11.3333L8 17.1725L6.25 15.4225" stroke="currentColor" stroke-width="2" stroke-linecap="round" stroke-linejoin="round"/>
</g>
<defs>
<clipPath id="clip0_11619_541512">
<rect width="14" height="14" fill="currentColor"  transform="translate(1 9)"/>
</clipPath>
</defs>
</symbol>
<symbol id="arrow_down" viewBox="0 0 24 24" fill="none" >
<path fill-rule="evenodd" clip-rule="evenodd" d="M12.7071 16.7071C12.3166 17.0976 11.6834 17.0976 11.2929 16.7071L5.29289 10.7071C4.90237 10.3166 4.90237 9.68342 5.29289 9.29289C5.68342 8.90237 6.31658 8.90237 6.70711 9.29289L12 14.5858L17.2929 9.29289C17.6834 8.90237 18.3166 8.90237 18.7071 9.29289C19.0976 9.68342 19.0976 10.3166 18.7071 10.7071L12.7071 16.7071Z" fill="currentColor" />
</symbol>
<symbol id="arrow_left" viewBox="0 0 24 24" fill="none" >
<path fill-rule="evenodd" clip-rule="evenodd" d="M7.29289 11.2929C6.90237 11.6834 6.90237 12.3166 7.29289 12.7071L13.2929 18.7071C13.6834 19.0976 14.3166 19.0976 14.7071 18.7071C15.0976 18.3166 15.0976 17.6834 14.7071 17.2929L9.41421 12L14.7071 6.70711C15.0976 6.31658 15.0976 5.68342 14.7071 5.29289C14.3166 4.90237 13.6834 4.90237 13.2929 5.29289L7.29289 11.2929Z" fill="currentColor" />
</symbol>
<symbol id="arrow_right" viewBox="0 0 24 24" fill="none" >
<path fill-rule="evenodd" clip-rule="evenodd" d="M16.7071 11.2929C17.0976 11.6834 17.0976 12.3166 16.7071 12.7071L10.7071 18.7071C10.3166 19.0976 9.68342 19.0976 9.29289 18.7071C8.90237 18.3166 8.90237 17.6834 9.29289 17.2929L14.5858 12L9.29289 6.70711C8.90237 6.31658 8.90237 5.68342 9.29289 5.29289C9.68342 4.90237 10.3166 4.90237 10.7071 5.29289L16.7071 11.2929Z" fill="currentColor" />
</symbol>
<symbol id="arrow_up" viewBox="0 0 24 24" fill="none" >
<path fill-rule="evenodd" clip-rule="evenodd" d="M11.2929 7.29289C11.6834 6.90237 12.3166 6.90237 12.7071 7.29289L18.7071 13.2929C19.0976 13.6834 19.0976 14.3166 18.7071 14.7071C18.3166 15.0976 17.6834 15.0976 17.2929 14.7071L12 9.41421L6.70711 14.7071C6.31658 15.0976 5.68342 15.0976 5.29289 14.7071C4.90237 14.3166 4.90237 13.6834 5.29289 13.2929L11.2929 7.29289Z" fill="currentColor" />
</symbol>
<symbol id="arrow_first" viewBox="0 0 24 24" fill="none" >
<path d="M17 18L11 12L17 6" stroke="currentColor" stroke-width="2" stroke-linecap="round" stroke-linejoin="round"/>
<path d="M7 6V18" stroke="currentColor" stroke-width="2" stroke-linecap="round" stroke-linejoin="round"/>
</symbol>
<symbol id="arrow_last" viewBox="0 0 24 24" fill="none" >
<path d="M7 18L13 12L7 6" stroke="currentColor" stroke-width="2" stroke-linecap="round" stroke-linejoin="round"/>
<path d="M17 6V18" stroke="currentColor" stroke-width="2" stroke-linecap="round" stroke-linejoin="round"/>
</symbol>
<symbol id="bridge_outline" viewBox="0 0 24 24" fill="none" >
<path fill-rule="evenodd" clip-rule="evenodd" d="M4 10.2274C5.30391 10.6647 6.33528 11.6961 6.77259 13C7 13 7 13 7.41604 13C8.1876 11.2341 9.94968 10 12 10C14.0503 10 15.8124 11.2341 16.584 13C17 13 17 13 17.2274 13C17.6647 11.6961 18.6961 10.6647 20 10.2274V9H4V10.2274ZM2 11.4V8C2 7.44772 2.44772 7 3 7H21C21.5523 7 22 7.44772 22 8V11.4C22 11.7314 21.7314 12 21.4 12C20.0745 12 19 13.0745 19 14.4V19C19 19.5523 18.5523 20 18 20H16C15.4477 20 15 19.5523 15 19V15C15 13.3431 13.6569 12 12 12C10.3431 12 9 13.3431 9 15V19C9 19.5523 8.55228 20 8 20H6C5.44772 20 5 19.5523 5 19V14.4C5 13.0745 3.92548 12 2.6 12C2.26863 12 2 11.7314 2 11.4Z" fill="currentColor" />
<rect x="2" y="4" width="20" height="2" rx="1" fill="currentColor" />
</symbol>
<symbol id="bridge" viewBox="0 0 24 24" fill="none" >
<path fill-rule="evenodd" clip-rule="evenodd" d="M2 7C2 5.89543 2.89543 5 4 5H20C21.1046 5 22 5.89543 22 7V17C22 18.1046 21.1046 19 20 19H19.1328C17.9195 19 17.06 17.9662 17.0488 16.8823C17.0381 15.8433 16.8682 14.3327 16.157 13.1129C15.4928 11.9738 14.313 11 12 11C9.68699 11 8.50715 11.9738 7.84299 13.1129C7.13179 14.3327 6.96186 15.8433 6.95117 16.8823C6.94002 17.9662 6.08049 19 4.86722 19H4C2.89543 19 2 18.1046 2 17V7ZM20 7L4 7V17H4.86722C4.86967 17 4.87156 16.9998 4.87583 16.9979C4.88128 16.9954 4.89209 16.9891 4.90494 16.9755C4.9333 16.9454 4.95086 16.9025 4.95128 16.8617C4.96327 15.696 5.14439 13.7706 6.11524 12.1055C7.13312 10.3598 8.96633 9 12 9C15.0337 9 16.8669 10.3598 17.8848 12.1055C18.8556 13.7706 19.0367 15.696 19.0487 16.8617C19.0491 16.9025 19.0667 16.9454 19.0951 16.9755C19.1079 16.9891 19.1187 16.9954 19.1242 16.9979C19.1284 16.9998 19.1303 17 19.1328 17H20V7Z" fill="currentColor" />
</symbol>
<symbol id="building" viewBox="0 0 24 24" fill="none" >
<path d="M11 4H9M4 11V4H9M4 11H2V17H4.5M4 11H11M13 13V11H11M11 11L9 4M12 17H9M23 16H13" stroke="currentColor" stroke-width="2" stroke-linecap="round" stroke-linejoin="round"/>
<rect x="12" y="11" width="10" height="10" rx="5" stroke="currentColor" stroke-width="2"/>
<rect x="4" y="16" width="5" height="5" rx="2.5" stroke="currentColor" stroke-width="2"/>
</symbol>
<symbol id="calendar" viewBox="0 0 24 24" fill="none" >
<path fill-rule="evenodd" clip-rule="evenodd" d="M20 10H4V8H20V10Z" fill="currentColor" />
<path fill-rule="evenodd" clip-rule="evenodd" d="M8 1.5C8.55228 1.5 9 1.94772 9 2.5V6.5C9 7.05228 8.55228 7.5 8 7.5C7.44772 7.5 7 7.05228 7 6.5V2.5C7 1.94772 7.44772 1.5 8 1.5Z" fill="currentColor" />
<path fill-rule="evenodd" clip-rule="evenodd" d="M16 1.5C16.5523 1.5 17 1.94772 17 2.5V6.5C17 7.05228 16.5523 7.5 16 7.5C15.4477 7.5 15 7.05228 15 6.5V2.5C15 1.94772 15.4477 1.5 16 1.5Z" fill="currentColor" />
<path fill-rule="evenodd" clip-rule="evenodd" d="M2 6C2 4.34315 3.34315 3 5 3H19C20.6569 3 22 4.34315 22 6V20C22 21.6569 20.6569 23 19 23H5C3.34315 23 2 21.6569 2 20V6ZM5 5C4.44772 5 4 5.44772 4 6V20C4 20.5523 4.44772 21 5 21H19C19.5523 21 20 20.5523 20 20V6C20 5.44772 19.5523 5 19 5H5Z" fill="currentColor" />
<path d="M17.004 17C17.556 17 18.004 17.448 18 18C18 18.552 17.552 19 17 19C16.448 19 16 18.552 16 18C16 17.448 16.448 17 17.004 17Z" fill="currentColor" />
<path d="M13.004 17C13.556 17 14.004 17.448 14 18C14 18.552 13.552 19 13 19C12.448 19 12 18.552 12 18C12 17.448 12.448 17 13.004 17Z" fill="currentColor" />
<path d="M7.00399 12C7.55598 12 8.00397 12.448 7.99997 13C7.99997 13.552 7.55198 14 6.99999 14C6.44799 14 6 13.552 6 13C6 12.448 6.448 12 7.00399 12Z" fill="currentColor" />
<path d="M12.004 12C12.556 12 13.004 12.448 13 13C13 13.552 12.552 14 12 14C11.448 14 11 13.552 11 13C11 12.448 11.448 12 12.004 12Z" fill="currentColor" />
</symbol>
<symbol id="capremont" viewBox="0 0 24 24" fill="none" >
<path d="M7 9L9 13H10L11 15H12M7 9H17M7 9V7M17 9L15 13H14L13 15H12M17 9V7M17 6V5C17 4.44772 16.5523 4 16 4H15L14 2H10L9 4H8C7.44772 4 7 4.44772 7 5V6M17 6H21V7H17M17 6V7M7 6H3V7H7M7 6V7M12 15V22" stroke="currentColor" stroke-width="2" stroke-linecap="round" stroke-linejoin="round"/>
</symbol>
<symbol id="car_outline" viewBox="0 0 24 24" fill="none" >
<path d="M16.8506 4.0638L13 1.46854L14.9688 5.59398L13.0554 6.14707H16.8261C17.5181 6.14707 18.1053 6.56714 18.315 7.15723L19.3498 10L19.3688 8.82375L24 9.54297L20.3791 6.65387L23.8469 3.59346L19.2584 4.53549L18.9514 0L16.8506 4.0638Z" fill="currentColor" />
<path d="M18.92 6.01C18.72 5.42 18.16 5 17.5 5H6.5C5.84 5 5.29 5.42 5.08 6.01L3 12V20C3 20.55 3.45 21 4 21H5C5.55 21 6 20.55 6 20V19H18V20C18 20.55 18.45 21 19 21H20C20.55 21 21 20.55 21 20V12L18.92 6.01ZM6.85 7H17.14L18.22 10.11H5.77L6.85 7ZM19 17H5V12H19V17Z" fill="currentColor" />
<path d="M7.5 16C8.32843 16 9 15.3284 9 14.5C9 13.6716 8.32843 13 7.5 13C6.67157 13 6 13.6716 6 14.5C6 15.3284 6.67157 16 7.5 16Z" fill="currentColor" />
<path d="M16.5 16C17.3284 16 18 15.3284 18 14.5C18 13.6716 17.3284 13 16.5 13C15.6716 13 15 13.6716 15 14.5C15 15.3284 15.6716 16 16.5 16Z" fill="currentColor" />
</symbol>
<symbol id="card" viewBox="0 0 24 24" fill="none" >
<path fill-rule="evenodd" clip-rule="evenodd" d="M4 4C3.44772 4 3 4.44772 3 5V19C3 19.5523 3.44772 20 4 20H20C20.5523 20 21 19.5523 21 19V5C21 4.44772 20.5523 4 20 4H4ZM23 5C23 3.34315 21.6569 2 20 2H4C2.34315 2 1 3.34315 1 5V19C1 20.6569 2.34315 22 4 22H20C21.6569 22 23 20.6569 23 19V5Z" fill="currentColor" />
<path fill-rule="evenodd" clip-rule="evenodd" d="M5 8C5 7.44772 5.44772 7 6 7H11C11.5523 7 12 7.44772 12 8C12 8.55228 11.5523 9 11 9H6C5.44772 9 5 8.55228 5 8Z" fill="currentColor" />
<path fill-rule="evenodd" clip-rule="evenodd" d="M5 12C5 11.4477 5.44772 11 6 11H11C11.5523 11 12 11.4477 12 12C12 12.5523 11.5523 13 11 13H6C5.44772 13 5 12.5523 5 12Z" fill="currentColor" />
<path fill-rule="evenodd" clip-rule="evenodd" d="M5 16C5 15.4477 5.44772 15 6 15H18C18.5523 15 19 15.4477 19 16C19 16.5523 18.5523 17 18 17H6C5.44772 17 5 16.5523 5 16Z" fill="currentColor" />
<path fill-rule="evenodd" clip-rule="evenodd" d="M13 9C13 7.89543 13.8954 7 15 7H17C18.1046 7 19 7.89543 19 9V11C19 12.1046 18.1046 13 17 13H15C13.8954 13 13 12.1046 13 11V9ZM17 9H15V11H17V9Z" fill="currentColor" />
</symbol>
<symbol id="chart" viewBox="0 0 24 24" fill="none" >
<path d="M17 17V13" stroke="currentColor" stroke-width="2" stroke-linecap="round" stroke-linejoin="round"/>
<path d="M12 17V7" stroke="currentColor" stroke-width="2" stroke-linecap="round" stroke-linejoin="round"/>
<path d="M7 17V10" stroke="currentColor" stroke-width="2" stroke-linecap="round" stroke-linejoin="round"/>
<path fill-rule="evenodd" clip-rule="evenodd" d="M4 3C3.44772 3 3 3.44772 3 4V20C3 20.5523 3.44772 21 4 21H20C20.5523 21 21 20.5523 21 20V4C21 3.44772 20.5523 3 20 3H4ZM23 4C23 2.34315 21.6569 1 20 1H4C2.34315 1 1 2.34315 1 4V20C1 21.6569 2.34315 23 4 23H20C21.6569 23 23 21.6569 23 20V4Z" fill="currentColor" />
</symbol>
<symbol id="chatbot" viewBox="0 0 24 24" fill="none" >
<path fill-rule="evenodd" clip-rule="evenodd" d="M12.5 4C8.29989 4 5 7.19026 5 11C5 13.1149 6.00586 15.0246 7.62446 16.3187C7.86181 16.5084 8 16.7958 8 17.0997V19.1315L9.82254 17.9165C10.0548 17.7616 10.3411 17.7109 10.6124 17.7766C11.2143 17.9222 11.8467 18 12.5 18C16.7001 18 20 14.8097 20 11C20 7.19026 16.7001 4 12.5 4ZM3 11C3 5.97319 7.31127 2 12.5 2C17.6887 2 22 5.97319 22 11C22 16.0268 17.6887 20 12.5 20C11.8428 20 11.2003 19.9367 10.5791 19.8158L7.5547 21.8321C7.24784 22.0366 6.8533 22.0557 6.52814 21.8817C6.20298 21.7077 6 21.3688 6 21V17.5641C4.16331 15.931 3 13.6003 3 11Z" fill="currentColor" />
<path fill-rule="evenodd" clip-rule="evenodd" d="M11.5 11C11.5 10.4576 11.9576 10 12.5 10C13.0424 10 13.5 10.4576 13.5 11C13.5 11.5424 13.0424 12 12.5 12C11.9576 12 11.5 11.5424 11.5 11Z" fill="currentColor" />
<path fill-rule="evenodd" clip-rule="evenodd" d="M14.5 11C14.5 10.4576 14.9576 10 15.5 10C16.0424 10 16.5 10.4576 16.5 11C16.5 11.5424 16.0424 12 15.5 12C14.9576 12 14.5 11.5424 14.5 11Z" fill="currentColor" />
<path fill-rule="evenodd" clip-rule="evenodd" d="M8.5 11C8.5 10.4576 8.95763 10 9.5 10C10.0424 10 10.5 10.4576 10.5 11C10.5 11.5424 10.0424 12 9.5 12C8.95763 12 8.5 11.5424 8.5 11Z" fill="currentColor" />
</symbol>
<symbol id="check" viewBox="0 0 24 24" fill="none" >
<path fill-rule="evenodd" clip-rule="evenodd" d="M19.7071 6.79289C20.0976 7.18342 20.0976 7.81658 19.7071 8.20711L10.7071 17.2071C10.3166 17.5976 9.68342 17.5976 9.29289 17.2071L4.29289 12.2071C3.90237 11.8166 3.90237 11.1834 4.29289 10.7929C4.68342 10.4024 5.31658 10.4024 5.70711 10.7929L10 15.0858L18.2929 6.79289C18.6834 6.40237 19.3166 6.40237 19.7071 6.79289Z" fill="currentColor" />
</symbol>
<symbol id="columns" viewBox="0 0 24 24" fill="none" >
<path d="M15 4V20" stroke="currentColor" stroke-width="2" stroke-linecap="round" stroke-linejoin="round"/>
<path d="M9 4V20" stroke="currentColor" stroke-width="2" stroke-linecap="round" stroke-linejoin="round"/>
<path d="M19 3H5C3.89543 3 3 3.89543 3 5V19C3 20.1046 3.89543 21 5 21H19C20.1046 21 21 20.1046 21 19V5C21 3.89543 20.1046 3 19 3Z" stroke="currentColor" stroke-width="2" stroke-linecap="round"/>
</symbol>
<symbol id="contact" viewBox="0 0 24 24" fill="none" >
<path fill-rule="evenodd" clip-rule="evenodd" d="M1 8C1 7.44772 1.44772 7 2 7H6C6.55228 7 7 7.44772 7 8C7 8.55228 6.55228 9 6 9H2C1.44772 9 1 8.55228 1 8Z" fill="currentColor" />
<path fill-rule="evenodd" clip-rule="evenodd" d="M1 16C1 15.4477 1.44772 15 2 15H6C6.55228 15 7 15.4477 7 16C7 16.5523 6.55228 17 6 17H2C1.44772 17 1 16.5523 1 16Z" fill="currentColor" />
<path fill-rule="evenodd" clip-rule="evenodd" d="M3 6C3 4.34315 4.34315 3 6 3H20C21.6569 3 23 4.34315 23 6V20C23 21.6569 21.6569 23 20 23H6C4.34315 23 3 21.6569 3 20V6ZM6 5C5.44772 5 5 5.44772 5 6V20C5 20.5523 5.44772 21 6 21H20C20.5523 21 21 20.5523 21 20V6C21 5.44772 20.5523 5 20 5H6Z" fill="currentColor" />
<path d="M9 17.5C9 17.5 10.6 16 13 16C15.4 16 17 17.5 17 17.5" stroke="currentColor" stroke-width="2" stroke-linecap="round" stroke-linejoin="round"/>
<path fill-rule="evenodd" clip-rule="evenodd" d="M13 12C13.5523 12 14 11.5523 14 11C14 10.4477 13.5523 10 13 10C12.4477 10 12 10.4477 12 11C12 11.5523 12.4477 12 13 12ZM13 14C14.6569 14 16 12.6569 16 11C16 9.34315 14.6569 8 13 8C11.3431 8 10 9.34315 10 11C10 12.6569 11.3431 14 13 14Z" fill="currentColor" />
</symbol>
<symbol id="contract" viewBox="0 0 24 24" fill="none" >
<path fill-rule="evenodd" clip-rule="evenodd" d="M6 3C5.44772 3 5 3.44772 5 4V20C5 20.5523 5.44772 21 6 21H18C18.5523 21 19 20.5523 19 20V6.82843C19 6.56321 18.8946 6.30886 18.7071 6.12132L15.8787 3.29289C15.6911 3.10536 15.4368 3 15.1716 3H6ZM3 4C3 2.34315 4.34315 1 6 1H15.1716C15.9672 1 16.7303 1.31607 17.2929 1.87868L20.1213 4.70711C20.6839 5.26972 21 6.03278 21 6.82843V20C21 21.6569 19.6569 23 18 23H6C4.34315 23 3 21.6569 3 20V4Z" fill="currentColor" />
<path fill-rule="evenodd" clip-rule="evenodd" d="M6 12C6 11.4477 6.44772 11 7 11H16C16.5523 11 17 11.4477 17 12C17 12.5523 16.5523 13 16 13H7C6.44772 13 6 12.5523 6 12Z" fill="currentColor" />
<path fill-rule="evenodd" clip-rule="evenodd" d="M6 18C6 17.4477 6.44772 17 7 17H12C12.5523 17 13 17.4477 13 18C13 18.5523 12.5523 19 12 19H7C6.44772 19 6 18.5523 6 18Z" fill="currentColor" />
<path fill-rule="evenodd" clip-rule="evenodd" d="M6 15C6 14.4477 6.44772 14 7 14H16C16.5523 14 17 14.4477 17 15C17 15.5523 16.5523 16 16 16H7C6.44772 16 6 15.5523 6 15Z" fill="currentColor" />
<path fill-rule="evenodd" clip-rule="evenodd" d="M6 6C6 4.89543 6.89543 4 8 4H10C11.1046 4 12 4.89543 12 6V8C12 9.10457 11.1046 10 10 10H8C6.89543 10 6 9.10457 6 8V6ZM10 6H8V8H10V6Z" fill="currentColor" />
</symbol>
<symbol id="copy" viewBox="0 0 24 24" fill="none" >
<path d="M15.5 2H8.6C8.2 2 7.8 2.2 7.5 2.5C7.2 2.8 7 3.2 7 3.6V16.4C7 16.8 7.2 17.2 7.5 17.5C7.8 17.8 8.2 18 8.6 18H18.4C18.8 18 19.2 17.8 19.5 17.5C19.8 17.2 20 16.8 20 16.4V6.5L15.5 2Z" stroke="currentColor" stroke-width="2" stroke-linecap="round" stroke-linejoin="round"/>
<path d="M3 7.59998V20.4C3 20.8 3.2 21.2 3.5 21.5C3.8 21.8 4.2 22 4.6 22H14.4" stroke="currentColor" stroke-width="2" stroke-linecap="round" stroke-linejoin="round"/>
<path d="M15 2V7H20" stroke="currentColor" stroke-width="2" stroke-linecap="round" stroke-linejoin="round"/>
</symbol>
<symbol id="corner_round" viewBox="0 0 24 24" fill="none" >
<rect x="2" y="2" width="2" height="2" rx="1" fill="currentColor" />
<rect x="2" y="20" width="2" height="2" rx="1" fill="currentColor" />
<rect x="2" y="15.5" width="2" height="2" rx="1" fill="currentColor" />
<rect x="2" y="6.5" width="2" height="2" rx="1" fill="currentColor" />
<rect x="2" y="11" width="2" height="2" rx="1" fill="currentColor" />
<rect x="6.5" y="20" width="2" height="2" rx="1" fill="currentColor" />
<rect x="11" y="20" width="2" height="2" rx="1" fill="currentColor" />
<rect x="15.5" y="20" width="2" height="2" rx="1" fill="currentColor" />
<rect x="6.5" y="2" width="2" height="2" rx="1" fill="currentColor" />
<rect x="20" y="20" width="2" height="2" rx="1" fill="currentColor" />
<rect x="20" y="15.5" width="2" height="2" rx="1" fill="currentColor" />
<path d="M7.5 2C6.94772 2 6.5 2.44772 6.5 3C6.5 3.55228 6.94772 4 7.5 4V2ZM20 16.5C20 17.0523 20.4477 17.5 21 17.5C21.5523 17.5 22 17.0523 22 16.5H20ZM7.5 4H9V2H7.5V4ZM20 15V16.5H22V15H20ZM9 4C15.0751 4 20 8.92487 20 15H22C22 7.8203 16.1797 2 9 2V4Z" fill="currentColor" />
</symbol>
<symbol id="corner" viewBox="0 0 24 24" fill="none" >
<rect x="2" y="2" width="2" height="2" rx="1" fill="currentColor" />
<rect x="2" y="20" width="2" height="2" rx="1" fill="currentColor" />
<rect x="2" y="15.5" width="2" height="2" rx="1" fill="currentColor" />
<rect x="2" y="6.5" width="2" height="2" rx="1" fill="currentColor" />
<rect x="2" y="11" width="2" height="2" rx="1" fill="currentColor" />
<rect x="6.5" y="20" width="2" height="2" rx="1" fill="currentColor" />
<rect x="11" y="20" width="2" height="2" rx="1" fill="currentColor" />
<rect x="15.5" y="20" width="2" height="2" rx="1" fill="currentColor" />
<rect x="6.5" y="2" width="2" height="2" rx="1" fill="currentColor" />
<rect x="20" y="20" width="2" height="2" rx="1" fill="currentColor" />
<rect x="20" y="15.5" width="2" height="2" rx="1" fill="currentColor" />
<path d="M7.5 2C6.94772 2 6.5 2.44772 6.5 3C6.5 3.55228 6.94772 4 7.5 4V2ZM21 3H22C22 2.44772 21.5523 2 21 2V3ZM20 16.5C20 17.0523 20.4477 17.5 21 17.5C21.5523 17.5 22 17.0523 22 16.5H20ZM7.5 4H21V2H7.5V4ZM20 3V16.5H22V3H20Z" fill="currentColor" />
</symbol>
<symbol id="cross" viewBox="0 0 24 24" fill="none" >
<path fill-rule="evenodd" clip-rule="evenodd" d="M5.2929 5.29289C5.68342 4.90237 6.31659 4.90237 6.70711 5.29289L18.7071 17.2929C19.0976 17.6834 19.0976 18.3166 18.7071 18.7071C18.3166 19.0976 17.6834 19.0976 17.2929 18.7071L5.2929 6.70711C4.90238 6.31658 4.90238 5.68342 5.2929 5.29289Z" fill="currentColor" />
<path fill-rule="evenodd" clip-rule="evenodd" d="M18.7071 5.29289C18.3166 4.90237 17.6834 4.90237 17.2929 5.29289L5.29288 17.2929C4.90236 17.6834 4.90236 18.3166 5.29288 18.7071C5.6834 19.0976 6.31657 19.0976 6.70709 18.7071L18.7071 6.70711C19.0976 6.31658 19.0976 5.68342 18.7071 5.29289Z" fill="currentColor" />
</symbol>
<symbol id="cubes" viewBox="0 0 24 24" fill="none" >
<path d="M21 15.9999V7.9999C20.9996 7.64918 20.9071 7.30471 20.7315 7.00106C20.556 6.69742 20.3037 6.44526 20 6.2699L13 2.2699C12.696 2.09437 12.3511 2.00195 12 2.00195C11.6489 2.00195 11.304 2.09437 11 2.2699L4 6.2699C3.69626 6.44526 3.44398 6.69742 3.26846 7.00106C3.09294 7.30471 3.00036 7.64918 3 7.9999V15.9999C3.00036 16.3506 3.09294 16.6951 3.26846 16.9987C3.44398 17.3024 3.69626 17.5545 4 17.7299L11 21.7299C11.304 21.9054 11.6489 21.9979 12 21.9979C12.3511 21.9979 12.696 21.9054 13 21.7299L20 17.7299C20.3037 17.5545 20.556 17.3024 20.7315 16.9987C20.9071 16.6951 20.9996 16.3506 21 15.9999Z" stroke="currentColor" stroke-width="2" stroke-linecap="round" stroke-linejoin="round"/>
<path d="M3.29004 7L12 12L20.71 7" stroke="currentColor" stroke-width="2" stroke-linecap="round" stroke-linejoin="round"/>
<path d="M12 22V12" stroke="currentColor" stroke-width="2" stroke-linecap="round" stroke-linejoin="round"/>
</symbol>
<symbol id="document" viewBox="0 0 24 24" fill="none" >
<path d="M14.5 2H6C5.46957 2 4.96086 2.21071 4.58579 2.58579C4.21071 2.96086 4 3.46957 4 4V20C4 20.5304 4.21071 21.0391 4.58579 21.4142C4.96086 21.7893 5.46957 22 6 22H18C18.5304 22 19.0391 21.7893 19.4142 21.4142C19.7893 21.0391 20 20.5304 20 20V7.5L14.5 2Z" stroke="currentColor" stroke-width="2" stroke-linecap="round" stroke-linejoin="round"/>
<path d="M14 2V8H20" stroke="currentColor" stroke-width="2" stroke-linecap="round" stroke-linejoin="round"/>
<path d="M16 13H8" stroke="currentColor" stroke-width="2" stroke-linecap="round" stroke-linejoin="round"/>
<path d="M16 17H8" stroke="currentColor" stroke-width="2" stroke-linecap="round" stroke-linejoin="round"/>
<path d="M10 9H8" stroke="currentColor" stroke-width="2" stroke-linecap="round" stroke-linejoin="round"/>
</symbol>
<symbol id="double_check" viewBox="0 0 24 24" fill="none" >
<path fill-rule="evenodd" clip-rule="evenodd" d="M21.7071 6.79289C22.0976 7.18342 22.0976 7.81658 21.7071 8.20711L12.7071 17.2071C12.3166 17.5976 11.6834 17.5976 11.2929 17.2071L6.29289 12.2071C5.90237 11.8166 5.90237 11.1834 6.29289 10.7929C6.68342 10.4024 7.31658 10.4024 7.70711 10.7929L12 15.0858L20.2929 6.79289C20.6834 6.40237 21.3166 6.40237 21.7071 6.79289Z" fill="currentColor" />
<path fill-rule="evenodd" clip-rule="evenodd" d="M9.41789 16.4963L8.70711 17.2071C8.31658 17.5976 7.68342 17.5976 7.29289 17.2071L2.29289 12.2071C1.90237 11.8166 1.90237 11.1834 2.29289 10.7929C2.68342 10.4024 3.31658 10.4024 3.70711 10.7929L8 15.0858L8.00368 15.0821L9.41789 16.4963ZM17.956 7.79398C18.061 7.45153 17.978 7.06382 17.7071 6.79289C17.3166 6.40237 16.6834 6.40237 16.2929 6.79289L10.8321 12.2537L12.1642 13.5858L17.956 7.79398Z" fill="currentColor" />
</symbol>
<symbol id="download" viewBox="0 0 24 24" fill="none" >
<path fill-rule="evenodd" clip-rule="evenodd" d="M15.7071 11.7071L12.7071 14.7071C12.3166 15.0976 11.6834 15.0976 11.2929 14.7071L8.29289 11.7071C7.90237 11.3166 7.90237 10.6834 8.29289 10.2929C8.68342 9.90237 9.31658 9.90237 9.70711 10.2929L11 11.5858L11 4C11 3.44772 11.4477 3 12 3C12.5523 3 13 3.44772 13 4L13 11.5858L14.2929 10.2929C14.6834 9.90237 15.3166 9.90237 15.7071 10.2929C16.0976 10.6834 16.0976 11.3166 15.7071 11.7071Z" fill="currentColor" />
<path fill-rule="evenodd" clip-rule="evenodd" d="M2 12C2.55228 12 3 12.4477 3 13V18C3 19.1046 3.89543 20 5 20H19C20.1046 20 21 19.1046 21 18V13C21 12.4477 21.4477 12 22 12C22.5523 12 23 12.4477 23 13V18C23 20.2091 21.2091 22 19 22H5C2.79086 22 1 20.2091 1 18V13C1 12.4477 1.44772 12 2 12Z" fill="currentColor" />
</symbol>
<symbol id="drag_map" viewBox="0 0 24 24" fill="none" >
<circle cx="12" cy="12" r="2" fill="currentColor" />
<path d="M19.0711 9.17157L21.1924 11.2929C21.5829 11.6834 21.5829 12.3166 21.1924 12.7071L19.0711 14.8284M14.8284 4.92893L12.7071 2.80761C12.3166 2.41709 11.6834 2.41709 11.2929 2.80761L9.17157 4.92893M4.92893 9.17157L2.80761 11.2929C2.41709 11.6834 2.41709 12.3166 2.80761 12.7071L4.92893 14.8284M14.8284 19.0711L12.7071 21.1924C12.3166 21.5829 11.6834 21.5829 11.2929 21.1924L9.17157 19.0711" stroke="currentColor" stroke-width="2" stroke-linecap="round"/>
</symbol>
<symbol id="e-mail" viewBox="0 0 24 24" fill="none" >
<path fill-rule="evenodd" clip-rule="evenodd" d="M5.2318 7.35981C5.58537 6.93553 6.21593 6.87821 6.64021 7.23177L11.3598 11.1648C11.7307 11.4738 12.2694 11.4738 12.6402 11.1648L17.3598 7.23177C17.7841 6.87821 18.4147 6.93553 18.7682 7.35981C19.1218 7.78409 19.0645 8.41465 18.6402 8.76822L13.9206 12.7012C12.808 13.6284 11.192 13.6284 10.0795 12.7012L5.35984 8.76822C4.93556 8.41465 4.87824 7.78409 5.2318 7.35981Z" fill="currentColor" />
<path fill-rule="evenodd" clip-rule="evenodd" d="M4 5C3.44772 5 3 5.44772 3 6V18C3 18.5523 3.44772 19 4 19H20C20.5523 19 21 18.5523 21 18V6C21 5.44771 20.5523 5 20 5H4ZM23 6C23 4.34314 21.6569 3 20 3H4C2.34315 3 1 4.34315 1 6V18C1 19.6569 2.34315 21 4 21H20C21.6569 21 23 19.6569 23 18V6Z" fill="currentColor" />
</symbol>
<symbol id="edit" viewBox="0 0 24 24" fill="none" >
<path d="M11 4H4C3.46957 4 2.96086 4.21071 2.58579 4.58579C2.21071 4.96086 2 5.46957 2 6V20C2 20.5304 2.21071 21.0391 2.58579 21.4142C2.96086 21.7893 3.46957 22 4 22H18C18.5304 22 19.0391 21.7893 19.4142 21.4142C19.7893 21.0391 20 20.5304 20 20V13" stroke="currentColor" stroke-width="2" stroke-linecap="round" stroke-linejoin="round"/>
<path d="M19.75 1.41699L22.5833 4.25033" stroke="currentColor" stroke-width="2" stroke-linecap="round" stroke-linejoin="round"/>
<path d="M12.3128 14.5212L20.4587 6.37533L17.6253 3.54199L9.47949 11.6878L8.41699 15.5837L12.3128 14.5212Z" stroke="currentColor" stroke-width="2" stroke-linecap="round" stroke-linejoin="round"/>
</symbol>
<symbol id="enter" viewBox="0 0 24 24" fill="none" >
<path fill-rule="evenodd" clip-rule="evenodd" d="M20 3C20.5523 3 21 3.44772 21 4V10.6404C21 13.4018 18.7614 15.6404 16 15.6404H6.41421L10.0711 19.2972C10.4616 19.6877 10.4616 20.3209 10.0711 20.7114C9.68054 21.102 9.04738 21.102 8.65685 20.7114L3.29289 15.3475C2.90237 14.9569 2.90237 14.3238 3.29289 13.9333L8.65685 8.5693C9.04738 8.17877 9.68054 8.17877 10.0711 8.5693C10.4616 8.95982 10.4616 9.59298 10.0711 9.98351L6.41421 13.6404H16C17.6569 13.6404 19 12.2972 19 10.6404V4C19 3.44772 19.4477 3 20 3Z" fill="currentColor" />
</symbol>
<symbol id="eye" viewBox="0 0 24 24" fill="none" >
<path fill-rule="evenodd" clip-rule="evenodd" d="M2.10863 11.3326C2.77792 8.96555 6.0365 5 12.0239 5C18.4544 5 21.4547 9.34771 21.9318 11.4979C21.9765 11.6585 21.9966 11.8165 21.9998 11.9869L22 11.9982L22 12.0095C21.9992 12.216 21.9675 12.421 21.9061 12.6177C21.3519 14.7322 18.4091 19 12.0263 19C5.98166 19 2.63713 14.9604 2.07242 12.5179C2.02532 12.3521 2.00323 12.1873 2.00015 12.0117L1.9999 11.9974L2.00006 11.9831C2.00253 11.7617 2.03925 11.5424 2.10863 11.3326ZM12.0239 7C6.96009 7 4.45317 10.3498 4.02866 11.8929L4.01961 11.9258L4.00835 11.958C4.00494 11.9677 4.00261 11.9775 4.00127 11.9872L4.00791 12.0086L4.01696 12.0495C4.35117 13.5591 6.8763 17 12.0263 17C17.4131 17 19.6388 13.4247 19.9757 12.0944L19.9847 12.0586L19.9964 12.0236C19.9974 12.0205 19.9982 12.0175 19.9988 12.0144L19.9927 11.9947L19.9831 11.949C19.7147 10.67 17.4794 7 12.0239 7ZM20 12.0184C20.0001 12.0203 20.0001 12.0223 20.0002 12.0247L20.0019 12.0246L20.0022 12.0255L20.0065 12.0392C20.0055 12.0361 20.0042 12.0314 20.0029 12.0257C20.0028 12.0257 20.0028 12.0256 20.0028 12.0255C20.0027 12.0252 20.0027 12.0249 20.0026 12.0246" fill="currentColor" />
<path fill-rule="evenodd" clip-rule="evenodd" d="M8.5 12C8.5 10.067 10.067 8.5 12 8.5H12.0012C13.9326 8.50229 15.4977 10.0674 15.5 11.9988L15.5 12C15.5 13.933 13.933 15.5 12 15.5C10.067 15.5 8.5 13.933 8.5 12Z" fill="currentColor" />
</symbol>
<symbol id="eye_closed" viewBox="0 0 24 24" fill="none" >
<path fill-rule="evenodd" clip-rule="evenodd" d="M19.7071 19.5429C20.0976 19.9334 20.0976 20.5666 19.7071 20.9571C19.3166 21.3476 18.6834 21.3476 18.2929 20.9571L15.7763 18.4405C14.6878 18.7902 13.4416 19 12.0262 19C5.98164 19 2.63711 14.9604 2.07239 12.5179C2.0253 12.3521 2.00321 12.1873 2.00013 12.0117L1.99988 11.9974L2.00004 11.9831C2.0025 11.7617 2.03923 11.5424 2.10861 11.3326C2.42574 10.211 3.32421 8.73053 4.81887 7.48309L3.29289 5.95711C2.90237 5.56658 2.90237 4.93342 3.29289 4.54289C3.68342 4.15237 4.31658 4.15237 4.70711 4.54289L19.7071 19.5429ZM6.24021 8.90442C4.9565 9.92701 4.23838 11.1305 4.02864 11.8929L4.01959 11.9258L4.00833 11.958C4.00492 11.9677 4.00258 11.9775 4.00125 11.9873L4.00788 12.0086L4.01693 12.0495C4.35115 13.5591 6.87627 17 12.0262 17C12.7921 17 13.494 16.9277 14.1357 16.7999L12.7543 15.4185C12.5114 15.4719 12.259 15.5 12 15.5C10.067 15.5 8.5 13.933 8.5 12C8.5 11.741 8.52812 11.4886 8.58149 11.2457L6.24021 8.90442ZM21.9061 12.6177C21.6234 13.6964 20.7191 15.3354 19.0536 16.6823L17.6291 15.2577C19.0781 14.1537 19.7959 12.8043 19.9756 12.0944L19.9847 12.0586L19.9964 12.0236L19.997 12.0217C19.9977 12.0193 19.9983 12.0169 19.9988 12.0144L19.9927 11.9947L19.9831 11.949C19.7147 10.67 17.4794 7 12.0239 7C11.1551 7 10.3617 7.09859 9.64106 7.26973L8.03181 5.66049C9.19233 5.24942 10.5223 5 12.0239 5C18.4544 5 21.4547 9.34771 21.9317 11.4979C21.9765 11.6585 21.9966 11.8165 21.9998 11.9869L22 11.9982L22 12.0095C21.9992 12.216 21.9675 12.421 21.9061 12.6177ZM15.5 12C15.5 12.3429 15.4507 12.6743 15.3588 12.9875L11.0126 8.64123C11.3257 8.54931 11.6571 8.5 12 8.5H12.0012C13.9326 8.50229 15.4977 10.0674 15.5 11.9988L15.5 12ZM20.0002 12.0247L20 12.0184L20.0026 12.0246L20.0028 12.0255L20.0028 12.0257C20.0041 12.0314 20.0055 12.0361 20.0064 12.0392L20.0022 12.0255L20.0019 12.0246L20.0002 12.0247Z" fill="currentColor" />
</symbol>
<symbol id="find_me" viewBox="0 0 24 24" fill="none" >
<path fill-rule="evenodd" clip-rule="evenodd" d="M18.4469 3.13234C19.9645 2.54062 21.4564 4.03749 20.868 5.55222L15.2653 19.9607C15.0209 20.587 14.4186 21 13.7452 21C13.0936 21 12.5029 20.6125 12.2458 20.0107V20.0107L9.76865 14.2313L3.98961 11.7544V11.7544C3.38785 11.4972 3 10.9064 3 10.2548C3 9.58199 3.41238 8.97985 4.03736 8.73511L4.03946 8.73428L18.4469 3.13234V3.13234ZM19.1246 4.87543L5.26267 10.2653L11.1929 12.8071L13.7345 18.7369L19.1246 4.87543ZM4.72405 10.0344L4.72521 10.0349Z" fill="currentColor" />
</symbol>
<symbol id="fit" viewBox="0 0 24 24" fill="none" >
<path d="M10 12H3" stroke="currentColor" stroke-width="2" stroke-linecap="round"/>
<path d="M7 8.5L10.5 12L7 15.5" stroke="currentColor" stroke-width="2" stroke-linecap="round" stroke-linejoin="round"/>
<path d="M14 12H21" stroke="currentColor" stroke-width="2" stroke-linecap="round"/>
<path d="M17 8.5L13.5 12L17 15.5" stroke="currentColor" stroke-width="2" stroke-linecap="round" stroke-linejoin="round"/>
<path d="M21 16V19C21 20.1046 20.1046 21 19 21H14.5M21 8V5C21 3.89543 20.1046 3 19 3H14.5M15.5 3H5C3.89543 3 3 3.89543 3 5V8M15.5 21H5C3.89543 21 3 20.1046 3 19V16" stroke="currentColor" stroke-width="2" stroke-linecap="round"/>
</symbol>
<symbol id="flash" viewBox="0 0 24 24" fill="none" >
<g clip-path="url(#clip0_9161_311306)">
<rect x="16.6497" y="2.84296" width="6" height="5" transform="rotate(45 16.6497 2.84296)" stroke="currentColor" stroke-width="2" stroke-linejoin="round"/>
<path d="M11.7 4.96423L18.771 12.0353L10.2858 20.5206C9.11418 21.6922 7.21469 21.6922 6.04311 20.5206L2.50758 16.985C1.72653 16.204 1.72653 14.9377 2.50758 14.1566L11.7 4.96423Z" stroke="currentColor" stroke-width="2" stroke-linejoin="round"/>
<rect x="8.16443" y="8.49976" width="2" height="10" transform="rotate(-45 8.16443 8.49976)" fill="currentColor" />
</g>
<defs>
<clipPath id="clip0_9161_311306">
<rect width="24" height="24" fill="currentColor" />
</clipPath>
</defs>
</symbol>
<symbol id="group" viewBox="0 0 24 24" fill="none" >
<g clip-path="url(#clip0_5208_218442)">
<path fill-rule="evenodd" clip-rule="evenodd" d="M12 14C12.5523 14 13 13.5523 13 13C13 12.4477 12.5523 12 12 12C11.4477 12 11 12.4477 11 13C11 13.5523 11.4477 14 12 14ZM12 16C13.6569 16 15 14.6569 15 13C15 11.3431 13.6569 10 12 10C10.3431 10 9 11.3431 9 13C9 14.6569 10.3431 16 12 16Z" fill="currentColor" />
<path fill-rule="evenodd" clip-rule="evenodd" d="M18 9C18.5523 9 19 8.55228 19 8C19 7.44772 18.5523 7 18 7C17.4477 7 17 7.44772 17 8C17 8.55228 17.4477 9 18 9ZM18 11C19.6569 11 21 9.65685 21 8C21 6.34315 19.6569 5 18 5C16.3431 5 15 6.34315 15 8C15 9.65685 16.3431 11 18 11Z" fill="currentColor" />
<path fill-rule="evenodd" clip-rule="evenodd" d="M6.40849 18.6937C7.85795 17.6304 9.84491 17 12 17C14.1551 17 16.1419 17.6303 17.5913 18.6929C18.0367 19.0195 18.133 19.6452 17.8065 20.0906C17.4799 20.5361 16.8541 20.6324 16.4087 20.3059C15.3436 19.525 13.7839 19 12 19C10.2161 19 8.6565 19.525 7.59151 20.3063C7.14621 20.633 6.52039 20.5368 6.1937 20.0915C5.86702 19.6462 5.96318 19.0204 6.40849 18.6937Z" fill="currentColor" />
<path fill-rule="evenodd" clip-rule="evenodd" d="M16 13C16 12.4477 16.4477 12 17 12C19.5742 12 21.9301 12.8378 23.6316 14.2239C24.0598 14.5727 24.1241 15.2026 23.7753 15.6308C23.4265 16.059 22.7966 16.1233 22.3684 15.7745C21.0526 14.7026 19.1526 14 17 14C16.4477 14 16 13.5523 16 13Z" fill="currentColor" />
<path fill-rule="evenodd" clip-rule="evenodd" d="M6 9C5.44772 9 5 8.55228 5 8C5 7.44772 5.44772 7 6 7C6.55228 7 7 7.44772 7 8C7 8.55228 6.55228 9 6 9ZM6 11C4.34315 11 3 9.65685 3 8C3 6.34315 4.34315 5 6 5C7.65685 5 9 6.34315 9 8C9 9.65685 7.65685 11 6 11Z" fill="currentColor" />
<path fill-rule="evenodd" clip-rule="evenodd" d="M8 13C8 12.4477 7.55228 12 7 12C4.4258 12 2.06993 12.8378 0.368429 14.2239C-0.0597677 14.5727 -0.124126 15.2026 0.22468 15.6308C0.573486 16.059 1.20337 16.1233 1.63157 15.7745C2.94742 14.7026 4.84738 14 7 14C7.55228 14 8 13.5523 8 13Z" fill="currentColor" />
</g>
<defs>
<clipPath id="clip0_5208_218442">
<rect width="24" height="24" fill="currentColor" />
</clipPath>
</defs>
</symbol>
<symbol id="history" viewBox="0 0 24 24" fill="none" >
<path d="M2.46006 14.9983C2.25977 14.361 2.09085 13.785 2.05316 13.0298C2.01547 12.2745 3.52933 12.0342 3.89095 12.985C4.25258 13.9357 4.50115 14.787 4.50115 14.787C4.86872 15.776 5.43065 16.6888 6.16094 17.4686C7.35539 18.744 8.93455 19.5932 10.6571 19.8865C12.3797 20.1798 14.1509 19.9011 15.7001 19.0929C17.2494 18.2847 18.4914 16.9915 19.2364 15.411C19.9814 13.8304 20.1885 12.0494 19.8259 10.34C19.4633 8.63072 18.5511 7.0871 17.2286 5.94508C15.906 4.80306 14.246 4.12544 12.5021 4.01578C11.4358 3.94873 10.3741 4.09625 9.37735 4.44211L7.62762 5.23068L6.46394 3.67222L6.46507 3.67147C7.02738 3.29777 7.62273 2.98416 8.24135 2.73325C9.62359 2.17263 11.122 1.92504 12.6276 2.01972C14.8075 2.1568 16.8826 3.00382 18.5357 4.43135C20.1888 5.85888 21.3291 7.78839 21.7824 9.92505C22.2356 12.0617 21.9768 14.288 21.0455 16.2637C20.1142 18.2394 18.5617 19.8559 16.6252 20.8661C14.6886 21.8763 12.4746 22.2248 10.3214 21.8581C8.16819 21.4915 6.19424 20.4299 4.70118 18.8357C3.66995 17.7347 2.90731 16.4213 2.46006 14.9983Z" fill="currentColor" />
<path fill-rule="evenodd" clip-rule="evenodd" d="M11.5 7C12.0523 7 12.5 7.44772 12.5 8V11.9854L15.5812 14.1863C16.0307 14.5073 16.1347 15.1318 15.8137 15.5812C15.4927 16.0307 14.8682 16.1347 14.4188 15.8137L10.5 13.0146V8C10.5 7.44772 10.9477 7 11.5 7Z" fill="currentColor" />
<path d="M4.98832 7.05027C4.76696 7.05276 4.58568 6.87499 4.58383 6.65363L4.55067 2.68058C4.5477 2.32451 4.97647 2.14233 5.23071 2.39164L9.23681 6.31995C9.49105 6.56925 9.31731 7.00151 8.96126 7.00552L4.98832 7.05027Z" fill="currentColor" />
</symbol>
<symbol id="idea" viewBox="0 0 24 24" fill="none" >
<path fill-rule="evenodd" clip-rule="evenodd" d="M16.2753 5.19079C16.2753 5.19081 16.2753 5.19078 16.2753 5.19079L16.2798 5.19497C18.6863 7.44715 18.9183 11.1954 16.8098 13.7296L16.7914 13.7517L15.1875 15.4684V16.037C15.1875 17.0731 14.3883 18 13.26 18H10.3812C9.35905 18 8.375 17.1786 8.375 16.037V15.395L7.1618 13.7005C5.08444 11.165 5.32445 7.44074 7.71761 5.19581C10.1259 2.93669 13.8644 2.93452 16.2753 5.19079ZM14.9087 6.65106C13.2674 5.11501 10.7255 5.1165 9.08593 6.65448C7.45552 8.1839 7.29629 10.7294 8.72494 12.4524L8.74758 12.4798L10.375 14.7529V15.9967C10.3764 15.9975 10.3779 15.9982 10.3794 15.9988C10.3811 15.9995 10.3823 15.9998 10.383 16H13.1875V14.6795L15.2898 12.4294C16.7028 10.7091 16.5389 8.17673 14.9132 6.65532C14.9132 6.6553 14.9133 6.65533 14.9132 6.65532L14.9087 6.65106Z" fill="currentColor" />
<path fill-rule="evenodd" clip-rule="evenodd" d="M8.37494 20C8.37494 19.4477 8.82265 19 9.37494 19H14.1874C14.7397 19 15.1874 19.4477 15.1874 20C15.1874 20.5523 14.7397 21 14.1874 21H9.37494C8.82265 21 8.37494 20.5523 8.37494 20Z" fill="currentColor" />
<path fill-rule="evenodd" clip-rule="evenodd" d="M1.25 10.5C1.25 9.94772 1.69772 9.5 2.25 9.5H3.75C4.30228 9.5 4.75 9.94772 4.75 10.5C4.75 11.0523 4.30228 11.5 3.75 11.5H2.25C1.69772 11.5 1.25 11.0523 1.25 10.5Z" fill="currentColor" />
<path fill-rule="evenodd" clip-rule="evenodd" d="M3.04289 16.7071C2.65237 16.3166 2.65237 15.6834 3.04289 15.2929L4.10355 14.2322C4.49408 13.8417 5.12724 13.8417 5.51777 14.2322C5.90829 14.6228 5.90829 15.2559 5.51777 15.6464L4.45711 16.7071C4.06658 17.0976 3.43342 17.0976 3.04289 16.7071Z" fill="currentColor" />
<path fill-rule="evenodd" clip-rule="evenodd" d="M3.04289 3.79338C3.43342 3.40286 4.06658 3.40286 4.45711 3.79338L5.51777 4.85404C5.90829 5.24456 5.90829 5.87773 5.51777 6.26825C5.12724 6.65878 4.49408 6.65878 4.10355 6.26825L3.04289 5.20759C2.65237 4.81707 2.65237 4.1839 3.04289 3.79338Z" fill="currentColor" />
<path fill-rule="evenodd" clip-rule="evenodd" d="M22.75 10.5C22.75 9.94772 22.3023 9.5 21.75 9.5H20.25C19.6977 9.5 19.25 9.94772 19.25 10.5C19.25 11.0523 19.6977 11.5 20.25 11.5H21.75C22.3023 11.5 22.75 11.0523 22.75 10.5Z" fill="currentColor" />
<path fill-rule="evenodd" clip-rule="evenodd" d="M20.9571 16.7071C21.3476 16.3166 21.3476 15.6834 20.9571 15.2929L19.8964 14.2322C19.5059 13.8417 18.8728 13.8417 18.4822 14.2322C18.0917 14.6228 18.0917 15.2559 18.4822 15.6464L19.5429 16.7071C19.9334 17.0976 20.5666 17.0976 20.9571 16.7071Z" fill="currentColor" />
<path fill-rule="evenodd" clip-rule="evenodd" d="M20.9571 3.79338C20.5666 3.40286 19.9334 3.40286 19.5429 3.79338L18.4822 4.85404C18.0917 5.24456 18.0917 5.87773 18.4822 6.26825C18.8728 6.65878 19.5059 6.65878 19.8964 6.26825L20.9571 5.20759C21.3476 4.81707 21.3476 4.1839 20.9571 3.79338Z" fill="currentColor" />
</symbol>
<symbol id="indicators" viewBox="0 0 24 24" fill="none" >
<path d="M14.5 2H6C5.46957 2 4.96086 2.21071 4.58579 2.58579C4.21071 2.96086 4 3.46957 4 4V20C4 20.5304 4.21071 21.0391 4.58579 21.4142C4.96086 21.7893 5.46957 22 6 22H18C18.5304 22 19.0391 21.7893 19.4142 21.4142C19.7893 21.0391 20 20.5304 20 20V7.5L14.5 2Z" stroke="currentColor" stroke-width="2" stroke-linecap="round" stroke-linejoin="round"/>
<path d="M14 2V8H20" stroke="currentColor" stroke-width="2" stroke-linecap="round" stroke-linejoin="round"/>
<path d="M12 18V12" stroke="currentColor" stroke-width="2" stroke-linecap="round" stroke-linejoin="round"/>
<path d="M8 18V14" stroke="currentColor" stroke-width="2" stroke-linecap="round" stroke-linejoin="round"/>
<path d="M16 18V16" stroke="currentColor" stroke-width="2" stroke-linecap="round" stroke-linejoin="round"/>
</symbol>
<symbol id="info" viewBox="0 0 24 24" fill="none" >
<path fill-rule="evenodd" clip-rule="evenodd" d="M12 10C12.5523 10 13 10.4477 13 11V16C13 16.5523 12.5523 17 12 17C11.4477 17 11 16.5523 11 16V11C11 10.4477 11.4477 10 12 10Z" fill="currentColor" />
<path fill-rule="evenodd" clip-rule="evenodd" d="M12 4C7.58172 4 4 7.58172 4 12C4 16.4183 7.58172 20 12 20C16.4183 20 20 16.4183 20 12C20 7.58172 16.4183 4 12 4ZM2 12C2 6.47715 6.47715 2 12 2C17.5228 2 22 6.47715 22 12C22 17.5228 17.5228 22 12 22C6.47715 22 2 17.5228 2 12Z" fill="currentColor" />
<path d="M13 8C13 8.55228 12.5523 9 12 9C11.4477 9 11 8.55228 11 8C11 7.44772 11.4477 7 12 7C12.5523 7 13 7.44772 13 8Z" fill="currentColor" />
</symbol>
<symbol id="internet_search" viewBox="0 0 24 24" fill="none" >
<path fill-rule="evenodd" clip-rule="evenodd" d="M16 17.5C16 16.6716 16.6716 16 17.5 16C18.3284 16 19 16.6716 19 17.5C19 18.3284 18.3284 19 17.5 19C16.6716 19 16 18.3284 16 17.5ZM17.5 14C15.567 14 14 15.567 14 17.5C14 19.433 15.567 21 17.5 21C18.1028 21 18.6699 20.8476 19.1651 20.5793L20.2929 21.7071C20.6834 22.0977 21.3166 22.0977 21.7071 21.7071C22.0977 21.3166 22.0977 20.6834 21.7071 20.2929L20.5793 19.1651C20.8476 18.6699 21 18.1028 21 17.5C21 15.567 19.433 14 17.5 14Z" fill="currentColor" />
<path d="M7 4V6C7.21572 6.61347 7.62494 7.14024 8.16602 7.50096C8.7071 7.86168 9.35075 8.03682 10 8V8C10.5304 8 11.0391 8.21071 11.4142 8.58579C11.7893 8.96086 12 9.46957 12 10C12 10.5304 12.2107 11.0391 12.5858 11.4142C12.9609 11.7893 13.4696 12 14 12C14.5304 12 15.0391 11.7893 15.4142 11.4142C15.7893 11.0391 16 10.5304 16 10C16 9.46957 16.2107 8.96086 16.5858 8.58579C16.9609 8.21071 17.4696 8 18 8H21" stroke="currentColor" stroke-width="2" stroke-linecap="round" stroke-linejoin="round"/>
<path d="M3 11H5C5.53043 11 6.03914 11.2107 6.41421 11.5858C6.78929 11.9609 7 12.4696 7 13V14C7 14.5304 7.21071 15.0391 7.58579 15.4142C7.96086 15.7893 8.46957 16 9 16C9.53043 16 10.0391 16.2107 10.4142 16.5858C10.7893 16.9609 11 17.4696 11 18V21.5" stroke="currentColor" stroke-width="2" stroke-linecap="round" stroke-linejoin="round"/>
<path d="M14 21.8C13.3538 21.9311 12.6849 22 12 22C6.47715 22 2 17.5228 2 12C2 6.47715 6.47715 2 12 2C17.5228 2 22 6.47715 22 12C22 12.6849 21.9311 13.3538 21.8 14" stroke="currentColor" stroke-width="2" stroke-linecap="round" stroke-linejoin="round"/>
</symbol>
<symbol id="layers" viewBox="0 0 24 24" fill="none" >
<path d="M3 12L11.5939 15.8195C11.8524 15.9344 12.1476 15.9344 12.4061 15.8195L21 12" stroke="currentColor" stroke-width="2" stroke-linecap="round"/>
<path d="M3 16L11.5939 19.8195C11.8524 19.9344 12.1476 19.9344 12.4061 19.8195L21 16" stroke="currentColor" stroke-width="2" stroke-linecap="round"/>
<path d="M3 8L12 4L21 8L12 12L3 8Z" stroke="currentColor" stroke-width="2" stroke-linejoin="round"/>
</symbol>
<symbol id="leave" viewBox="0 0 24 24" fill="none" >
<g clip-path="url(#clip0_302_5297)">
<path d="M9 21H5C4.46957 21 3.96086 20.7893 3.58579 20.4142C3.21071 20.0391 3 19.5304 3 19V5C3 4.46957 3.21071 3.96086 3.58579 3.58579C3.96086 3.21071 4.46957 3 5 3H9" stroke="currentColor" stroke-width="2" stroke-linecap="round" stroke-linejoin="round"/>
<path d="M16 17L21 12L16 7" stroke="currentColor" stroke-width="2" stroke-linecap="round" stroke-linejoin="round"/>
<path d="M21 12H9" stroke="currentColor" stroke-width="2" stroke-linecap="round" stroke-linejoin="round"/>
</g>
<defs>
<clipPath id="clip0_302_5297">
<rect width="24" height="24" fill="currentColor" />
</clipPath>
</defs>
</symbol>
<symbol id="lidar" viewBox="0 0 24 24" fill="none" >
<path d="M19.74 18.33C21.15 16.6 22 14.4 22 12C22 6.48 17.52 2 12 2C6.48 2 2 6.48 2 12C2 17.52 6.48 22 12 22C14.4 22 16.6 21.15 18.33 19.74C18.6 19.52 18.86 19.28 19.11 19.03C19.14 19 19.16 18.97 19.18 18.95C19.38 18.75 19.57 18.54 19.74 18.33ZM12 20C7.59 20 4 16.41 4 12C4 7.59 7.59 4 12 4C16.41 4 20 7.59 20 12C20 13.85 19.37 15.54 18.31 16.9L16.88 15.47C17.57 14.49 17.98 13.3 17.98 12.01C17.98 8.7 15.29 6.01 11.98 6.01C8.67 6.01 5.98 8.7 5.98 12.01C5.98 15.32 8.67 18.01 11.98 18.01C13.28 18.01 14.49 17.59 15.47 16.88L16.89 18.3C15.54 19.37 13.85 20 12 20ZM13.92 12.51C14.09 11.85 13.94 11.13 13.43 10.61L13.41 10.59C12.64 9.82 11.41 9.81 10.63 10.55C10.62 10.56 10.6 10.57 10.58 10.59C9.8 11.37 9.8 12.64 10.58 13.42L10.6 13.44C11.12 13.95 11.85 14.11 12.51 13.93L14.02 15.44C13.42 15.8 12.73 16.02 11.98 16.02C9.77 16.02 7.98 14.23 7.98 12.02C7.98 9.81 9.77 8.02 11.98 8.02C14.19 8.02 15.98 9.81 15.98 12.02C15.98 12.75 15.77 13.43 15.42 14.02L13.92 12.51Z" fill="currentColor" />
</symbol>
<symbol id="list_on_map" viewBox="0 0 24 24" fill="none" >
<path fill-rule="evenodd" clip-rule="evenodd" d="M8.52573 1.14935C8.82055 1.33156 9 1.65342 9 2V19C9 19.3788 8.786 19.725 8.44721 19.8944L2.44721 22.8944C2.13723 23.0494 1.76909 23.0329 1.47427 22.8507C1.17945 22.6684 1 22.3466 1 22V5C1 4.62123 1.214 4.27497 1.55279 4.10557L7.55279 1.10557C7.86277 0.95058 8.23091 0.967144 8.52573 1.14935ZM3 5.61804V20.382L7 18.382V3.61804L3 5.61804Z" fill="currentColor" />
<path fill-rule="evenodd" clip-rule="evenodd" d="M22.5257 1.14935C22.8205 1.33156 23 1.65342 23 2V19C23 19.3788 22.786 19.725 22.4472 19.8944L16.4472 22.8944C16.1372 23.0494 15.7691 23.0329 15.4743 22.8507C15.1795 22.6684 15 22.3466 15 22V5C15 4.62123 15.214 4.27497 15.5528 4.10557L21.5528 1.10557C21.8628 0.95058 22.2309 0.967144 22.5257 1.14935ZM17 5.61804V20.382L21 18.382V3.61804L17 5.61804Z" fill="currentColor" />
<path fill-rule="evenodd" clip-rule="evenodd" d="M15.6489 5.93632L7.64886 2.93632L8.35111 1.06366L16.3511 4.06366L15.6489 5.93632ZM15.6489 22.9363L7.64886 19.9363L8.35111 18.0637L16.3511 21.0637L15.6489 22.9363Z" fill="currentColor" />
</symbol>
<symbol id="list" viewBox="0 0 24 24" fill="none" >
<rect x="4" y="5" width="16" height="2" rx="1" fill="currentColor" />
<rect x="4" y="9" width="16" height="2" rx="1" fill="currentColor" />
<rect x="4" y="13" width="16" height="2" rx="1" fill="currentColor" />
<rect x="4" y="17" width="9" height="2" rx="1" fill="currentColor" />
</symbol>
<symbol id="lock" viewBox="0 0 24 24" fill="none" >
<path d="M18.2222 11H5.77778C4.79594 11 4 11.814 4 12.8182V19.1818C4 20.186 4.79594 21 5.77778 21H18.2222C19.2041 21 20 20.186 20 19.1818V12.8182C20 11.814 19.2041 11 18.2222 11Z" stroke="currentColor" stroke-width="2" stroke-linecap="round" stroke-linejoin="round"/>
<path d="M8 10V6.88889C8 5.85749 8.42143 4.86834 9.17157 4.13903C9.92172 3.40972 10.9391 3 12 3C13.0609 3 14.0783 3.40972 14.8284 4.13903C15.5786 4.86834 16 5.85749 16 6.88889V10" stroke="currentColor" stroke-width="2" stroke-linecap="round" stroke-linejoin="round"/>
</symbol>
<symbol id="login" viewBox="0 0 24 24" fill="none" >
<path d="M15 3H19C19.5304 3 20.0391 3.21071 20.4142 3.58579C20.7893 3.96086 21 4.46957 21 5V19C21 19.5304 20.7893 20.0391 20.4142 20.4142C20.0391 20.7893 19.5304 21 19 21H15" stroke="currentColor" stroke-width="2" stroke-linecap="round" stroke-linejoin="round"/>
<path d="M10 17L15 12L10 7" stroke="currentColor" stroke-width="2" stroke-linecap="round" stroke-linejoin="round"/>
<path d="M15 12H3" stroke="currentColor" stroke-width="2" stroke-linecap="round" stroke-linejoin="round"/>
</symbol>
<symbol id="magnet2" viewBox="0 0 24 24" fill="none" >
<path fill-rule="evenodd" clip-rule="evenodd" d="M9 3C9.55228 3 10 3.44772 10 4V14C10 14.5523 10.4477 15 11 15H13C13.5523 15 14 14.5523 14 14V4C14 3.44772 14.4477 3 15 3L19 3.00006C19.5523 3.00006 20 3.44778 20 4.00006V14C20 17.866 16.866 21 13 21H11C7.13401 21 4 17.866 4 14V4.00006C4 3.44778 4.44772 3.00006 5 3.00006L9 3ZM8 14V7L6 7.00006V14C6 16.7614 8.23858 19 11 19H13C15.7614 19 18 16.7614 18 14V7H16V14C16 15.6569 14.6569 17 13 17H11C9.34315 17 8 15.6569 8 14Z" fill="currentColor" />
</symbol>
<symbol id="maintenance" viewBox="0 0 24 24" fill="none" >
<path d="M14 19.9V16H17C17.5304 16 18.0391 15.7893 18.4142 15.4142C18.7893 15.0391 19 14.5304 19 14V12H5V14C5 15.1 5.9 16 7 16H10V19.9C10 20.4304 10.2107 20.9391 10.5858 21.3142C10.9609 21.6893 11.4696 21.9 12 21.9C12.5304 21.9 13.0391 21.6893 13.4142 21.3142C13.7893 20.9391 14 20.4304 14 19.9Z" stroke="currentColor" stroke-width="2" stroke-linecap="round" stroke-linejoin="round"/>
<path d="M6 12V2H18V12" stroke="currentColor" stroke-width="2" stroke-linecap="round" stroke-linejoin="round"/>
<path d="M14 2V6" stroke="currentColor" stroke-width="2" stroke-linecap="round" stroke-linejoin="round"/>
<path d="M10 2V4" stroke="currentColor" stroke-width="2" stroke-linecap="round" stroke-linejoin="round"/>
</symbol>
<symbol id="map" viewBox="0 0 24 24" fill="none" >
<path fill-rule="evenodd" clip-rule="evenodd" d="M15.8573 14.8093C17.2239 12.8975 18 11.1957 18 10C18 6.68629 15.3137 4 12 4C8.68629 4 6 6.68629 6 10C6 11.1957 6.77608 12.8975 8.14273 14.8093C9.39625 16.5629 10.9153 18.1796 12 19.2522C13.0847 18.1796 14.6037 16.5629 15.8573 14.8093ZM13.275 20.8036C15.5332 18.589 20 13.7362 20 10C20 5.58172 16.4183 2 12 2C7.58172 2 4 5.58172 4 10C4 13.7362 8.46685 18.589 10.725 20.8036C11.4404 21.5052 12.5596 21.5052 13.275 20.8036Z" fill="currentColor" />
<path fill-rule="evenodd" clip-rule="evenodd" d="M12 11C12.5523 11 13 10.5523 13 10C13 9.44772 12.5523 9 12 9C11.4477 9 11 9.44772 11 10C11 10.5523 11.4477 11 12 11ZM12 13C13.6569 13 15 11.6569 15 10C15 8.34315 13.6569 7 12 7C10.3431 7 9 8.34315 9 10C9 11.6569 10.3431 13 12 13Z" fill="currentColor" />
</symbol>
<symbol id="maximize" viewBox="0 0 24 24" fill="none" >
<path d="M21 3L9 15" stroke="currentColor" stroke-width="2" stroke-linecap="round" stroke-linejoin="round"/>
<path d="M12 3H5C3.89543 3 3 3.89543 3 5V19C3 20.1046 3.89543 21 5 21H19C20.1046 21 21 20.1046 21 19V12" stroke="currentColor" stroke-width="2" stroke-linecap="round" stroke-linejoin="round"/>
<path d="M16 3H21V8" stroke="currentColor" stroke-width="2" stroke-linecap="round" stroke-linejoin="round"/>
<path d="M14 15H9V10" stroke="currentColor" stroke-width="2" stroke-linecap="round" stroke-linejoin="round"/>
</symbol>
<symbol id="minus" viewBox="0 0 24 24" fill="none" >
<path fill-rule="evenodd" clip-rule="evenodd" d="M5 12C5 11.4477 5.44772 11 6 11H18C18.5523 11 19 11.4477 19 12C19 12.5523 18.5523 13 18 13H6C5.44772 13 5 12.5523 5 12Z" fill="currentColor" />
</symbol>
<symbol id="more_vertical" viewBox="0 0 24 24" fill="none" >
<circle cx="12" cy="12" r="2" fill="currentColor" />
<circle cx="12" cy="18" r="2" fill="currentColor" />
<path d="M14 6C14 7.10457 13.1046 8 12 8C10.8954 8 10 7.10457 10 6C10 4.89543 10.8954 4 12 4C13.1046 4 14 4.89543 14 6Z" fill="currentColor" />
</symbol>
<symbol id="notice" viewBox="0 0 24 24" fill="none" >
<path d="M13 15V7M13 15L18.504 18.145C18.6561 18.2319 18.8283 18.2773 19.0034 18.2767C19.1785 18.2761 19.3504 18.2295 19.5019 18.1416C19.6533 18.0537 19.7791 17.9276 19.8665 17.7759C19.9539 17.6242 19.9999 17.4521 20 17.277V4.723C19.9999 4.54788 19.9539 4.37585 19.8665 4.22411C19.7791 4.07238 19.6533 3.94626 19.5019 3.85837C19.3504 3.77049 19.1785 3.72392 19.0034 3.72333C18.8283 3.72274 18.6561 3.76814 18.504 3.855L13 7M13 15H10M13 7H7C5.93913 7 4.92172 7.42143 4.17157 8.17157C3.42143 8.92172 3 9.93914 3 11C3 12.0609 3.42143 13.0783 4.17157 13.8284C4.92172 14.5786 5.93913 15 7 15M10 15V19.5C10 19.8978 9.84196 20.2794 9.56066 20.5607C9.27936 20.842 8.89782 21 8.5 21C8.10218 21 7.72064 20.842 7.43934 20.5607C7.15804 20.2794 7 19.8978 7 19.5V15M10 15H7" stroke="currentColor" stroke-width="2" stroke-linecap="round" stroke-linejoin="round"/>
</symbol>
<symbol id="panorama" viewBox="0 0 24 24" fill="none" >
<path d="M21.95 8.15C21.66 7.99 21.34 7.84 21.02 7.69C19.4 4.33 15.98 2 12 2C8.02 2 4.6 4.33 2.99 7.68C2.66 7.83 2.35 7.98 2.06 8.14C1.41 8.5 1 9.17 1 9.91V14.09C1 14.83 1.41 15.5 2.05 15.86C2.34 16.02 2.66 16.17 2.98 16.32C4.6 19.67 8.02 22 12 22C15.98 22 19.4 19.67 21.01 16.32C21.34 16.17 21.65 16.02 21.94 15.86C22.59 15.5 23 14.83 23 14.09V9.91C23 9.17 22.59 8.5 21.95 8.15ZM21 9.91V14.1C18.81 15.31 15.53 16 12 16C8.47 16 5.19 15.3 3 14.09V9.91C5.2 8.69 8.47 8 12 8C15.53 8 18.81 8.7 21 9.91ZM12 4C14.37 4 16.49 5.04 17.95 6.68C16.17 6.25 14.15 6 12 6C9.85 6 7.83 6.25 6.05 6.68C7.51 5.04 9.63 4 12 4ZM12 20C9.63 20 7.51 18.96 6.05 17.32C7.83 17.75 9.85 18 12 18C14.15 18 16.17 17.75 17.95 17.32C16.49 18.96 14.37 20 12 20Z" fill="currentColor" />
</symbol>
<symbol id="people" viewBox="0 0 24 24" fill="none" >
<path fill-rule="evenodd" clip-rule="evenodd" d="M12 12C13.6569 12 15 10.6569 15 9C15 7.34315 13.6569 6 12 6C10.3431 6 9 7.34315 9 9C9 10.6569 10.3431 12 12 12ZM12 14C14.7614 14 17 11.7614 17 9C17 6.23858 14.7614 4 12 4C9.23858 4 7 6.23858 7 9C7 11.7614 9.23858 14 12 14Z" fill="currentColor" />
<path fill-rule="evenodd" clip-rule="evenodd" d="M3.32414 18.263C5.52531 16.2444 8.60562 15 12 15C15.3944 15 18.4746 16.2444 20.6756 18.2615C21.0828 18.6347 21.1104 19.2672 20.7373 19.6744C20.3641 20.0816 19.7316 20.1092 19.3244 19.736C17.5023 18.0663 14.9081 17 12 17C9.09195 17 6.49783 18.0662 4.67587 19.737C4.26883 20.1103 3.63625 20.0829 3.26298 19.6759C2.88971 19.2688 2.91709 18.6362 3.32414 18.263Z" fill="currentColor" />
</symbol>
<symbol id="plan_chart" viewBox="0 0 24 24" fill="none" >
<path d="M14.5 2H6C5.46957 2 4.96086 2.21071 4.58579 2.58579C4.21071 2.96086 4 3.46957 4 4V20C4 20.5304 4.21071 21.0391 4.58579 21.4142C4.96086 21.7893 5.46957 22 6 22H18C18.5304 22 19.0391 21.7893 19.4142 21.4142C19.7893 21.0391 20 20.5304 20 20V7.5L14.5 2Z" stroke="currentColor" stroke-width="2" stroke-linecap="round" stroke-linejoin="round"/>
<path d="M14 2V8H20" stroke="currentColor" stroke-width="2" stroke-linecap="round" stroke-linejoin="round"/>
<path d="M16 13L12.5 16.5L10.5 14.5L8 17" stroke="currentColor" stroke-width="2" stroke-linecap="round" stroke-linejoin="round"/>
</symbol>
<symbol id="plan" viewBox="0 0 24 24" fill="none" >
<path d="M14.5 2H6C5.46957 2 4.96086 2.21071 4.58579 2.58579C4.21071 2.96086 4 3.46957 4 4V20C4 20.5304 4.21071 21.0391 4.58579 21.4142C4.96086 21.7893 5.46957 22 6 22H18C18.5304 22 19.0391 21.7893 19.4142 21.4142C19.7893 21.0391 20 20.5304 20 20V7.5L14.5 2Z" stroke="currentColor" stroke-width="2" stroke-linecap="round" stroke-linejoin="round"/>
<path d="M14 2V8H20" stroke="currentColor" stroke-width="2" stroke-linecap="round" stroke-linejoin="round"/>
<path fill-rule="evenodd" clip-rule="evenodd" d="M12 10.5C11.4477 10.5 11 10.9477 11 11.5V15.5C11 16.0523 11.4477 16.5 12 16.5C12.5523 16.5 13 16.0523 13 15.5V11.5C13 10.9477 12.5523 10.5 12 10.5Z" fill="currentColor" />
<path fill-rule="evenodd" clip-rule="evenodd" d="M11.2929 18.2071C11.6834 18.5976 12.3166 18.5976 12.7071 18.2071L14.7071 16.2071C15.0976 15.8166 15.0976 15.1834 14.7071 14.7929C14.3166 14.4024 13.6834 14.4024 13.2929 14.7929L12 16.0858L10.7071 14.7929C10.3166 14.4024 9.68342 14.4024 9.29289 14.7929C8.90237 15.1834 8.90237 15.8166 9.29289 16.2071L11.2929 18.2071Z" fill="currentColor" />
</symbol>
<symbol id="planning" viewBox="0 0 24 24" fill="none" >
<path d="M15 2H9C8.44772 2 8 2.44772 8 3V5C8 5.55228 8.44772 6 9 6H15C15.5523 6 16 5.55228 16 5V3C16 2.44772 15.5523 2 15 2Z" stroke="currentColor" stroke-width="2" stroke-linecap="round" stroke-linejoin="round"/>
<path d="M16 4H18C18.5304 4 19.0391 4.21071 19.4142 4.58579C19.7893 4.96086 20 5.46957 20 6V20C20 20.5304 19.7893 21.0391 19.4142 21.4142C19.0391 21.7893 18.5304 22 18 22H12.5" stroke="currentColor" stroke-width="2" stroke-linecap="round" stroke-linejoin="round"/>
<path d="M4 13.5V6C4 5.46957 4.21071 4.96086 4.58579 4.58579C4.96086 4.21071 5.46957 4 6 4H8" stroke="currentColor" stroke-width="2" stroke-linecap="round" stroke-linejoin="round"/>
<path d="M12.5046 10.8284L15.3379 13.6618" stroke="currentColor" stroke-width="2" stroke-linecap="round" stroke-linejoin="round"/>
<path d="M13.2132 15.7868L7.89583 21.1042L4 22.1667L5.0625 18.2708L10.3799 12.9534L13.2132 15.7868Z" stroke="currentColor" stroke-width="2" stroke-linecap="round" stroke-linejoin="round"/>
</symbol>
<symbol id="plug" viewBox="0 0 24 24" fill="none" >
<path d="M21 18V14.5V6C21 4.34315 19.6569 3 18 3H14.5H6C4.34315 3 3 4.34315 3 6V14.5V18C3 19.6569 4.34315 21 6 21H14.5H18C19.6569 21 21 19.6569 21 18Z" stroke="currentColor" stroke-width="2" stroke-linecap="round"/>
</symbol>
<symbol id="plus" viewBox="0 0 24 24" fill="none" >
<line x1="12" y1="4" x2="12" y2="20" stroke="currentColor" stroke-width="2" stroke-linecap="round"/>
<line x1="4" y1="12" x2="20" y2="12" stroke="currentColor" stroke-width="2" stroke-linecap="round"/>
</symbol>
<symbol id="project" viewBox="0 0 24 24" fill="none" >
<path d="M14.5 2H6C5.46957 2 4.96086 2.21071 4.58579 2.58579C4.21071 2.96086 4 3.46957 4 4V20C4 20.5304 4.21071 21.0391 4.58579 21.4142C4.96086 21.7893 5.46957 22 6 22H18C18.5304 22 19.0391 21.7893 19.4142 21.4142C19.7893 21.0391 20 20.5304 20 20V7.5L14.5 2Z" stroke="currentColor" stroke-width="2" stroke-linecap="round" stroke-linejoin="round"/>
<path d="M14 2V8H20" stroke="currentColor" stroke-width="2" stroke-linecap="round" stroke-linejoin="round"/>
<path d="M9 17C9 17.5523 8.55228 18 8 18C7.44772 18 7 17.5523 7 17C7 16.4477 7.44772 16 8 16C8.55228 16 9 16.4477 9 17Z" fill="currentColor" />
<path d="M11 17C11 16.4477 11.4477 16 12 16H16C16.5523 16 17 16.4477 17 17V17C17 17.5523 16.5523 18 16 18H12C11.4477 18 11 17.5523 11 17V17Z" fill="currentColor" />
<path d="M9 13C9 13.5523 8.55228 14 8 14C7.44772 14 7 13.5523 7 13C7 12.4477 7.44772 12 8 12C8.55228 12 9 12.4477 9 13Z" fill="currentColor" />
<path d="M11 13C11 12.4477 11.4477 12 12 12H16C16.5523 12 17 12.4477 17 13V13C17 13.5523 16.5523 14 16 14H12C11.4477 14 11 13.5523 11 13V13Z" fill="currentColor" />
</symbol>
<symbol id="projects" viewBox="0 0 24 24" fill="none" >
<path fill-rule="evenodd" clip-rule="evenodd" d="M7 3C7 1.89543 7.89543 1 9 1H15C16.1046 1 17 1.89543 17 3V5C17 6.10457 16.1046 7 15 7H9C7.89543 7 7 6.10457 7 5V3ZM15 3H9V5H15V3Z" fill="currentColor" />
<path fill-rule="evenodd" clip-rule="evenodd" d="M3 6C3 4.34315 4.34315 3 6 3H8.44444V5H6C5.44772 5 5 5.44772 5 6V20C5 20.5523 5.44772 21 6 21H18C18.5523 21 19 20.5523 19 20V6C19 5.44772 18.5523 5 18 5H15.5556V3H18C19.6569 3 21 4.34315 21 6V20C21 21.6569 19.6569 23 18 23H6C4.34315 23 3 21.6569 3 20V6Z" fill="currentColor" />
<path d="M9 16C9 16.5523 8.55228 17 8 17C7.44772 17 7 16.5523 7 16C7 15.4477 7.44772 15 8 15C8.55228 15 9 15.4477 9 16Z" fill="currentColor" />
<path d="M11 16C11 15.4477 11.4477 15 12 15H16C16.5523 15 17 15.4477 17 16V16C17 16.5523 16.5523 17 16 17H12C11.4477 17 11 16.5523 11 16V16Z" fill="currentColor" />
<path d="M9 12C9 12.5523 8.55228 13 8 13C7.44772 13 7 12.5523 7 12C7 11.4477 7.44772 11 8 11C8.55228 11 9 11.4477 9 12Z" fill="currentColor" />
<path d="M11 12C11 11.4477 11.4477 11 12 11H16C16.5523 11 17 11.4477 17 12V12C17 12.5523 16.5523 13 16 13H12C11.4477 13 11 12.5523 11 12V12Z" fill="currentColor" />
</symbol>
<symbol id="protocool" viewBox="0 0 24 24" fill="none" >
<path d="M14.5 2H6C5.46957 2 4.96086 2.21071 4.58579 2.58579C4.21071 2.96086 4 3.46957 4 4V20C4 20.5304 4.21071 21.0391 4.58579 21.4142C4.96086 21.7893 5.46957 22 6 22H18C18.5304 22 19.0391 21.7893 19.4142 21.4142C19.7893 21.0391 20 20.5304 20 20V7.5L14.5 2Z" stroke="currentColor" stroke-width="2" stroke-linecap="round" stroke-linejoin="round"/>
<path d="M14 2V8H20" stroke="currentColor" stroke-width="2" stroke-linecap="round" stroke-linejoin="round"/>
</symbol>
<symbol id="purchase" viewBox="0 0 24 24" fill="none" >
<path fill-rule="evenodd" clip-rule="evenodd" d="M12 9.5C11.4477 9.5 11 9.94772 11 10.5V14.5C11 15.0523 11.4477 15.5 12 15.5C12.5523 15.5 13 15.0523 13 14.5V10.5C13 9.94772 12.5523 9.5 12 9.5Z" fill="currentColor" />
<path fill-rule="evenodd" clip-rule="evenodd" d="M11.2929 17.2071C11.6834 17.5976 12.3166 17.5976 12.7071 17.2071L14.7071 15.2071C15.0976 14.8166 15.0976 14.1834 14.7071 13.7929C14.3166 13.4024 13.6834 13.4024 13.2929 13.7929L12 15.0858L10.7071 13.7929C10.3166 13.4024 9.68342 13.4024 9.29289 13.7929C8.90237 14.1834 8.90237 14.8166 9.29289 15.2071L11.2929 17.2071Z" fill="currentColor" />
<path d="M21 6L19.05 3.4C18.8611 3.14819 18.5648 3 18.25 3H5.75C5.43524 3 5.13885 3.14819 4.95 3.4L3 6M21 6V20C21 20.5523 20.5523 21 20 21H4C3.44772 21 3 20.5523 3 20V6M21 6H3" stroke="currentColor" stroke-width="2" stroke-linecap="round" stroke-linejoin="round"/>
</symbol>
<symbol id="question" viewBox="0 0 24 24" fill="none" >
<path fill-rule="evenodd" clip-rule="evenodd" d="M12 3.81818C7.48131 3.81818 3.81818 7.48131 3.81818 12C3.81818 16.5187 7.48131 20.1818 12 20.1818C16.5187 20.1818 20.1818 16.5187 20.1818 12C20.1818 7.48131 16.5187 3.81818 12 3.81818ZM2 12C2 6.47715 6.47715 2 12 2C17.5228 2 22 6.47715 22 12C22 17.5228 17.5228 22 12 22C6.47715 22 2 17.5228 2 12Z" fill="currentColor" />
<path fill-rule="evenodd" clip-rule="evenodd" d="M11.027 13.0208V13.0303C11.027 13.3167 11.1854 13.5537 11.3729 13.7084C11.5614 13.864 11.8134 13.9667 12.0705 13.9667C12.5926 13.9667 12.9599 13.5718 13.0109 13.0741C13.0588 12.6434 13.3258 12.358 13.8519 11.9132C14.2262 11.5949 14.531 11.269 14.7388 10.878C14.9487 10.4833 15.05 10.0416 15.05 9.50575C15.05 8.72618 14.7801 8.0222 14.2845 7.51158C13.7875 6.99959 13.081 6.70001 12.2438 6.70001C10.8416 6.70001 9.8976 7.58755 9.53146 8.55516L9.52784 8.56528L9.52457 8.57493C9.49472 8.66305 9.45001 8.79499 9.45001 8.95504C9.45001 9.44278 9.87358 9.8547 10.358 9.8547C10.5668 9.8547 10.756 9.79185 10.9142 9.66987C11.0686 9.55073 11.1783 9.3871 11.2547 9.2064L11.2563 9.2024C11.4429 8.74228 11.7683 8.48405 12.2438 8.48405C12.563 8.48405 12.7865 8.58371 12.9326 8.74131C13.0813 8.90186 13.1845 9.16037 13.1845 9.54247C13.1845 9.80569 13.1417 9.99927 13.0445 10.1815C12.9439 10.3703 12.7735 10.5684 12.4817 10.8209C11.6679 11.5278 11.0566 12.0872 11.027 13.0208Z" fill="currentColor" />
<path fill-rule="evenodd" clip-rule="evenodd" d="M10.8611 15.8889C10.8611 15.2863 11.3696 14.7778 11.9723 14.7778C12.5749 14.7778 13.0834 15.2863 13.0834 15.8889C13.0834 16.4915 12.5749 17 11.9723 17C11.3696 17 10.8611 16.4915 10.8611 15.8889Z" fill="currentColor" />
</symbol>
<symbol id="remont" viewBox="0 0 24 24" fill="none" >
<path d="M2 22V17L7 12L12 17L7 22H2Z" stroke="currentColor" stroke-width="2" stroke-linecap="round" stroke-linejoin="round"/>
<path d="M9.5 14.5L16 8" stroke="currentColor" stroke-width="2" stroke-linecap="round" stroke-linejoin="round"/>
<path d="M17 2L22 7L21.5 7.5C21.1721 7.82896 20.7824 8.08997 20.3534 8.26807C19.9244 8.44616 19.4645 8.53783 19 8.53783C18.5355 8.53783 18.0756 8.44616 17.6466 8.26807C17.2176 8.08997 16.8279 7.82896 16.5 7.5C16.5 7.5 16.5 7.5 16.5 7.5C16.171 7.17207 15.91 6.78243 15.7319 6.35343C15.5538 5.92443 15.4622 5.4645 15.4622 5C15.4622 4.5355 15.5538 4.07557 15.7319 3.64657C15.91 3.21757 16.171 2.82793 16.5 2.5L17 2Z" stroke="currentColor" stroke-width="2" stroke-linecap="round" stroke-linejoin="round"/>
</symbol>
<symbol id="report" viewBox="0 0 24 24" fill="none" >
<path d="M16.366 10.2745C16.7322 10.6407 16.7322 11.2343 16.366 11.6004L11.4393 16.527C11.0733 16.8932 10.4797 16.8932 10.1134 16.527L7.66515 14.0787C7.29912 13.7127 7.29912 13.119 7.66515 12.7528C8.03136 12.3868 8.6248 12.3868 8.99101 12.7528L10.7765 14.5383L15.0401 10.2747C15.4063 9.90847 15.9997 9.90847 16.366 10.2745Z" fill="currentColor" />
<path fill-rule="evenodd" clip-rule="evenodd" d="M7 3C7 1.89543 7.89543 1 9 1H15C16.1046 1 17 1.89543 17 3V5C17 6.10457 16.1046 7 15 7H9C7.89543 7 7 6.10457 7 5V3ZM15 3H9V5H15V3Z" fill="currentColor" />
<path fill-rule="evenodd" clip-rule="evenodd" d="M3 6C3 4.34315 4.34315 3 6 3H8.44444V5H6C5.44772 5 5 5.44772 5 6V20C5 20.5523 5.44772 21 6 21H18C18.5523 21 19 20.5523 19 20V6C19 5.44772 18.5523 5 18 5H15.5556V3H18C19.6569 3 21 4.34315 21 6V20C21 21.6569 19.6569 23 18 23H6C4.34315 23 3 21.6569 3 20V6Z" fill="currentColor" />
</symbol>
<symbol id="reserved" viewBox="0 0 24 24" fill="none" >
<path d="M5 5L3 17H7M5 5H19L21 17H7M5 5L7 17M10 11H12.75H16" stroke="currentColor" stroke-width="2" stroke-linecap="round" stroke-linejoin="round"/>
</symbol>
<symbol id="road" viewBox="0 0 24 24" fill="none" >
<path d="M4 4V20M20 4V20M12 4V6M12 11V13M12 18V20" stroke="currentColor" stroke-width="2" stroke-linecap="round" stroke-linejoin="round"/>
</symbol>
<symbol id="round_all" viewBox="0 0 24 24" fill="none" >
<path d="M21 14V15C21 18.3137 18.3137 21 15 21H14M21 10V9C21 5.68629 18.3137 3 15 3H14M10 3H9C5.68629 3 3 5.68629 3 9V10M10 21H9C5.68629 21 3 18.3137 3 15V14" stroke="currentColor" stroke-width="2" stroke-linecap="round"/>
</symbol>
<symbol id="route_3" viewBox="0 0 24 24" fill="none" >
<path fill-rule="evenodd" clip-rule="evenodd" d="M6 20C6 20.5523 6.44772 21 7 21H10.7059C11.8105 21 12.7059 20.1046 12.7059 19L12.7059 10H17C18.1046 10 19 9.10457 19 8V5C19 4.44772 18.5523 4 18 4C17.4477 4 17 4.44772 17 5V8H12.7059C11.6013 8 10.7059 8.89543 10.7059 10V19H7C6.44772 19 6 19.4477 6 20Z" fill="currentColor" />
<path fill-rule="evenodd" clip-rule="evenodd" d="M5 21C5.55228 21 6 20.5523 6 20C6 19.4477 5.55228 19 5 19C4.44772 19 4 19.4477 4 20C4 20.5523 4.44772 21 5 21ZM5 23C6.65685 23 8 21.6569 8 20C8 18.3431 6.65685 17 5 17C3.34315 17 2 18.3431 2 20C2 21.6569 3.34315 23 5 23Z" fill="currentColor" />
<path fill-rule="evenodd" clip-rule="evenodd" d="M18 4C18.5523 4 19 3.55228 19 3C19 2.44772 18.5523 2 18 2C17.4477 2 17 2.44772 17 3C17 3.55228 17.4477 4 18 4ZM18 6C19.6569 6 21 4.65685 21 3C21 1.34315 19.6569 0 18 0C16.3431 0 15 1.34315 15 3C15 4.65685 16.3431 6 18 6Z" fill="currentColor" />
</symbol>
<symbol id="search" viewBox="0 0 24 24" fill="none" >
<path d="M11 19C15.4183 19 19 15.4183 19 11C19 6.58172 15.4183 3 11 3C6.58172 3 3 6.58172 3 11C3 15.4183 6.58172 19 11 19Z" stroke="currentColor" stroke-width="2" stroke-linecap="round" stroke-linejoin="round"/>
<path d="M21 21L16.65 16.65" stroke="currentColor" stroke-width="2" stroke-linecap="round" stroke-linejoin="round"/>
</symbol>
<symbol id="setting_baby" viewBox="0 0 24 24" fill="none" >
<path fill-rule="evenodd" clip-rule="evenodd" d="M11.9927 2.96653C11.8742 2.96609 11.8001 3.01291 11.769 3.04968C10.0063 5.13179 7.47246 6.55284 4.5995 6.84488C4.56048 6.84884 4.52895 6.86675 4.51111 6.88515C4.50308 6.89343 4.50043 6.89911 4.49997 6.90018C4.49989 6.90036 4.49997 6.89924 4.49997 6.90018L4.5 12.8341C4.5 17.2059 7.65596 20.9471 11.9949 21.9739C16.3468 20.9005 19.5 17.2012 19.5 12.782V6.90047C19.5 6.90031 19.5 6.90054 19.5 6.90047C19.4995 6.89927 19.4968 6.89347 19.4892 6.88557C19.4717 6.86758 19.4409 6.85012 19.4027 6.84633C16.5284 6.56091 13.9859 5.1646 12.2177 3.0522C12.1861 3.01444 12.1114 2.96696 11.9927 2.96653ZM10.2426 1.7574C11.1406 0.696679 12.8616 0.705474 13.7514 1.76846C15.1907 3.48794 17.2572 4.62344 19.6004 4.85611C20.5987 4.95525 21.5 5.77346 21.5 6.90047V12.782C21.5 18.2188 17.6179 22.6569 12.4516 23.9211C12.1586 23.9928 11.8516 23.9945 11.5572 23.9255C6.37876 22.7106 2.5 18.2153 2.5 12.8341V6.90047C2.5 5.77309 3.40139 4.95636 4.39725 4.85513C6.73136 4.61787 8.79855 3.46307 10.2426 1.7574Z" fill="currentColor" />
<path d="M14.5 11.5C14.5 12.526 13.882 13.406 13 13.792V16.008C13 16.2732 12.8946 16.5276 12.7071 16.7151C12.5196 16.9027 12.2652 17.008 12 17.008C11.7348 17.008 11.4804 16.9027 11.2929 16.7151C11.1054 16.5276 11 16.2732 11 16.008V13.792C10.5869 13.6117 10.2303 13.3232 9.96779 12.9568C9.70529 12.5904 9.54672 12.1599 9.50884 11.7108C9.47097 11.2617 9.55521 10.8107 9.75264 10.4056C9.95007 10.0004 10.2534 9.65619 10.6304 9.40928C11.0074 9.16237 11.4442 9.02198 11.8945 9.00296C12.3448 8.98394 12.7919 9.08701 13.1884 9.30124C13.5849 9.51548 13.9161 9.83293 14.147 10.22C14.3779 10.607 14.4999 11.0493 14.5 11.5V11.5Z" fill="currentColor" />
</symbol>
<symbol id="settings" viewBox="0 0 24 24" fill="none" >
<path fill-rule="evenodd" clip-rule="evenodd" d="M10 9C11.1046 9 12 8.10457 12 7C12 5.89543 11.1046 5 10 5C8.89543 5 8 5.89543 8 7C8 8.10457 8.89543 9 10 9ZM10 11C12.2091 11 14 9.20914 14 7C14 4.79086 12.2091 3 10 3C7.79086 3 6 4.79086 6 7C6 9.20914 7.79086 11 10 11Z" fill="currentColor" />
<path d="M3 7C3 6.44772 3.44772 6 4 6H6C6.55228 6 7 6.44772 7 7V7C7 7.55228 6.55228 8 6 8H4C3.44772 8 3 7.55228 3 7V7Z" fill="currentColor" />
<path d="M13 7C13 6.44772 13.4477 6 14 6H20C20.5523 6 21 6.44772 21 7V7C21 7.55228 20.5523 8 20 8H14C13.4477 8 13 7.55228 13 7V7Z" fill="currentColor" />
<path fill-rule="evenodd" clip-rule="evenodd" d="M14 19C12.8954 19 12 18.1046 12 17C12 15.8954 12.8954 15 14 15C15.1046 15 16 15.8954 16 17C16 18.1046 15.1046 19 14 19ZM14 21C11.7909 21 10 19.2091 10 17C10 14.7909 11.7909 13 14 13C16.2091 13 18 14.7909 18 17C18 19.2091 16.2091 21 14 21Z" fill="currentColor" />
<path d="M21 17C21 16.4477 20.5523 16 20 16H18C17.4477 16 17 16.4477 17 17V17C17 17.5523 17.4477 18 18 18H20C20.5523 18 21 17.5523 21 17V17Z" fill="currentColor" />
<path d="M11 17C11 16.4477 10.5523 16 10 16H4C3.44772 16 3 16.4477 3 17V17C3 17.5523 3.44772 18 4 18H10C10.5523 18 11 17.5523 11 17V17Z" fill="currentColor" />
</symbol>
<symbol id="share" viewBox="0 0 24 24" fill="none" >
<path d="M4 11V19C4 19.5304 4.21071 20.0391 4.58579 20.4142C4.96086 20.7893 5.46957 21 6 21H18C18.5304 21 19.0391 20.7893 19.4142 20.4142C19.7893 20.0391 20 19.5304 20 19V11" stroke="currentColor" stroke-width="2" stroke-linecap="round" stroke-linejoin="round"/>
<path fill-rule="evenodd" clip-rule="evenodd" d="M15.7071 6.29289L12.7071 3.29289C12.3166 2.90237 11.6834 2.90237 11.2929 3.29289L8.29289 6.29289C7.90237 6.68342 7.90237 7.31658 8.29289 7.70711C8.68342 8.09763 9.31658 8.09763 9.70711 7.70711L11 6.41421L11 14C11 14.5523 11.4477 15 12 15C12.5523 15 13 14.5523 13 14L13 6.41421L14.2929 7.70711C14.6834 8.09763 15.3166 8.09763 15.7071 7.70711C16.0976 7.31658 16.0976 6.68342 15.7071 6.29289Z" fill="currentColor" />
</symbol>
<symbol id="sort_asc" viewBox="0 0 24 24" fill="none" >
<path d="M14 12H4" stroke="currentColor" stroke-width="2" stroke-linecap="round" stroke-linejoin="round"/>
<path d="M8 6H4" stroke="currentColor" stroke-width="2" stroke-linecap="round" stroke-linejoin="round"/>
<path d="M20 18H4" stroke="currentColor" stroke-width="2" stroke-linecap="round" stroke-linejoin="round"/>
</symbol>
<symbol id="sort_desc" viewBox="0 0 24 24" fill="none" >
<path d="M14 12H4" stroke="currentColor" stroke-width="2" stroke-linecap="round" stroke-linejoin="round"/>
<path d="M20 6L4 6" stroke="currentColor" stroke-width="2" stroke-linecap="round" stroke-linejoin="round"/>
<path d="M8 18H4" stroke="currentColor" stroke-width="2" stroke-linecap="round" stroke-linejoin="round"/>
</symbol>
<symbol id="task" viewBox="0 0 24 24" fill="none" >
<path d="M14.5 2H6C5.46957 2 4.96086 2.21071 4.58579 2.58579C4.21071 2.96086 4 3.46957 4 4V20C4 20.5304 4.21071 21.0391 4.58579 21.4142C4.96086 21.7893 5.46957 22 6 22H18C18.5304 22 19.0391 21.7893 19.4142 21.4142C19.7893 21.0391 20 20.5304 20 20V7.5L14.5 2Z" stroke="currentColor" stroke-width="2" stroke-linecap="round" stroke-linejoin="round"/>
<path d="M14 2V8H20" stroke="currentColor" stroke-width="2" stroke-linecap="round" stroke-linejoin="round"/>
<path d="M9 15L11 17L15 13" stroke="currentColor" stroke-width="2" stroke-linecap="round" stroke-linejoin="round"/>
</symbol>
<symbol id="terms" viewBox="0 0 24 24" fill="none" >
<path fill-rule="evenodd" clip-rule="evenodd" d="M6 3C5.44772 3 5 3.44772 5 4V20C5 20.5523 5.44772 21 6 21H18C18.5523 21 19 20.5523 19 20V6.82843C19 6.56321 18.8946 6.30886 18.7071 6.12132L15.8787 3.29289C15.6911 3.10536 15.4368 3 15.1716 3H6ZM3 4C3 2.34315 4.34315 1 6 1H15.1716C15.9672 1 16.7303 1.31607 17.2929 1.87868L20.1213 4.70711C20.6839 5.26972 21 6.03278 21 6.82843V20C21 21.6569 19.6569 23 18 23H6C4.34315 23 3 21.6569 3 20V4Z" fill="currentColor" />
<path fill-rule="evenodd" clip-rule="evenodd" d="M6 12C6 11.4477 6.44772 11 7 11H16C16.5523 11 17 11.4477 17 12C17 12.5523 16.5523 13 16 13H7C6.44772 13 6 12.5523 6 12Z" fill="currentColor" />
<path fill-rule="evenodd" clip-rule="evenodd" d="M6 18C6 17.4477 6.44772 17 7 17H12C12.5523 17 13 17.4477 13 18C13 18.5523 12.5523 19 12 19H7C6.44772 19 6 18.5523 6 18Z" fill="currentColor" />
<path fill-rule="evenodd" clip-rule="evenodd" d="M6 15C6 14.4477 6.44772 14 7 14H16C16.5523 14 17 14.4477 17 15C17 15.5523 16.5523 16 16 16H7C6.44772 16 6 15.5523 6 15Z" fill="currentColor" />
<path fill-rule="evenodd" clip-rule="evenodd" d="M6 6C6 4.89543 6.89543 4 8 4H10C11.1046 4 12 4.89543 12 6V8C12 9.10457 11.1046 10 10 10H8C6.89543 10 6 9.10457 6 8V6ZM10 6H8V8H10V6Z" fill="currentColor" />
</symbol>
<symbol id="text_version" viewBox="0 0 24 24" fill="none" >
<path fill-rule="evenodd" clip-rule="evenodd" d="M4 4C3.44772 4 3 4.44772 3 5V19C3 19.5523 3.44772 20 4 20H20C20.5523 20 21 19.5523 21 19V5C21 4.44772 20.5523 4 20 4H4ZM23 5C23 3.34315 21.6569 2 20 2H4C2.34315 2 1 3.34315 1 5V19C1 20.6569 2.34315 22 4 22H20C21.6569 22 23 20.6569 23 19V5Z" fill="currentColor" />
<path fill-rule="evenodd" clip-rule="evenodd" d="M5 8C5 7.44772 5.44772 7 6 7H11C11.5523 7 12 7.44772 12 8C12 8.55228 11.5523 9 11 9H6C5.44772 9 5 8.55228 5 8Z" fill="currentColor" />
<path fill-rule="evenodd" clip-rule="evenodd" d="M5 12C5 11.4477 5.44772 11 6 11H11C11.5523 11 12 11.4477 12 12C12 12.5523 11.5523 13 11 13H6C5.44772 13 5 12.5523 5 12Z" fill="currentColor" />
<path fill-rule="evenodd" clip-rule="evenodd" d="M5 16C5 15.4477 5.44772 15 6 15H18C18.5523 15 19 15.4477 19 16C19 16.5523 18.5523 17 18 17H6C5.44772 17 5 16.5523 5 16Z" fill="currentColor" />
<path fill-rule="evenodd" clip-rule="evenodd" d="M13 9C13 7.89543 13.8954 7 15 7H17C18.1046 7 19 7.89543 19 9V11C19 12.1046 18.1046 13 17 13H15C13.8954 13 13 12.1046 13 11V9ZM17 9H15V11H17V9Z" fill="currentColor" />
</symbol>
<symbol id="unlock" viewBox="0 0 24 24" fill="none" >
<path d="M18.2222 11H5.77778C4.79594 11 4 11.814 4 12.8182V19.1818C4 20.186 4.79594 21 5.77778 21H18.2222C19.2041 21 20 20.186 20 19.1818V12.8182C20 11.814 19.2041 11 18.2222 11Z" stroke="currentColor" stroke-width="2" stroke-linecap="round" stroke-linejoin="round"/>
<path d="M8 10V6.88889C8 5.85749 8.42143 4.86834 9.17157 4.13903C9.92172 3.40972 10.9391 3 12 3C13.0609 3 14.0783 3.40972 14.8284 4.13903C15.2299 4.52937 15.5373 4.99415 15.7362 5.5" stroke="currentColor" stroke-width="2" stroke-linecap="round" stroke-linejoin="round"/>
</symbol>
<symbol id="user" viewBox="0 0 24 24" fill="none" >
<path d="M12 2C6.48 2 2 6.48 2 12C2 17.52 6.48 22 12 22C17.52 22 22 17.52 22 12C22 6.48 17.52 2 12 2ZM7.07 18.28C7.5 17.38 10.12 16.5 12 16.5C13.88 16.5 16.51 17.38 16.93 18.28C15.57 19.36 13.86 20 12 20C10.14 20 8.43 19.36 7.07 18.28ZM18.36 16.83C16.93 15.09 13.46 14.5 12 14.5C10.54 14.5 7.07 15.09 5.64 16.83C4.62 15.49 4 13.82 4 12C4 7.59 7.59 4 12 4C16.41 4 20 7.59 20 12C20 13.82 19.38 15.49 18.36 16.83Z" fill="currentColor" />
<path fill-rule="evenodd" clip-rule="evenodd" d="M12 8C10.8954 8 10 8.89543 10 10C10 11.1046 10.8954 12 12 12C13.1046 12 14 11.1046 14 10C14 8.89543 13.1046 8 12 8ZM8 10C8 7.79086 9.79086 6 12 6C14.2091 6 16 7.79086 16 10C16 12.2091 14.2091 14 12 14C9.79086 14 8 12.2091 8 10Z" fill="currentColor" />
</symbol>
<symbol id="work_program" viewBox="0 0 24 24" fill="none" >
<path d="M6 16H5C3.34315 16 2 17.3431 2 19V19C2 20.6569 3.34315 22 5 22L21 22L21 5L6.5 5" stroke="currentColor" stroke-width="2" stroke-linecap="round" stroke-linejoin="round"/>
<path d="M2 19.5L2 5C2 3.34315 3.34315 2 5 2H6L6 16" stroke="currentColor" stroke-width="2" stroke-linecap="round" stroke-linejoin="round"/>
<path d="M10.5 13L12.5 15L16.5 11" stroke="currentColor" stroke-width="2" stroke-linecap="round" stroke-linejoin="round"/>
</symbol>
<symbol id="arrow-left" viewBox="0 0 24 24" fill="none" >
<path fill-rule="evenodd" clip-rule="evenodd" d="M19.5 12C19.5 12.5523 19.0523 13 18.5 13H7.91421L12.5711 17.6569C12.9616 18.0474 12.9616 18.6806 12.5711 19.0711C12.1805 19.4616 11.5474 19.4616 11.1569 19.0711L4.79289 12.7071C4.40237 12.3166 4.40237 11.6834 4.79289 11.2929L11.1569 4.92894C11.5474 4.53842 12.1805 4.53842 12.5711 4.92894C12.9616 5.31947 12.9616 5.95263 12.5711 6.34315L7.91421 11H18.5C19.0523 11 19.5 11.4477 19.5 12Z" fill="currentColor" />
</symbol>
<symbol id="arrow-right" viewBox="0 0 24 24" fill="none" >
<path fill-rule="evenodd" clip-rule="evenodd" d="M4.5 12C4.5 12.5523 4.94772 13 5.5 13H16.0858L11.4289 17.6569C11.0384 18.0474 11.0384 18.6806 11.4289 19.0711C11.8195 19.4616 12.4526 19.4616 12.8431 19.0711L19.2071 12.7071C19.5976 12.3166 19.5976 11.6834 19.2071 11.2929L12.8431 4.92894C12.4526 4.53842 11.8195 4.53842 11.4289 4.92894C11.0384 5.31947 11.0384 5.95263 11.4289 6.34315L16.0858 11H5.5C4.94772 11 4.5 11.4477 4.5 12Z" fill="currentColor" />
</symbol>
<symbol id="bell" viewBox="0 0 24 24" fill="none" >
<path d="M18 8C18 6.4087 17.3679 4.88258 16.2426 3.75736C15.1174 2.63214 13.5913 2 12 2C10.4087 2 8.88258 2.63214 7.75736 3.75736C6.63214 4.88258 6 6.4087 6 8C6 15 3 17 3 17H21C21 17 18 15 18 8Z" stroke="currentColor" stroke-width="2" stroke-linecap="round" stroke-linejoin="round"/>
<path d="M13.73 21C13.5542 21.3031 13.3019 21.5547 12.9982 21.7295C12.6946 21.9044 12.3504 21.9965 12 21.9965C11.6496 21.9965 11.3054 21.9044 11.0018 21.7295C10.6982 21.5547 10.4458 21.3031 10.27 21" stroke="currentColor" stroke-width="2" stroke-linecap="round" stroke-linejoin="round"/>
</symbol>
<symbol id="cut" viewBox="0 0 24 24" fill="none" >
<path d="M17 9C15.3431 9 14 7.65685 14 6C14 4.34315 15.3431 3 17 3C18.6569 3 20 4.34315 20 6C20 7.65685 18.6569 9 17 9Z" stroke="currentColor" stroke-width="2" stroke-linecap="round" stroke-linejoin="round"/>
<path d="M17 21C15.3431 21 14 19.6569 14 18C14 16.3431 15.3431 15 17 15C18.6569 15 20 16.3431 20 18C20 19.6569 18.6569 21 17 21Z" stroke="currentColor" stroke-width="2" stroke-linecap="round" stroke-linejoin="round"/>
<path d="M2.99988 4L14.8799 15.88" stroke="currentColor" stroke-width="2" stroke-linecap="round" stroke-linejoin="round"/>
<path d="M8.53027 14.48L3.00027 20" stroke="currentColor" stroke-width="2" stroke-linecap="round" stroke-linejoin="round"/>
<path d="M14.8799 8.12012L10.9999 12.0001" stroke="currentColor" stroke-width="2" stroke-linecap="round" stroke-linejoin="round"/>
</symbol>
<symbol id="database" viewBox="0 0 24 24" fill="none" >
<path fill-rule="evenodd" clip-rule="evenodd" d="M5 12V8.62081C6.65544 9.50509 9.18547 10 12 10C14.8145 10 17.3446 9.50509 19 8.62081V12C19 12.837 15.8987 14 12 14C8.10128 14 5 12.837 5 12ZM3 12V6C3 3.52331 7.06216 2 12 2C16.9378 2 21 3.52331 21 6V12V18C21 20.4767 16.9378 22 12 22C7.06216 22 3 20.4767 3 18V12ZM19 14.6208V18C19 18.837 15.8987 20 12 20C8.10128 20 5 18.837 5 18V14.6208C6.65544 15.5051 9.18547 16 12 16C14.8145 16 17.3446 15.5051 19 14.6208ZM12 8C15.8987 8 19 6.83702 19 6C19 5.16298 15.8987 4 12 4C8.10128 4 5 5.16298 5 6C5 6.83702 8.10128 8 12 8Z" fill="currentColor" />
</symbol>
<symbol id="dev" viewBox="0 0 24 24" fill="none" >
<path d="M18 16L22 12L18 8" stroke="currentColor" stroke-width="2" stroke-linecap="round" stroke-linejoin="round"/>
<path d="M6 8L2 12L6 16" stroke="currentColor" stroke-width="2" stroke-linecap="round" stroke-linejoin="round"/>
<path d="M14.5 4L9.5 20" stroke="currentColor" stroke-width="2" stroke-linecap="round" stroke-linejoin="round"/>
</symbol>
<symbol id="dots-cloud" viewBox="0 0 24 24" fill="none" >
<path d="M6 13C5.45 13 5 13.45 5 14C5 14.55 5.45 15 6 15C6.55 15 7 14.55 7 14C7 13.45 6.55 13 6 13ZM6 17C5.45 17 5 17.45 5 18C5 18.55 5.45 19 6 19C6.55 19 7 18.55 7 18C7 17.45 6.55 17 6 17ZM6 9C5.45 9 5 9.45 5 10C5 10.55 5.45 11 6 11C6.55 11 7 10.55 7 10C7 9.45 6.55 9 6 9ZM3 9.5C2.72 9.5 2.5 9.72 2.5 10C2.5 10.28 2.72 10.5 3 10.5C3.28 10.5 3.5 10.28 3.5 10C3.5 9.72 3.28 9.5 3 9.5ZM6 5C5.45 5 5 5.45 5 6C5 6.55 5.45 7 6 7C6.55 7 7 6.55 7 6C7 5.45 6.55 5 6 5ZM21 10.5C21.28 10.5 21.5 10.28 21.5 10C21.5 9.72 21.28 9.5 21 9.5C20.72 9.5 20.5 9.72 20.5 10C20.5 10.28 20.72 10.5 21 10.5ZM14 7C14.55 7 15 6.55 15 6C15 5.45 14.55 5 14 5C13.45 5 13 5.45 13 6C13 6.55 13.45 7 14 7ZM14 3.5C14.28 3.5 14.5 3.28 14.5 3C14.5 2.72 14.28 2.5 14 2.5C13.72 2.5 13.5 2.72 13.5 3C13.5 3.28 13.72 3.5 14 3.5ZM3 13.5C2.72 13.5 2.5 13.72 2.5 14C2.5 14.28 2.72 14.5 3 14.5C3.28 14.5 3.5 14.28 3.5 14C3.5 13.72 3.28 13.5 3 13.5ZM10 20.5C9.72 20.5 9.5 20.72 9.5 21C9.5 21.28 9.72 21.5 10 21.5C10.28 21.5 10.5 21.28 10.5 21C10.5 20.72 10.28 20.5 10 20.5ZM10 3.5C10.28 3.5 10.5 3.28 10.5 3C10.5 2.72 10.28 2.5 10 2.5C9.72 2.5 9.5 2.72 9.5 3C9.5 3.28 9.72 3.5 10 3.5ZM10 7C10.55 7 11 6.55 11 6C11 5.45 10.55 5 10 5C9.45 5 9 5.45 9 6C9 6.55 9.45 7 10 7ZM10 12.5C9.17 12.5 8.5 13.17 8.5 14C8.5 14.83 9.17 15.5 10 15.5C10.83 15.5 11.5 14.83 11.5 14C11.5 13.17 10.83 12.5 10 12.5ZM18 13C17.45 13 17 13.45 17 14C17 14.55 17.45 15 18 15C18.55 15 19 14.55 19 14C19 13.45 18.55 13 18 13ZM18 17C17.45 17 17 17.45 17 18C17 18.55 17.45 19 18 19C18.55 19 19 18.55 19 18C19 17.45 18.55 17 18 17ZM18 9C17.45 9 17 9.45 17 10C17 10.55 17.45 11 18 11C18.55 11 19 10.55 19 10C19 9.45 18.55 9 18 9ZM18 5C17.45 5 17 5.45 17 6C17 6.55 17.45 7 18 7C18.55 7 19 6.55 19 6C19 5.45 18.55 5 18 5ZM21 13.5C20.72 13.5 20.5 13.72 20.5 14C20.5 14.28 20.72 14.5 21 14.5C21.28 14.5 21.5 14.28 21.5 14C21.5 13.72 21.28 13.5 21 13.5ZM14 17C13.45 17 13 17.45 13 18C13 18.55 13.45 19 14 19C14.55 19 15 18.55 15 18C15 17.45 14.55 17 14 17ZM14 20.5C13.72 20.5 13.5 20.72 13.5 21C13.5 21.28 13.72 21.5 14 21.5C14.28 21.5 14.5 21.28 14.5 21C14.5 20.72 14.28 20.5 14 20.5ZM10 8.5C9.17 8.5 8.5 9.17 8.5 10C8.5 10.83 9.17 11.5 10 11.5C10.83 11.5 11.5 10.83 11.5 10C11.5 9.17 10.83 8.5 10 8.5ZM10 17C9.45 17 9 17.45 9 18C9 18.55 9.45 19 10 19C10.55 19 11 18.55 11 18C11 17.45 10.55 17 10 17ZM14 12.5C13.17 12.5 12.5 13.17 12.5 14C12.5 14.83 13.17 15.5 14 15.5C14.83 15.5 15.5 14.83 15.5 14C15.5 13.17 14.83 12.5 14 12.5ZM14 8.5C13.17 8.5 12.5 9.17 12.5 10C12.5 10.83 13.17 11.5 14 11.5C14.83 11.5 15.5 10.83 15.5 10C15.5 9.17 14.83 8.5 14 8.5Z" fill="currentColor" />
</symbol>
<symbol id="file-text" viewBox="0 0 24 24" fill="none" >
<path d="M14.5 2H6C5.46957 2 4.96086 2.21071 4.58579 2.58579C4.21071 2.96086 4 3.46957 4 4V20C4 20.5304 4.21071 21.0391 4.58579 21.4142C4.96086 21.7893 5.46957 22 6 22H18C18.5304 22 19.0391 21.7893 19.4142 21.4142C19.7893 21.0391 20 20.5304 20 20V7.5L14.5 2Z" stroke="currentColor" stroke-width="2" stroke-linecap="round" stroke-linejoin="round"/>
<path d="M14 2V8H20" stroke="currentColor" stroke-width="2" stroke-linecap="round" stroke-linejoin="round"/>
<path d="M16 13H8" stroke="currentColor" stroke-width="2" stroke-linecap="round" stroke-linejoin="round"/>
<path d="M16 17H8" stroke="currentColor" stroke-width="2" stroke-linecap="round" stroke-linejoin="round"/>
<path d="M10 9H8" stroke="currentColor" stroke-width="2" stroke-linecap="round" stroke-linejoin="round"/>
</symbol>
<symbol id="filter" viewBox="0 0 24 24" fill="none" >
<path d="M21 3H3L10 11V19L14 21V11L21 3Z" stroke="currentColor" stroke-width="2" stroke-linejoin="round"/>
</symbol>
<symbol id="flag" viewBox="0 0 24 24" fill="none" >
<g clip-path="url(#clip0_1321_58743)">
<path d="M7 22V2L17 7L7 12" stroke="currentColor" stroke-width="2" stroke-linecap="round" stroke-linejoin="round"/>
</g>
<defs>
<clipPath id="clip0_1321_58743">
<rect width="24" height="24" fill="currentColor" />
</clipPath>
</defs>
</symbol>
<symbol id="folder" viewBox="0 0 24 24" fill="none" >
<path d="M22 19C22 19.5304 21.7893 20.0391 21.4142 20.4142C21.0391 20.7893 20.5304 21 20 21H4C3.46957 21 2.96086 20.7893 2.58579 20.4142C2.21071 20.0391 2 19.5304 2 19V5C2 4.46957 2.21071 3.96086 2.58579 3.58579C2.96086 3.21071 3.46957 3 4 3H9L11 6H20C20.5304 6 21.0391 6.21071 21.4142 6.58579C21.7893 6.96086 22 7.46957 22 8V19Z" stroke="currentColor" stroke-width="2" stroke-linecap="round" stroke-linejoin="round"/>
</symbol>
<symbol id="menu" viewBox="0 0 24 24" fill="none" >
<path d="M4 12H20" stroke="currentColor" stroke-width="2" stroke-linecap="round" stroke-linejoin="round"/>
<path d="M4 6H20" stroke="currentColor" stroke-width="2" stroke-linecap="round" stroke-linejoin="round"/>
<path d="M4 18H20" stroke="currentColor" stroke-width="2" stroke-linecap="round" stroke-linejoin="round"/>
</symbol>
<symbol id="network" viewBox="0 0 24 24" fill="none" >
<path d="M15 2H9V8H15V2Z" stroke="currentColor" stroke-width="2" stroke-linecap="round" stroke-linejoin="round"/>
<path d="M22 16H16V22H22V16Z" stroke="currentColor" stroke-width="2" stroke-linecap="round" stroke-linejoin="round"/>
<path d="M8 16H2V22H8V16Z" stroke="currentColor" stroke-width="2" stroke-linecap="round" stroke-linejoin="round"/>
<path d="M12 8V12M12 12H5V16M12 12H19V16" stroke="currentColor" stroke-width="2" stroke-linecap="round" stroke-linejoin="round"/>
</symbol>
<symbol id="printer" viewBox="0 0 24 24" fill="none" >
<path d="M6 9V2H18V9" stroke="currentColor" stroke-width="2" stroke-linecap="round" stroke-linejoin="round"/>
<path d="M6 18H4C3.46957 18 2.96086 17.7893 2.58579 17.4142C2.21071 17.0391 2 16.5304 2 16V11C2 10.4696 2.21071 9.96086 2.58579 9.58579C2.96086 9.21071 3.46957 9 4 9H20C20.5304 9 21.0391 9.21071 21.4142 9.58579C21.7893 9.96086 22 10.4696 22 11V16C22 16.5304 21.7893 17.0391 21.4142 17.4142C21.0391 17.7893 20.5304 18 20 18H18" stroke="currentColor" stroke-width="2" stroke-linecap="round" stroke-linejoin="round"/>
<path d="M18 14H6V22H18V14Z" stroke="currentColor" stroke-width="2" stroke-linecap="round" stroke-linejoin="round"/>
</symbol>
<symbol id="redo" viewBox="0 0 24 24" fill="none" >
<path fill-rule="evenodd" clip-rule="evenodd" d="M22 7L22 13C22 13.5523 21.5523 14 21 14L15 14C14.4477 14 14 13.5523 14 13C14 12.4477 14.4477 12 15 12L18.4021 12C14.399 8.77606 11.0167 8.54028 8.63964 9.54597C5.8128 10.7419 4 13.8406 4 17C4 17.5523 3.55228 18 3 18C2.44772 18 2 17.5523 2 17C2 13.1594 4.1872 9.25807 7.86036 7.70404C11.2015 6.29049 15.4612 6.93071 20 10.7263L20 7C20 6.44771 20.4477 6 21 6C21.5523 6 22 6.44771 22 7Z" fill="currentColor" />
</symbol>
<symbol id="trash" viewBox="0 0 24 24" fill="none" >
<path d="M3 6H5H21" stroke="currentColor" stroke-width="2" stroke-linecap="round" stroke-linejoin="round"/>
<path d="M8 6V4C8 3.46957 8.21071 2.96086 8.58579 2.58579C8.96086 2.21071 9.46957 2 10 2H14C14.5304 2 15.0391 2.21071 15.4142 2.58579C15.7893 2.96086 16 3.46957 16 4V6M19 6V20C19 20.5304 18.7893 21.0391 18.4142 21.4142C18.0391 21.7893 17.5304 22 17 22H7C6.46957 22 5.96086 21.7893 5.58579 21.4142C5.21071 21.0391 5 20.5304 5 20V6H19Z" stroke="currentColor" stroke-width="2" stroke-linecap="round" stroke-linejoin="round"/>
<path d="M10 11V17" stroke="currentColor" stroke-width="2" stroke-linecap="round" stroke-linejoin="round"/>
<path d="M14 11V17" stroke="currentColor" stroke-width="2" stroke-linecap="round" stroke-linejoin="round"/>
</symbol>
<symbol id="undo" viewBox="0 0 24 24" fill="none" >
<path fill-rule="evenodd" clip-rule="evenodd" d="M2 7L2 13C2 13.5523 2.44772 14 3 14L9 14C9.55228 14 10 13.5523 10 13C10 12.4477 9.55229 12 9 12L5.59795 12C9.60101 8.77606 12.9833 8.54028 15.3604 9.54597C18.1872 10.7419 20 13.8406 20 17C20 17.5523 20.4477 18 21 18C21.5523 18 22 17.5523 22 17C22 13.1594 19.8128 9.25807 16.1396 7.70404C12.7985 6.29049 8.53881 6.93071 4 10.7263L4 7C4 6.44771 3.55229 6 3 6C2.44772 6 2 6.44771 2 7Z" fill="currentColor" />
</symbol>



<symbol id="close" viewBox="0 0 24 24" fill="none" >
<circle cx="12" cy="12" r="11" fill="currentColor" />
<path fill-rule="evenodd" clip-rule="evenodd" d="M12.5893 15.9226C12.2638 16.248 11.7362 16.248 11.4107 15.9226L6.41074 10.9226C6.0853 10.5971 6.0853 10.0695 6.41074 9.74407C6.73618 9.41863 7.26381 9.41863 7.58925 9.74407L12 14.1548L16.4107 9.74407C16.7362 9.41863 17.2638 9.41863 17.5893 9.74407C17.9147 10.0695 17.9147 10.5971 17.5893 10.9226L12.5893 15.9226Z" fill="white"/>
</symbol>
<symbol id="dot" viewBox="0 0 24 24" fill="none" >
<circle cx="12" cy="12" r="3.66667" fill="currentColor" />
</symbol>
<symbol id="open" viewBox="0 0 24 24" fill="none" >
<circle cx="12" cy="12" r="11" fill="currentColor" />
<path fill-rule="evenodd" clip-rule="evenodd" d="M11.4107 8.07742C11.7362 7.75198 12.2638 7.75198 12.5893 8.07742L17.5893 13.0774C17.9147 13.4029 17.9147 13.9305 17.5893 14.2559C17.2638 14.5814 16.7362 14.5814 16.4108 14.2559L12 9.84519L7.58926 14.2559C7.26382 14.5814 6.73619 14.5814 6.41075 14.2559C6.08531 13.9305 6.08531 13.4029 6.41075 13.0774L11.4107 8.07742Z" fill="white"/>
</symbol>



<symbol id="small_cross" viewBox="0 0 12 12" fill="none" >
<path d="M2 2L6.00003 6M6.00003 6L10 2M6.00003 6L2 10M6.00003 6L10 10" stroke="currentColor" stroke-width="2" stroke-linecap="round" stroke-linejoin="round"/>
</symbol>
<symbol id="small_down" viewBox="0 0 12 12" fill="none" >
<path d="M2 6L6.00003 10L10 6" stroke="currentColor" stroke-width="2" stroke-linecap="round" stroke-linejoin="round"/>
</symbol>



<symbol id="circle_not_verified" viewBox="0 0 24 24" fill="none" >
<path d="M12 2C6.47 2 2 6.47 2 12C2 17.53 6.47 22 12 22C17.53 22 22 17.53 22 12C22 6.47 17.53 2 12 2ZM12 20C7.59 20 4 16.41 4 12C4 7.59 7.59 4 12 4C16.41 4 20 7.59 20 12C20 16.41 16.41 20 12 20Z" fill="currentColor" />
<path d="M8 8L16 16M16 8L8 16" stroke="currentColor" stroke-width="2" stroke-linecap="round" stroke-linejoin="round"/>
</symbol>
<symbol id="circle_pending" viewBox="0 0 24 24" fill="none" >
<path d="M12 2C6.48 2 2 6.48 2 12C2 17.52 6.48 22 12 22C17.52 22 22 17.52 22 12C22 6.48 17.52 2 12 2ZM12 20C7.58 20 4 16.42 4 12C4 7.58 7.58 4 12 4C16.42 4 20 7.58 20 12C20 16.42 16.42 20 12 20Z" fill="currentColor" />
<path d="M7 13.5C7.82843 13.5 8.5 12.8284 8.5 12C8.5 11.1716 7.82843 10.5 7 10.5C6.17157 10.5 5.5 11.1716 5.5 12C5.5 12.8284 6.17157 13.5 7 13.5Z" fill="currentColor" />
<path d="M12 13.5C12.8284 13.5 13.5 12.8284 13.5 12C13.5 11.1716 12.8284 10.5 12 10.5C11.1716 10.5 10.5 11.1716 10.5 12C10.5 12.8284 11.1716 13.5 12 13.5Z" fill="currentColor" />
<path d="M17 13.5C17.8284 13.5 18.5 12.8284 18.5 12C18.5 11.1716 17.8284 10.5 17 10.5C16.1716 10.5 15.5 11.1716 15.5 12C15.5 12.8284 16.1716 13.5 17 13.5Z" fill="currentColor" />
</symbol>
<symbol id="circle_verified" viewBox="0 0 24 24" fill="none" >
<path d="M12 2C6.48 2 2 6.48 2 12C2 17.52 6.48 22 12 22C17.52 22 22 17.52 22 12C22 6.48 17.52 2 12 2ZM12 20C7.59 20 4 16.41 4 12C4 7.59 7.59 4 12 4C16.41 4 20 7.59 20 12C20 16.41 16.41 20 12 20Z" fill="currentColor" />
<path d="M7 11.8571L10.5714 15.4286L17 9" stroke="currentColor" stroke-width="2" stroke-linecap="round" stroke-linejoin="round"/>
</symbol>
<symbol id="not_verified" viewBox="0 0 24 24" fill="none" >
<path d="M8 8L16 16M16 8L8 16" stroke="currentColor" stroke-width="2" stroke-linecap="round" stroke-linejoin="round"/>
</symbol>
<symbol id="pending" viewBox="0 0 24 24" fill="none" >
<path d="M7 13.5C7.82843 13.5 8.5 12.8284 8.5 12C8.5 11.1716 7.82843 10.5 7 10.5C6.17157 10.5 5.5 11.1716 5.5 12C5.5 12.8284 6.17157 13.5 7 13.5Z" fill="currentColor" />
<path d="M12 13.5C12.8284 13.5 13.5 12.8284 13.5 12C13.5 11.1716 12.8284 10.5 12 10.5C11.1716 10.5 10.5 11.1716 10.5 12C10.5 12.8284 11.1716 13.5 12 13.5Z" fill="currentColor" />
<path d="M17 13.5C17.8284 13.5 18.5 12.8284 18.5 12C18.5 11.1716 17.8284 10.5 17 10.5C16.1716 10.5 15.5 11.1716 15.5 12C15.5 12.8284 16.1716 13.5 17 13.5Z" fill="currentColor" />
</symbol>
<symbol id="verified" viewBox="0 0 24 24" fill="none" >
<path d="M7 11.8571L10.5714 15.4286L17 9" stroke="currentColor" stroke-width="2" stroke-linecap="round" stroke-linejoin="round"/>
</symbol>



<symbol id="federal" viewBox="0 0 24 24" fill="none" >
<path d="M3 22H21" stroke="currentColor" stroke-width="2" stroke-linecap="round" stroke-linejoin="round"/>
<path d="M6 18V11" stroke="currentColor" stroke-width="2" stroke-linecap="round" stroke-linejoin="round"/>
<path d="M10 18V11" stroke="currentColor" stroke-width="2" stroke-linecap="round" stroke-linejoin="round"/>
<path d="M14 18V11" stroke="currentColor" stroke-width="2" stroke-linecap="round" stroke-linejoin="round"/>
<path d="M18 18V11" stroke="currentColor" stroke-width="2" stroke-linecap="round" stroke-linejoin="round"/>
<path d="M12 2L20 7H4L12 2Z" stroke="currentColor" stroke-width="2" stroke-linecap="round" stroke-linejoin="round"/>
</symbol>
<symbol id="local" viewBox="0 0 24 24" fill="none" >
<path d="M3 13L11.2929 4.70711C11.6834 4.31658 12.3166 4.31658 12.7071 4.70711L21 13M5 11.1111V21C5 21.5523 5.44772 22 6 22H9C9.55228 22 10 21.5523 10 21V15C10 14.4477 10.4477 14 11 14H13C13.5523 14 14 14.4477 14 15V21C14 21.5523 14.4477 22 15 22H18C18.5523 22 19 21.5523 19 21V11.1111" stroke="currentColor" stroke-width="2" stroke-linecap="round" stroke-linejoin="round"/>
</symbol>
<symbol id="regional" viewBox="0 0 24 24" fill="none" >
<path d="M10 6H14" stroke="currentColor" stroke-width="2" stroke-linecap="round" stroke-linejoin="round"/>
<path d="M10 10H14" stroke="currentColor" stroke-width="2" stroke-linecap="round" stroke-linejoin="round"/>
<path d="M10 14H14" stroke="currentColor" stroke-width="2" stroke-linecap="round" stroke-linejoin="round"/>
<path d="M10 18H14" stroke="currentColor" stroke-width="2" stroke-linecap="round" stroke-linejoin="round"/>
<rect x="6" y="2" width="12" height="20" rx="1" stroke="currentColor" stroke-width="2"/>
<path d="M2 13C2 12.4477 2.44772 12 3 12H6V22H3C2.44772 22 2 21.5523 2 21V13Z" stroke="currentColor" stroke-width="2"/>
<path d="M18 9H21C21.5523 9 22 9.44772 22 10V21C22 21.5523 21.5523 22 21 22H18V9Z" stroke="currentColor" stroke-width="2"/>
</symbol>



    </defs>
</svg>
