<svg width="48" height="48" viewBox="0 0 48 48" fill="none" xmlns="http://www.w3.org/2000/svg">
<rect x="6" y="6" width="30" height="42" rx="1" fill="url(#paint0_linear_13823_468600)"/>
<path d="M12 1C12 0.447716 12.4477 0 13 0H29.5858C29.851 0 30.1054 0.105357 30.2929 0.292893L36 6L41.7071 11.7071C41.8946 11.8946 42 12.149 42 12.4142V41C42 41.5523 41.5523 42 41 42H13C12.4477 42 12 41.5523 12 41V1Z" fill="#CDDDF7"/>
<path d="M30 0H30.9976C31.2628 0 31.5171 0.105357 31.7047 0.292893L41.7071 10.2953C41.8946 10.4829 42 10.7372 42 11.0024V12H31C30.4477 12 30 11.5523 30 11V0Z" fill="url(#paint1_linear_13823_468600)"/>
<path fill-rule="evenodd" clip-rule="evenodd" d="M23.0303 14.5303C23.3232 14.2374 23.3232 13.7626 23.0303 13.4697C22.7374 13.1768 22.2626 13.1768 21.9697 13.4697L19.5 15.9393L18.0303 14.4697C17.7374 14.1768 17.2626 14.1768 16.9697 14.4697C16.6768 14.7626 16.6768 15.2374 16.9697 15.5303L18.9697 17.5303C19.2626 17.8232 19.7374 17.8232 20.0303 17.5303L23.0303 14.5303ZM27 15C26.1716 15 25.5 15.6716 25.5 16.5C25.5 17.3284 26.1716 18 27 18H36C36.8284 18 37.5 17.3284 37.5 16.5C37.5 15.6716 36.8284 15 36 15H27ZM25.5 32.5C25.5 31.6716 26.1716 31 27 31H36C36.8284 31 37.5 31.6716 37.5 32.5C37.5 33.3284 36.8284 34 36 34H27C26.1716 34 25.5 33.3284 25.5 32.5ZM23.0303 30.5303C23.3232 30.2374 23.3232 29.7626 23.0303 29.4697C22.7374 29.1768 22.2626 29.1768 21.9697 29.4697L19.5 31.9393L18.0303 30.4697C17.7374 30.1768 17.2626 30.1768 16.9697 30.4697C16.6768 30.7626 16.6768 31.2374 16.9697 31.5303L18.9697 33.5303C19.2626 33.8232 19.7374 33.8232 20.0303 33.5303L23.0303 30.5303ZM25.5 24.5C25.5 23.6716 26.1716 23 27 23H36C36.8284 23 37.5 23.6716 37.5 24.5C37.5 25.3284 36.8284 26 36 26H27C26.1716 26 25.5 25.3284 25.5 24.5ZM23.0303 22.5303C23.3232 22.2374 23.3232 21.7626 23.0303 21.4697C22.7374 21.1768 22.2626 21.1768 21.9697 21.4697L19.5 23.9393L18.0303 22.4697C17.7374 22.1768 17.2626 22.1768 16.9697 22.4697C16.6768 22.7626 16.6768 23.2374 16.9697 23.5303L18.9697 25.5303C19.2626 25.8232 19.7374 25.8232 20.0303 25.5303L23.0303 22.5303Z" fill="url(#paint2_linear_13823_468600)"/>
<defs>
<linearGradient id="paint0_linear_13823_468600" x1="21" y1="6" x2="21" y2="48" gradientUnits="userSpaceOnUse">
<stop stop-color="#356FCD"/>
<stop offset="1" stop-color="#407CD8"/>
</linearGradient>
<linearGradient id="paint1_linear_13823_468600" x1="36" y1="0" x2="36" y2="12" gradientUnits="userSpaceOnUse">
<stop stop-color="#356FCD"/>
<stop offset="1" stop-color="#407CD8"/>
</linearGradient>
<linearGradient id="paint2_linear_13823_468600" x1="27.125" y1="13.25" x2="27.125" y2="34" gradientUnits="userSpaceOnUse">
<stop stop-color="#356FCD"/>
<stop offset="1" stop-color="#407CD8"/>
</linearGradient>
</defs>
</svg>
