<svg width="48" height="49" viewBox="0 0 48 49" fill="none" xmlns="http://www.w3.org/2000/svg">
<path d="M0 11.9268L12 9V46.0732L0 49V11.9268Z" fill="#CDDDF7"/>
<path d="M24 11.9268L12 9V46.0732L24 49V11.9268Z" fill="#CDDDF7"/>
<path d="M24 11.9268L36 9V46.0732L24 49V11.9268Z" fill="#CDDDF7"/>
<path d="M48 11.9268L36 9V46.0732L48 49V11.9268Z" fill="#CDDDF7"/>
<path fill-rule="evenodd" clip-rule="evenodd" d="M38.464 15.09C38.11 15.2322 38.0435 15.5389 38.2118 16.2526L38.3614 16.8874L38.1396 17.4768C38.0176 17.801 37.9178 18.2267 37.9178 18.4229C37.9178 19.2514 37.3338 19.8182 35.4481 20.8202C34.0693 21.5529 33.8818 21.7642 33.6645 22.8312C33.3362 24.4424 32.398 25.4638 31.9059 24.7457C31.4982 24.1509 31.3715 24.0737 30.8879 24.1257C30.6158 24.155 30.0945 24.3348 29.5775 24.5779C28.561 25.0557 27.8361 25.2572 27.2657 25.2206C26.6948 25.1839 26.6899 25.0238 27.2346 24.2174C27.4793 23.855 27.6796 23.5033 27.6796 23.4355C27.6796 23.2646 27.3412 22.9425 27.2148 22.9931C27.1576 23.016 26.6974 23.1661 26.1921 23.3268C25.3522 23.5937 25.234 23.6591 24.8159 24.0878C24.5583 24.3519 24.2143 24.6057 24.0284 24.6687C23.5968 24.8151 23.4823 25.0576 23.4807 25.828C23.4795 26.4231 23.4614 26.4824 23.1857 26.7906C22.8073 27.2138 22.6918 27.4405 22.6918 27.7598C22.6918 28.1161 22.4467 28.3833 22.0638 28.4446C21.7932 28.488 21.7048 28.4588 21.5064 28.2604C21.2978 28.0517 21.2756 27.9747 21.3127 27.5882C21.3463 27.239 21.4165 27.087 21.6636 26.829C22.2279 26.2398 22.3778 25.7053 22.1566 25.0708C22.0079 24.6443 21.6846 24.7231 21.2926 25.2814C20.4523 26.4784 19.848 26.8127 18.5248 26.8127C17.8104 26.8127 17.7978 26.8089 17.4071 26.4708C17.1899 26.2828 16.8627 26.0768 16.68 26.0131C16.2072 25.8482 15.1631 25.8964 13.635 26.1536C12.2076 26.3938 11.3239 26.4355 11.1586 26.2702C10.9027 26.0142 11.1632 24.8605 11.5011 24.7532C11.5938 24.7238 11.8657 24.7648 12.1053 24.8444C12.368 24.9316 12.6443 24.9664 12.8012 24.9319C13.1523 24.8548 13.5043 24.4224 13.5019 24.0714C13.4973 23.4117 12.81 22.5512 12.1234 22.3455C11.6421 22.2013 11.3705 22.3657 10.634 23.2469C9.54592 24.5486 9.00724 24.92 7.81726 25.1887C6.61389 25.4604 5.92233 25.9953 5.44875 27.0207C4.9393 28.1238 4.80174 29.633 5.06889 31.1883C5.14625 31.6386 5.19254 32.2422 5.17171 32.5295C5.1235 33.1968 4.86466 33.4631 4.26428 33.4631C3.78064 33.4631 3.33436 33.6418 3.14588 33.9109C2.87715 34.2945 2.96457 34.7793 3.53484 36.0681C4.67381 38.6421 5.5983 39.8856 6.15265 39.5888C6.31996 39.4993 6.45104 39.1918 6.93608 37.7509C7.49113 36.1021 8.04477 35.1928 8.69599 34.8607C9.57961 34.4098 10.7968 34.8709 11.6006 35.9609C12.137 36.6882 12.5885 37.0675 12.8781 37.0339C13.0683 37.0119 13.1623 36.9001 13.401 36.4127C13.6391 35.9263 13.7894 35.7473 14.2279 35.4282C14.5227 35.2137 14.8334 35.0382 14.9184 35.0382C15.0034 35.0382 15.3207 35.1744 15.6234 35.3409C15.9263 35.5073 16.3903 35.6865 16.6547 35.7391C17.3861 35.8847 17.5051 35.9593 17.7378 36.4186C18.0329 37.0009 18.1577 37.0831 18.7554 37.0893C19.1989 37.0939 19.3036 37.1291 19.5354 37.3511C19.6825 37.4921 19.9594 37.8708 20.1505 38.1924C20.7245 39.1587 21.35 39.5965 22.4181 39.7797C23.4348 39.954 25.1563 39.6392 25.837 39.1545C26.0257 39.0202 26.2254 38.9758 26.6431 38.9751C27.0594 38.9745 27.3188 38.9171 27.6796 38.7455C27.9495 38.6174 28.3147 38.5169 28.5109 38.5169C28.7072 38.5169 29.0724 38.6174 29.3422 38.7455C29.9238 39.0219 30.0445 39.0264 30.7067 38.7966C31.2876 38.5952 31.6841 38.5648 32.4487 38.6629C32.9702 38.7297 32.9778 38.7275 33.5802 38.3294C33.9871 38.0604 34.3524 37.8959 34.6903 37.8294C35.4499 37.6799 35.5555 37.5229 35.6911 36.342C35.8286 35.1451 35.9154 35.0239 36.6753 34.9689C37.2749 34.9255 37.6286 35.0696 37.917 35.4746C38.1783 35.8416 38.3305 35.9043 39.1642 35.9889C40.5081 36.1251 40.8452 36.4294 40.8236 37.487C40.8011 38.5868 41.0338 39.0635 41.593 39.0635C42.1198 39.0635 42.3039 38.7049 42.6037 37.0946C42.7056 36.548 42.7376 36.0393 42.7087 35.432C42.6717 34.6584 42.6168 34.42 42.2349 33.3756C41.9974 32.7259 41.7459 32.0171 41.6761 31.8005L41.5492 31.4067H40.7932C40.1775 31.4067 40.0034 31.3764 39.8558 31.243C39.5493 30.9663 39.4632 30.5381 39.5292 29.6192C39.5622 29.1585 39.5916 28.7225 39.5945 28.6503C39.6088 28.2902 39.7964 27.6634 40.0736 27.0491C40.3169 26.5099 40.4032 26.1703 40.4845 25.4314C40.5718 24.6372 40.6118 24.4914 40.7493 24.4649C40.9804 24.4204 41.4577 24.9159 41.8305 25.5873C42.603 26.9788 43.3919 27.8776 44.1792 28.2628C44.5665 28.4522 44.6731 28.4722 44.835 28.3855C45.0098 28.2919 45.0234 28.235 44.9774 27.7895C44.8687 26.7359 44.1012 25.5964 43.0138 24.874C42.7751 24.7155 42.585 24.4803 42.4153 24.1331C42.0877 23.4638 42.034 22.3752 42.2485 20.7559C42.5125 18.7625 42.3108 18.2061 41.1277 17.6645C40.5248 17.3885 40.4554 17.2529 40.4554 16.3515C40.4554 15.7668 40.4315 15.6757 40.2148 15.4338C39.8751 15.0546 38.9862 14.8801 38.464 15.09Z" fill="url(#paint0_linear_13823_468710)"/>
<path fill-rule="evenodd" clip-rule="evenodd" d="M30.4808 21C31.2885 21 38.1538 14.1346 38.1538 8.07692C38.1538 3.61616 34.5377 0 30.0769 0C25.6162 0 22 3.61616 22 8.07692C22 14.1346 29.6731 21 30.4808 21ZM30.0772 10.5042C31.4154 10.5042 32.5003 9.41936 32.5003 8.08113C32.5003 6.7429 31.4154 5.65805 30.0772 5.65805C28.739 5.65805 27.6541 6.7429 27.6541 8.08113C27.6541 9.41936 28.739 10.5042 30.0772 10.5042Z" fill="url(#paint1_linear_13823_468710)"/>
<defs>
<linearGradient id="paint0_linear_13823_468710" x1="24" y1="15" x2="24" y2="39.8283" gradientUnits="userSpaceOnUse">
<stop stop-color="#356FCD"/>
<stop offset="1" stop-color="#407CD8"/>
</linearGradient>
<linearGradient id="paint1_linear_13823_468710" x1="30.0769" y1="0" x2="30.0769" y2="21" gradientUnits="userSpaceOnUse">
<stop stop-color="#356FCD"/>
<stop offset="1" stop-color="#407CD8"/>
</linearGradient>
</defs>
</svg>
