<svg width="1920" height="600" viewBox="0 0 1920 600" fill="none" xmlns="http://www.w3.org/2000/svg">
<g clip-path="url(#clip0_10427_518673)">
<g filter="url(#filter0_dd_10427_518673)">
<rect x="979" y="269" width="24" height="24" rx="4" fill="#FDD835"/>
<path d="M997.667 274.334H984.334C983.417 274.334 982.675 275.084 982.675 276.001L982.667 286.001C982.667 286.917 983.417 287.667 984.334 287.667H997.667C998.584 287.667 999.334 286.917 999.334 286.001V276.001C999.334 275.084 998.584 274.334 997.667 274.334ZM997.667 277.276C997.667 277.519 997.541 277.746 997.335 277.875L991.53 281.503C991.206 281.705 990.795 281.705 990.47 281.503L984.666 277.875C984.459 277.746 984.334 277.519 984.334 277.276C984.334 276.721 984.944 276.382 985.415 276.676L990.47 279.836C990.795 280.039 991.206 280.039 991.53 279.836L996.586 276.676C997.056 276.382 997.667 276.721 997.667 277.276Z" fill="white"/>
<rect x="978.5" y="268.5" width="25" height="25" rx="4.5" stroke="white"/>
</g>
<g filter="url(#filter1_dd_10427_518673)">
<rect x="190" y="114" width="24" height="24" rx="4" fill="#FDD835"/>
<path d="M208.667 119.334H195.334C194.417 119.334 193.675 120.084 193.675 121.001L193.667 131.001C193.667 131.917 194.417 132.667 195.334 132.667H208.667C209.584 132.667 210.334 131.917 210.334 131.001V121.001C210.334 120.084 209.584 119.334 208.667 119.334ZM208.667 122.276C208.667 122.519 208.541 122.746 208.335 122.875L202.53 126.503C202.206 126.705 201.795 126.705 201.47 126.503L195.666 122.875C195.459 122.746 195.334 122.519 195.334 122.276C195.334 121.721 195.944 121.382 196.415 121.676L201.47 124.836C201.795 125.039 202.206 125.039 202.53 124.836L207.586 121.676C208.056 121.382 208.667 121.721 208.667 122.276Z" fill="white"/>
<rect x="189.5" y="113.5" width="25" height="25" rx="4.5" stroke="white"/>
</g>
<g filter="url(#filter2_dd_10427_518673)">
<rect x="143" y="80" width="24" height="24" rx="4" fill="#FDD835"/>
<path d="M161.667 85.334H148.334C147.417 85.334 146.675 86.084 146.675 87.0007L146.667 97.0007C146.667 97.9173 147.417 98.6673 148.334 98.6673H161.667C162.584 98.6673 163.334 97.9173 163.334 97.0007V87.0007C163.334 86.084 162.584 85.334 161.667 85.334ZM161.667 88.2757C161.667 88.5193 161.541 88.7458 161.335 88.8749L155.53 92.5027C155.206 92.7054 154.795 92.7054 154.47 92.5027L148.666 88.8749C148.459 88.7458 148.334 88.5193 148.334 88.2757C148.334 87.7206 148.944 87.3822 149.415 87.6764L154.47 90.8361C154.795 91.0387 155.206 91.0387 155.53 90.8361L160.586 87.6764C161.056 87.3822 161.667 87.7206 161.667 88.2757Z" fill="white"/>
<rect x="142.5" y="79.5" width="25" height="25" rx="4.5" stroke="white"/>
</g>
<g filter="url(#filter3_dd_10427_518673)">
<rect x="979" y="269" width="24" height="24" rx="4" fill="#FDD835"/>
<path d="M997.667 274.334H984.334C983.417 274.334 982.675 275.084 982.675 276.001L982.667 286.001C982.667 286.917 983.417 287.667 984.334 287.667H997.667C998.584 287.667 999.334 286.917 999.334 286.001V276.001C999.334 275.084 998.584 274.334 997.667 274.334ZM997.667 277.276C997.667 277.519 997.541 277.746 997.335 277.875L991.53 281.503C991.206 281.705 990.795 281.705 990.47 281.503L984.666 277.875C984.459 277.746 984.334 277.519 984.334 277.276C984.334 276.721 984.944 276.382 985.415 276.676L990.47 279.836C990.795 280.039 991.206 280.039 991.53 279.836L996.586 276.676C997.056 276.382 997.667 276.721 997.667 277.276Z" fill="white"/>
<rect x="978.5" y="268.5" width="25" height="25" rx="4.5" stroke="white"/>
</g>
<g filter="url(#filter4_dd_10427_518673)">
<rect x="1087" y="107" width="24" height="24" rx="4" fill="#FDD835"/>
<path d="M1105.67 112.334H1092.33C1091.42 112.334 1090.68 113.084 1090.68 114.001L1090.67 124.001C1090.67 124.917 1091.42 125.667 1092.33 125.667H1105.67C1106.58 125.667 1107.33 124.917 1107.33 124.001V114.001C1107.33 113.084 1106.58 112.334 1105.67 112.334ZM1105.67 115.276C1105.67 115.519 1105.54 115.746 1105.33 115.875L1099.53 119.503C1099.21 119.705 1098.79 119.705 1098.47 119.503L1092.67 115.875C1092.46 115.746 1092.33 115.519 1092.33 115.276C1092.33 114.721 1092.94 114.382 1093.41 114.676L1098.47 117.836C1098.79 118.039 1099.21 118.039 1099.53 117.836L1104.59 114.676C1105.06 114.382 1105.67 114.721 1105.67 115.276Z" fill="white"/>
<rect x="1086.5" y="106.5" width="25" height="25" rx="4.5" stroke="white"/>
</g>
<g filter="url(#filter5_dd_10427_518673)">
<rect x="1111" y="81" width="24" height="24" rx="4" fill="#FDD835"/>
<path d="M1129.67 86.334H1116.33C1115.42 86.334 1114.68 87.084 1114.68 88.0007L1114.67 98.0007C1114.67 98.9173 1115.42 99.6673 1116.33 99.6673H1129.67C1130.58 99.6673 1131.33 98.9173 1131.33 98.0007V88.0007C1131.33 87.084 1130.58 86.334 1129.67 86.334ZM1129.67 89.2757C1129.67 89.5193 1129.54 89.7458 1129.33 89.8749L1123.53 93.5027C1123.21 93.7054 1122.79 93.7054 1122.47 93.5027L1116.67 89.8749C1116.46 89.7458 1116.33 89.5193 1116.33 89.2757C1116.33 88.7206 1116.94 88.3822 1117.41 88.6764L1122.47 91.8361C1122.79 92.0387 1123.21 92.0387 1123.53 91.8361L1128.59 88.6764C1129.06 88.3822 1129.67 88.7206 1129.67 89.2757Z" fill="white"/>
<rect x="1110.5" y="80.5" width="25" height="25" rx="4.5" stroke="white"/>
</g>
<g filter="url(#filter6_dd_10427_518673)">
<rect x="348" y="336" width="24" height="24" rx="4" fill="#FDD835"/>
<path d="M366.667 341.334H353.334C352.417 341.334 351.675 342.084 351.675 343.001L351.667 353.001C351.667 353.917 352.417 354.667 353.334 354.667H366.667C367.584 354.667 368.334 353.917 368.334 353.001V343.001C368.334 342.084 367.584 341.334 366.667 341.334ZM366.667 344.276C366.667 344.519 366.541 344.746 366.335 344.875L360.53 348.503C360.206 348.705 359.795 348.705 359.47 348.503L353.666 344.875C353.459 344.746 353.334 344.519 353.334 344.276C353.334 343.721 353.944 343.382 354.415 343.676L359.47 346.836C359.795 347.039 360.206 347.039 360.53 346.836L365.586 343.676C366.056 343.382 366.667 343.721 366.667 344.276Z" fill="white"/>
<rect x="347.5" y="335.5" width="25" height="25" rx="4.5" stroke="white"/>
</g>
<g filter="url(#filter7_dd_10427_518673)">
<rect x="590" y="172" width="24" height="24" rx="4" fill="#FDD835"/>
<path d="M608.667 177.334H595.334C594.417 177.334 593.675 178.084 593.675 179.001L593.667 189.001C593.667 189.917 594.417 190.667 595.334 190.667H608.667C609.584 190.667 610.334 189.917 610.334 189.001V179.001C610.334 178.084 609.584 177.334 608.667 177.334ZM608.667 180.276C608.667 180.519 608.541 180.746 608.335 180.875L602.53 184.503C602.206 184.705 601.795 184.705 601.47 184.503L595.666 180.875C595.459 180.746 595.334 180.519 595.334 180.276C595.334 179.721 595.944 179.382 596.415 179.676L601.47 182.836C601.795 183.039 602.206 183.039 602.53 182.836L607.586 179.676C608.056 179.382 608.667 179.721 608.667 180.276Z" fill="white"/>
<rect x="589.5" y="171.5" width="25" height="25" rx="4.5" stroke="white"/>
</g>
<g filter="url(#filter8_dd_10427_518673)">
<rect x="964" y="260" width="24" height="24" rx="4" fill="#FDD835"/>
<path d="M982.667 265.334H969.334C968.417 265.334 967.675 266.084 967.675 267.001L967.667 277.001C967.667 277.917 968.417 278.667 969.334 278.667H982.667C983.584 278.667 984.334 277.917 984.334 277.001V267.001C984.334 266.084 983.584 265.334 982.667 265.334ZM982.667 268.276C982.667 268.519 982.541 268.746 982.335 268.875L976.53 272.503C976.206 272.705 975.795 272.705 975.47 272.503L969.666 268.875C969.459 268.746 969.334 268.519 969.334 268.276C969.334 267.721 969.944 267.382 970.415 267.676L975.47 270.836C975.795 271.039 976.206 271.039 976.53 270.836L981.586 267.676C982.056 267.382 982.667 267.721 982.667 268.276Z" fill="white"/>
<rect x="963.5" y="259.5" width="25" height="25" rx="4.5" stroke="white"/>
</g>
<g filter="url(#filter9_dd_10427_518673)">
<rect x="448" y="446" width="24" height="24" rx="4" fill="#FDD835"/>
<path d="M466.667 451.334H453.334C452.417 451.334 451.675 452.084 451.675 453.001L451.667 463.001C451.667 463.917 452.417 464.667 453.334 464.667H466.667C467.584 464.667 468.334 463.917 468.334 463.001V453.001C468.334 452.084 467.584 451.334 466.667 451.334ZM466.667 454.276C466.667 454.519 466.541 454.746 466.335 454.875L460.53 458.503C460.206 458.705 459.795 458.705 459.47 458.503L453.666 454.875C453.459 454.746 453.334 454.519 453.334 454.276C453.334 453.721 453.944 453.382 454.415 453.676L459.47 456.836C459.795 457.039 460.206 457.039 460.53 456.836L465.586 453.676C466.056 453.382 466.667 453.721 466.667 454.276Z" fill="white"/>
<rect x="447.5" y="445.5" width="25" height="25" rx="4.5" stroke="white"/>
</g>
<g filter="url(#filter10_dd_10427_518673)">
<rect x="429" y="541" width="24" height="24" rx="4" fill="#FDD835"/>
<path d="M447.667 546.334H434.334C433.417 546.334 432.675 547.084 432.675 548.001L432.667 558.001C432.667 558.917 433.417 559.667 434.334 559.667H447.667C448.584 559.667 449.334 558.917 449.334 558.001V548.001C449.334 547.084 448.584 546.334 447.667 546.334ZM447.667 549.276C447.667 549.519 447.541 549.746 447.335 549.875L441.53 553.503C441.206 553.705 440.795 553.705 440.47 553.503L434.666 549.875C434.459 549.746 434.334 549.519 434.334 549.276C434.334 548.721 434.944 548.382 435.415 548.676L440.47 551.836C440.795 552.039 441.206 552.039 441.53 551.836L446.586 548.676C447.056 548.382 447.667 548.721 447.667 549.276Z" fill="white"/>
<rect x="428.5" y="540.5" width="25" height="25" rx="4.5" stroke="white"/>
</g>
<g filter="url(#filter11_dd_10427_518673)">
<rect x="392" y="249" width="24" height="24" rx="4" fill="#FDD835"/>
<path d="M410.667 254.334H397.334C396.417 254.334 395.675 255.084 395.675 256.001L395.667 266.001C395.667 266.917 396.417 267.667 397.334 267.667H410.667C411.584 267.667 412.334 266.917 412.334 266.001V256.001C412.334 255.084 411.584 254.334 410.667 254.334ZM410.667 257.276C410.667 257.519 410.541 257.746 410.335 257.875L404.53 261.503C404.206 261.705 403.795 261.705 403.47 261.503L397.666 257.875C397.459 257.746 397.334 257.519 397.334 257.276C397.334 256.721 397.944 256.382 398.415 256.676L403.47 259.836C403.795 260.039 404.206 260.039 404.53 259.836L409.586 256.676C410.056 256.382 410.667 256.721 410.667 257.276Z" fill="white"/>
<rect x="391.5" y="248.5" width="25" height="25" rx="4.5" stroke="white"/>
</g>
</g>
<defs>
<filter id="filter0_dd_10427_518673" x="962" y="260" width="58" height="58" filterUnits="userSpaceOnUse" color-interpolation-filters="sRGB">
<feFlood flood-opacity="0" result="BackgroundImageFix"/>
<feColorMatrix in="SourceAlpha" type="matrix" values="0 0 0 0 0 0 0 0 0 0 0 0 0 0 0 0 0 0 127 0" result="hardAlpha"/>
<feOffset dy="8"/>
<feGaussianBlur stdDeviation="8"/>
<feColorMatrix type="matrix" values="0 0 0 0 0.423529 0 0 0 0 0.521569 0 0 0 0 0.623529 0 0 0 0.1 0"/>
<feBlend mode="multiply" in2="BackgroundImageFix" result="effect1_dropShadow_10427_518673"/>
<feColorMatrix in="SourceAlpha" type="matrix" values="0 0 0 0 0 0 0 0 0 0 0 0 0 0 0 0 0 0 127 0" result="hardAlpha"/>
<feOffset dy="4"/>
<feGaussianBlur stdDeviation="4"/>
<feColorMatrix type="matrix" values="0 0 0 0 0.423529 0 0 0 0 0.521569 0 0 0 0 0.623529 0 0 0 0.1 0"/>
<feBlend mode="multiply" in2="effect1_dropShadow_10427_518673" result="effect2_dropShadow_10427_518673"/>
<feBlend mode="normal" in="SourceGraphic" in2="effect2_dropShadow_10427_518673" result="shape"/>
</filter>
<filter id="filter1_dd_10427_518673" x="173" y="105" width="58" height="58" filterUnits="userSpaceOnUse" color-interpolation-filters="sRGB">
<feFlood flood-opacity="0" result="BackgroundImageFix"/>
<feColorMatrix in="SourceAlpha" type="matrix" values="0 0 0 0 0 0 0 0 0 0 0 0 0 0 0 0 0 0 127 0" result="hardAlpha"/>
<feOffset dy="8"/>
<feGaussianBlur stdDeviation="8"/>
<feColorMatrix type="matrix" values="0 0 0 0 0.423529 0 0 0 0 0.521569 0 0 0 0 0.623529 0 0 0 0.1 0"/>
<feBlend mode="multiply" in2="BackgroundImageFix" result="effect1_dropShadow_10427_518673"/>
<feColorMatrix in="SourceAlpha" type="matrix" values="0 0 0 0 0 0 0 0 0 0 0 0 0 0 0 0 0 0 127 0" result="hardAlpha"/>
<feOffset dy="4"/>
<feGaussianBlur stdDeviation="4"/>
<feColorMatrix type="matrix" values="0 0 0 0 0.423529 0 0 0 0 0.521569 0 0 0 0 0.623529 0 0 0 0.1 0"/>
<feBlend mode="multiply" in2="effect1_dropShadow_10427_518673" result="effect2_dropShadow_10427_518673"/>
<feBlend mode="normal" in="SourceGraphic" in2="effect2_dropShadow_10427_518673" result="shape"/>
</filter>
<filter id="filter2_dd_10427_518673" x="126" y="71" width="58" height="58" filterUnits="userSpaceOnUse" color-interpolation-filters="sRGB">
<feFlood flood-opacity="0" result="BackgroundImageFix"/>
<feColorMatrix in="SourceAlpha" type="matrix" values="0 0 0 0 0 0 0 0 0 0 0 0 0 0 0 0 0 0 127 0" result="hardAlpha"/>
<feOffset dy="8"/>
<feGaussianBlur stdDeviation="8"/>
<feColorMatrix type="matrix" values="0 0 0 0 0.423529 0 0 0 0 0.521569 0 0 0 0 0.623529 0 0 0 0.1 0"/>
<feBlend mode="multiply" in2="BackgroundImageFix" result="effect1_dropShadow_10427_518673"/>
<feColorMatrix in="SourceAlpha" type="matrix" values="0 0 0 0 0 0 0 0 0 0 0 0 0 0 0 0 0 0 127 0" result="hardAlpha"/>
<feOffset dy="4"/>
<feGaussianBlur stdDeviation="4"/>
<feColorMatrix type="matrix" values="0 0 0 0 0.423529 0 0 0 0 0.521569 0 0 0 0 0.623529 0 0 0 0.1 0"/>
<feBlend mode="multiply" in2="effect1_dropShadow_10427_518673" result="effect2_dropShadow_10427_518673"/>
<feBlend mode="normal" in="SourceGraphic" in2="effect2_dropShadow_10427_518673" result="shape"/>
</filter>
<filter id="filter3_dd_10427_518673" x="962" y="260" width="58" height="58" filterUnits="userSpaceOnUse" color-interpolation-filters="sRGB">
<feFlood flood-opacity="0" result="BackgroundImageFix"/>
<feColorMatrix in="SourceAlpha" type="matrix" values="0 0 0 0 0 0 0 0 0 0 0 0 0 0 0 0 0 0 127 0" result="hardAlpha"/>
<feOffset dy="8"/>
<feGaussianBlur stdDeviation="8"/>
<feColorMatrix type="matrix" values="0 0 0 0 0.423529 0 0 0 0 0.521569 0 0 0 0 0.623529 0 0 0 0.1 0"/>
<feBlend mode="multiply" in2="BackgroundImageFix" result="effect1_dropShadow_10427_518673"/>
<feColorMatrix in="SourceAlpha" type="matrix" values="0 0 0 0 0 0 0 0 0 0 0 0 0 0 0 0 0 0 127 0" result="hardAlpha"/>
<feOffset dy="4"/>
<feGaussianBlur stdDeviation="4"/>
<feColorMatrix type="matrix" values="0 0 0 0 0.423529 0 0 0 0 0.521569 0 0 0 0 0.623529 0 0 0 0.1 0"/>
<feBlend mode="multiply" in2="effect1_dropShadow_10427_518673" result="effect2_dropShadow_10427_518673"/>
<feBlend mode="normal" in="SourceGraphic" in2="effect2_dropShadow_10427_518673" result="shape"/>
</filter>
<filter id="filter4_dd_10427_518673" x="1070" y="98" width="58" height="58" filterUnits="userSpaceOnUse" color-interpolation-filters="sRGB">
<feFlood flood-opacity="0" result="BackgroundImageFix"/>
<feColorMatrix in="SourceAlpha" type="matrix" values="0 0 0 0 0 0 0 0 0 0 0 0 0 0 0 0 0 0 127 0" result="hardAlpha"/>
<feOffset dy="8"/>
<feGaussianBlur stdDeviation="8"/>
<feColorMatrix type="matrix" values="0 0 0 0 0.423529 0 0 0 0 0.521569 0 0 0 0 0.623529 0 0 0 0.1 0"/>
<feBlend mode="multiply" in2="BackgroundImageFix" result="effect1_dropShadow_10427_518673"/>
<feColorMatrix in="SourceAlpha" type="matrix" values="0 0 0 0 0 0 0 0 0 0 0 0 0 0 0 0 0 0 127 0" result="hardAlpha"/>
<feOffset dy="4"/>
<feGaussianBlur stdDeviation="4"/>
<feColorMatrix type="matrix" values="0 0 0 0 0.423529 0 0 0 0 0.521569 0 0 0 0 0.623529 0 0 0 0.1 0"/>
<feBlend mode="multiply" in2="effect1_dropShadow_10427_518673" result="effect2_dropShadow_10427_518673"/>
<feBlend mode="normal" in="SourceGraphic" in2="effect2_dropShadow_10427_518673" result="shape"/>
</filter>
<filter id="filter5_dd_10427_518673" x="1094" y="72" width="58" height="58" filterUnits="userSpaceOnUse" color-interpolation-filters="sRGB">
<feFlood flood-opacity="0" result="BackgroundImageFix"/>
<feColorMatrix in="SourceAlpha" type="matrix" values="0 0 0 0 0 0 0 0 0 0 0 0 0 0 0 0 0 0 127 0" result="hardAlpha"/>
<feOffset dy="8"/>
<feGaussianBlur stdDeviation="8"/>
<feColorMatrix type="matrix" values="0 0 0 0 0.423529 0 0 0 0 0.521569 0 0 0 0 0.623529 0 0 0 0.1 0"/>
<feBlend mode="multiply" in2="BackgroundImageFix" result="effect1_dropShadow_10427_518673"/>
<feColorMatrix in="SourceAlpha" type="matrix" values="0 0 0 0 0 0 0 0 0 0 0 0 0 0 0 0 0 0 127 0" result="hardAlpha"/>
<feOffset dy="4"/>
<feGaussianBlur stdDeviation="4"/>
<feColorMatrix type="matrix" values="0 0 0 0 0.423529 0 0 0 0 0.521569 0 0 0 0 0.623529 0 0 0 0.1 0"/>
<feBlend mode="multiply" in2="effect1_dropShadow_10427_518673" result="effect2_dropShadow_10427_518673"/>
<feBlend mode="normal" in="SourceGraphic" in2="effect2_dropShadow_10427_518673" result="shape"/>
</filter>
<filter id="filter6_dd_10427_518673" x="331" y="327" width="58" height="58" filterUnits="userSpaceOnUse" color-interpolation-filters="sRGB">
<feFlood flood-opacity="0" result="BackgroundImageFix"/>
<feColorMatrix in="SourceAlpha" type="matrix" values="0 0 0 0 0 0 0 0 0 0 0 0 0 0 0 0 0 0 127 0" result="hardAlpha"/>
<feOffset dy="8"/>
<feGaussianBlur stdDeviation="8"/>
<feColorMatrix type="matrix" values="0 0 0 0 0.423529 0 0 0 0 0.521569 0 0 0 0 0.623529 0 0 0 0.1 0"/>
<feBlend mode="multiply" in2="BackgroundImageFix" result="effect1_dropShadow_10427_518673"/>
<feColorMatrix in="SourceAlpha" type="matrix" values="0 0 0 0 0 0 0 0 0 0 0 0 0 0 0 0 0 0 127 0" result="hardAlpha"/>
<feOffset dy="4"/>
<feGaussianBlur stdDeviation="4"/>
<feColorMatrix type="matrix" values="0 0 0 0 0.423529 0 0 0 0 0.521569 0 0 0 0 0.623529 0 0 0 0.1 0"/>
<feBlend mode="multiply" in2="effect1_dropShadow_10427_518673" result="effect2_dropShadow_10427_518673"/>
<feBlend mode="normal" in="SourceGraphic" in2="effect2_dropShadow_10427_518673" result="shape"/>
</filter>
<filter id="filter7_dd_10427_518673" x="573" y="163" width="58" height="58" filterUnits="userSpaceOnUse" color-interpolation-filters="sRGB">
<feFlood flood-opacity="0" result="BackgroundImageFix"/>
<feColorMatrix in="SourceAlpha" type="matrix" values="0 0 0 0 0 0 0 0 0 0 0 0 0 0 0 0 0 0 127 0" result="hardAlpha"/>
<feOffset dy="8"/>
<feGaussianBlur stdDeviation="8"/>
<feColorMatrix type="matrix" values="0 0 0 0 0.423529 0 0 0 0 0.521569 0 0 0 0 0.623529 0 0 0 0.1 0"/>
<feBlend mode="multiply" in2="BackgroundImageFix" result="effect1_dropShadow_10427_518673"/>
<feColorMatrix in="SourceAlpha" type="matrix" values="0 0 0 0 0 0 0 0 0 0 0 0 0 0 0 0 0 0 127 0" result="hardAlpha"/>
<feOffset dy="4"/>
<feGaussianBlur stdDeviation="4"/>
<feColorMatrix type="matrix" values="0 0 0 0 0.423529 0 0 0 0 0.521569 0 0 0 0 0.623529 0 0 0 0.1 0"/>
<feBlend mode="multiply" in2="effect1_dropShadow_10427_518673" result="effect2_dropShadow_10427_518673"/>
<feBlend mode="normal" in="SourceGraphic" in2="effect2_dropShadow_10427_518673" result="shape"/>
</filter>
<filter id="filter8_dd_10427_518673" x="947" y="251" width="58" height="58" filterUnits="userSpaceOnUse" color-interpolation-filters="sRGB">
<feFlood flood-opacity="0" result="BackgroundImageFix"/>
<feColorMatrix in="SourceAlpha" type="matrix" values="0 0 0 0 0 0 0 0 0 0 0 0 0 0 0 0 0 0 127 0" result="hardAlpha"/>
<feOffset dy="8"/>
<feGaussianBlur stdDeviation="8"/>
<feColorMatrix type="matrix" values="0 0 0 0 0.423529 0 0 0 0 0.521569 0 0 0 0 0.623529 0 0 0 0.1 0"/>
<feBlend mode="multiply" in2="BackgroundImageFix" result="effect1_dropShadow_10427_518673"/>
<feColorMatrix in="SourceAlpha" type="matrix" values="0 0 0 0 0 0 0 0 0 0 0 0 0 0 0 0 0 0 127 0" result="hardAlpha"/>
<feOffset dy="4"/>
<feGaussianBlur stdDeviation="4"/>
<feColorMatrix type="matrix" values="0 0 0 0 0.423529 0 0 0 0 0.521569 0 0 0 0 0.623529 0 0 0 0.1 0"/>
<feBlend mode="multiply" in2="effect1_dropShadow_10427_518673" result="effect2_dropShadow_10427_518673"/>
<feBlend mode="normal" in="SourceGraphic" in2="effect2_dropShadow_10427_518673" result="shape"/>
</filter>
<filter id="filter9_dd_10427_518673" x="431" y="437" width="58" height="58" filterUnits="userSpaceOnUse" color-interpolation-filters="sRGB">
<feFlood flood-opacity="0" result="BackgroundImageFix"/>
<feColorMatrix in="SourceAlpha" type="matrix" values="0 0 0 0 0 0 0 0 0 0 0 0 0 0 0 0 0 0 127 0" result="hardAlpha"/>
<feOffset dy="8"/>
<feGaussianBlur stdDeviation="8"/>
<feColorMatrix type="matrix" values="0 0 0 0 0.423529 0 0 0 0 0.521569 0 0 0 0 0.623529 0 0 0 0.1 0"/>
<feBlend mode="multiply" in2="BackgroundImageFix" result="effect1_dropShadow_10427_518673"/>
<feColorMatrix in="SourceAlpha" type="matrix" values="0 0 0 0 0 0 0 0 0 0 0 0 0 0 0 0 0 0 127 0" result="hardAlpha"/>
<feOffset dy="4"/>
<feGaussianBlur stdDeviation="4"/>
<feColorMatrix type="matrix" values="0 0 0 0 0.423529 0 0 0 0 0.521569 0 0 0 0 0.623529 0 0 0 0.1 0"/>
<feBlend mode="multiply" in2="effect1_dropShadow_10427_518673" result="effect2_dropShadow_10427_518673"/>
<feBlend mode="normal" in="SourceGraphic" in2="effect2_dropShadow_10427_518673" result="shape"/>
</filter>
<filter id="filter10_dd_10427_518673" x="412" y="532" width="58" height="58" filterUnits="userSpaceOnUse" color-interpolation-filters="sRGB">
<feFlood flood-opacity="0" result="BackgroundImageFix"/>
<feColorMatrix in="SourceAlpha" type="matrix" values="0 0 0 0 0 0 0 0 0 0 0 0 0 0 0 0 0 0 127 0" result="hardAlpha"/>
<feOffset dy="8"/>
<feGaussianBlur stdDeviation="8"/>
<feColorMatrix type="matrix" values="0 0 0 0 0.423529 0 0 0 0 0.521569 0 0 0 0 0.623529 0 0 0 0.1 0"/>
<feBlend mode="multiply" in2="BackgroundImageFix" result="effect1_dropShadow_10427_518673"/>
<feColorMatrix in="SourceAlpha" type="matrix" values="0 0 0 0 0 0 0 0 0 0 0 0 0 0 0 0 0 0 127 0" result="hardAlpha"/>
<feOffset dy="4"/>
<feGaussianBlur stdDeviation="4"/>
<feColorMatrix type="matrix" values="0 0 0 0 0.423529 0 0 0 0 0.521569 0 0 0 0 0.623529 0 0 0 0.1 0"/>
<feBlend mode="multiply" in2="effect1_dropShadow_10427_518673" result="effect2_dropShadow_10427_518673"/>
<feBlend mode="normal" in="SourceGraphic" in2="effect2_dropShadow_10427_518673" result="shape"/>
</filter>
<filter id="filter11_dd_10427_518673" x="375" y="240" width="58" height="58" filterUnits="userSpaceOnUse" color-interpolation-filters="sRGB">
<feFlood flood-opacity="0" result="BackgroundImageFix"/>
<feColorMatrix in="SourceAlpha" type="matrix" values="0 0 0 0 0 0 0 0 0 0 0 0 0 0 0 0 0 0 127 0" result="hardAlpha"/>
<feOffset dy="8"/>
<feGaussianBlur stdDeviation="8"/>
<feColorMatrix type="matrix" values="0 0 0 0 0.423529 0 0 0 0 0.521569 0 0 0 0 0.623529 0 0 0 0.1 0"/>
<feBlend mode="multiply" in2="BackgroundImageFix" result="effect1_dropShadow_10427_518673"/>
<feColorMatrix in="SourceAlpha" type="matrix" values="0 0 0 0 0 0 0 0 0 0 0 0 0 0 0 0 0 0 127 0" result="hardAlpha"/>
<feOffset dy="4"/>
<feGaussianBlur stdDeviation="4"/>
<feColorMatrix type="matrix" values="0 0 0 0 0.423529 0 0 0 0 0.521569 0 0 0 0 0.623529 0 0 0 0.1 0"/>
<feBlend mode="multiply" in2="effect1_dropShadow_10427_518673" result="effect2_dropShadow_10427_518673"/>
<feBlend mode="normal" in="SourceGraphic" in2="effect2_dropShadow_10427_518673" result="shape"/>
</filter>
<clipPath id="clip0_10427_518673">
<rect width="1920" height="600" fill="white"/>
</clipPath>
</defs>
</svg>
