<svg width="1920" height="600" viewBox="0 0 1920 600" fill="none" xmlns="http://www.w3.org/2000/svg">
<g clip-path="url(#clip0_10427_506111)">
<path d="M328.5 310.5C330.681 313.466 330.279 322.009 332.461 324.736C333.495 326.028 334.963 326.947 335.734 328.488C338.62 334.261 335.893 338.643 335.893 344.65C335.893 347.162 337.545 347.459 339.086 349C340.828 350.743 340.203 353.47 340.203 355.785C340.203 358.302 338.86 360.703 338.767 363.128C338.622 366.899 343.795 366.931 343.795 369.833C343.795 374.518 340.022 381.397 337.689 385.596C336.993 386.85 337.268 390.073 338.407 390.984C339.921 392.195 339.485 398.507 339.485 400.163C339.485 404.83 342.358 407.042 342.358 411.856C342.358 414.331 342.584 416.963 343.117 419.359C343.763 422.266 347.387 421.91 347.387 424.746C347.387 430.111 349.712 430.198 353.692 432.648C358.624 435.683 357.672 441.417 361.435 445.179C362.473 446.218 363.784 447.49 364.986 448.452C366.646 449.78 366.288 454.233 366.942 456.194C368.364 460.462 370.947 466.098 368.578 470.362C366.679 473.779 376.203 478.762 376.799 482.933C377.402 487.149 381.048 490.605 382.426 494.586C384.5 500.577 381.506 506.363 384.023 512.026C384.944 514.099 386.653 515.609 387.614 517.773C388.533 519.84 390.721 522.483 392.483 523.879C394.121 525.175 396.149 529.397 396.235 531.621C396.332 534.15 394.923 535.987 394.798 538.246C394.646 540.983 393.336 543.897 394.239 546.706C395.275 549.929 396.737 554.475 396.195 558C395.807 560.521 391.857 564.173 390.129 565.902C388.53 567.501 389.051 569.887 389.051 572.008C389.051 574.811 390.488 577.428 390.488 580.469C390.488 583.342 390.006 585.806 388.692 588.171C387.766 589.838 387.614 594.204 387.614 596.033C387.614 597.88 386.553 599.299 386.218 601.141C385.8 603.435 386.284 605.435 385.1 607.566C383.742 610.01 381.448 611.717 380.112 614.391C378.847 616.92 378.208 618.477 379.713 621.015C381.944 624.782 380.099 630.763 378.675 634.425" stroke="#FF6F00" stroke-width="4"/>
<path d="M287 361.001C287.241 359.554 289.725 357.867 294.5 352.001C295.453 350.831 298.072 343.653 299 342.501C303.065 337.455 306.419 336.875 306.5 335.501C306.805 330.321 309.294 323.276 313.265 320.188C315.445 318.492 316.901 316.277 320.089 316.277C322.723 316.277 325.118 314.734 325.118 311.967" stroke="#FF6F00" stroke-width="4"/>
<path d="M168.369 140.582C174.508 145.233 179.975 149.765 184.283 156.227C185.509 158.066 188.005 160.218 189.623 161.836C191.599 163.812 192.542 166.606 193.032 169.297C193.914 174.151 192.522 179.364 192.522 184.298C192.522 188.252 201.914 187.557 203.873 188.646C205.98 189.816 209.149 189.091 211.119 191.061C213.182 193.124 217.003 192.956 219.572 194.308C223.265 196.251 222.645 197.893 224.188 201.42C225.573 204.585 226.3 205.794 229.717 205.794C232.223 205.794 234.212 204.431 236.211 207.001C237.483 208.637 238.961 210.917 239.163 212.932C239.527 216.578 241.035 216.683 243.457 219.105C245.904 221.552 248.458 221.389 251.454 222.808C253.973 224.001 255.085 227.725 256.392 229.946C256.706 230.48 258.11 230.912 258.7 230.912C260.29 230.912 260.26 231.485 261.356 232.362C261.861 232.765 261.987 234.867 262.108 235.528C262.339 236.799 263.384 237.883 263.53 239.124C263.767 241.142 268.844 241.187 268.844 243.713C268.844 245.846 269.5 247.851 270.4 249.751C271.29 251.629 273.549 255.492 275.338 256.514C277.452 257.722 276.986 259.895 280.061 259.895C281.77 259.895 287.301 259.159 288.166 261.103C288.967 262.907 289.147 265.824 290.796 266.873C293.198 268.402 296.29 268.829 298.793 270.147C301.01 271.314 301.926 274.06 303.865 275.568C306.054 277.271 306.091 279.12 306.897 281.74C308.558 287.139 310.779 291.383 316.183 294.085C318.345 295.166 319.891 297.417 321.711 299.237C323.079 300.606 325.726 302.052 326.327 303.853" stroke="#FF6F00" stroke-width="4"/>
<path d="M239.795 334.954C242.715 334.846 248.57 336.025 251.089 334.555C254.182 332.751 256.856 329.227 259.39 326.693C262.413 323.671 266.379 322.646 270.365 321.465C271.846 321.027 273.69 321.306 275.233 321.306C277.526 321.306 279.382 319.869 281.619 319.869C285.221 319.869 288.564 319.728 292.234 319.869C294.853 319.97 298.439 321.681 301.054 320.228C303.275 318.994 307.47 317.849 310.034 317.714C313.013 317.557 315.676 315.286 318.295 314.122C321.603 312.652 325.045 312.87 326.556 309.094" stroke="#FF6F00" stroke-width="4"/>
<path d="M328.5 310.5C330.681 313.466 330.279 322.009 332.461 324.736C333.495 326.028 334.963 326.947 335.734 328.488C338.62 334.261 335.893 338.643 335.893 344.65C335.893 347.162 337.545 347.459 339.086 349C340.828 350.743 340.203 353.47 340.203 355.785C340.203 358.302 338.86 360.703 338.767 363.128C338.622 366.899 343.795 366.931 343.795 369.833C343.795 374.518 340.022 381.397 337.689 385.596C336.993 386.85 337.268 390.073 338.407 390.984C339.921 392.195 339.485 398.507 339.485 400.163C339.485 404.83 342.358 407.042 342.358 411.856C342.358 414.331 342.584 416.963 343.117 419.359C343.763 422.266 347.387 421.91 347.387 424.746C347.387 430.111 349.712 430.198 353.692 432.648C358.624 435.683 357.672 441.417 361.435 445.179C362.473 446.218 363.784 447.49 364.986 448.452C366.646 449.78 366.288 454.233 366.942 456.194C368.364 460.462 370.947 466.098 368.578 470.362C366.679 473.779 376.203 478.762 376.799 482.933C377.402 487.149 381.048 490.605 382.426 494.586C384.5 500.577 381.506 506.363 384.023 512.026C384.944 514.099 386.653 515.609 387.614 517.773C388.533 519.84 390.721 522.483 392.483 523.879C394.121 525.175 396.149 529.397 396.235 531.621C396.332 534.15 394.923 535.987 394.798 538.246C394.646 540.983 393.336 543.897 394.239 546.706C395.275 549.929 396.737 554.475 396.195 558C395.807 560.521 391.857 564.173 390.129 565.902C388.53 567.501 389.051 569.887 389.051 572.008C389.051 574.811 390.488 577.428 390.488 580.469C390.488 583.342 390.006 585.806 388.692 588.171C387.766 589.838 387.614 594.204 387.614 596.033C387.614 597.88 386.553 599.299 386.218 601.141C385.8 603.435 386.284 605.435 385.1 607.566C383.742 610.01 381.448 611.717 380.112 614.391C378.847 616.92 378.208 618.477 379.713 621.015C381.944 624.782 380.099 630.763 378.675 634.425" stroke="white"/>
<path d="M287 361.001C287.241 359.554 289.725 357.867 294.5 352.001C295.453 350.831 298.072 343.653 299 342.501C303.065 337.455 306.419 336.875 306.5 335.501C306.805 330.321 309.294 323.276 313.265 320.188C315.445 318.492 316.901 316.277 320.089 316.277C322.723 316.277 325.118 314.734 325.118 311.967" stroke="white"/>
<path d="M168.369 140.582C174.508 145.233 179.975 149.765 184.283 156.227C185.509 158.066 188.005 160.218 189.623 161.836C191.599 163.812 192.542 166.606 193.032 169.297C193.914 174.151 192.522 179.364 192.522 184.298C192.522 188.252 201.914 187.557 203.873 188.646C205.98 189.816 209.149 189.091 211.119 191.061C213.182 193.124 217.003 192.956 219.572 194.308C223.265 196.251 222.645 197.893 224.188 201.42C225.573 204.585 226.3 205.794 229.717 205.794C232.223 205.794 234.212 204.431 236.211 207.001C237.483 208.637 238.961 210.917 239.163 212.932C239.527 216.578 241.035 216.683 243.457 219.105C245.904 221.552 248.458 221.389 251.454 222.808C253.973 224.001 255.085 227.725 256.392 229.946C256.706 230.48 258.11 230.912 258.7 230.912C260.29 230.912 260.26 231.485 261.356 232.362C261.861 232.765 261.987 234.867 262.108 235.528C262.339 236.799 263.384 237.883 263.53 239.124C263.767 241.142 268.844 241.187 268.844 243.713C268.844 245.846 269.5 247.851 270.4 249.751C271.29 251.629 273.549 255.492 275.338 256.514C277.452 257.722 276.986 259.895 280.061 259.895C281.77 259.895 287.301 259.159 288.166 261.103C288.967 262.907 289.147 265.824 290.796 266.873C293.198 268.402 296.29 268.829 298.793 270.147C301.01 271.314 301.926 274.06 303.865 275.568C306.054 277.271 306.091 279.12 306.897 281.74C308.558 287.139 310.779 291.383 316.183 294.085C318.345 295.166 319.891 297.417 321.711 299.237C323.079 300.606 325.726 302.052 326.327 303.853" stroke="white"/>
<path d="M239.795 334.954C242.715 334.846 248.57 336.025 251.089 334.555C254.182 332.751 256.856 329.227 259.39 326.693C262.413 323.671 266.379 322.646 270.365 321.465C271.846 321.027 273.69 321.306 275.233 321.306C277.526 321.306 279.382 319.869 281.619 319.869C285.221 319.869 288.564 319.728 292.234 319.869C294.853 319.97 298.439 321.681 301.054 320.228C303.275 318.994 307.47 317.849 310.034 317.714C313.013 317.557 315.676 315.286 318.295 314.122C321.603 312.652 325.045 312.87 326.556 309.094" stroke="white"/>
<g filter="url(#filter0_dd_10427_506111)">
<rect x="384" y="519" width="24" height="24" rx="4" fill="#FF6F00"/>
<path d="M397.666 522.666C400.427 522.666 402.666 524.938 402.666 527.741C402.666 530.543 400.427 532.816 397.666 532.816H393.777V534.821H399.333C399.948 534.821 400.444 535.325 400.444 535.949C400.444 536.573 399.948 537.077 399.333 537.077H393.777V538.205C393.777 538.829 393.281 539.333 392.666 539.333C392.053 539.333 391.555 538.829 391.555 538.205V537.077H390.444C389.831 537.077 389.333 536.573 389.333 535.949C389.333 535.325 389.831 534.821 390.444 534.821H391.555V532.816H390.444C389.831 532.816 389.333 532.312 389.333 531.689C389.333 531.065 389.831 530.561 390.444 530.561H391.555V523.794C391.555 523.171 392.053 522.666 392.666 522.666H397.666ZM400.444 527.741C400.444 526.183 399.201 524.922 397.666 524.922H393.777V530.561H397.666C399.201 530.561 400.444 529.299 400.444 527.741Z" fill="white"/>
<rect x="383.5" y="518.5" width="25" height="25" rx="4.5" stroke="white"/>
</g>
<g filter="url(#filter1_dd_10427_506111)">
<rect x="357" y="454" width="24" height="24" rx="4" fill="#FF6F00"/>
<path d="M370.666 457.666C373.427 457.666 375.666 459.938 375.666 462.741C375.666 465.543 373.427 467.816 370.666 467.816H366.777V469.821H372.333C372.948 469.821 373.444 470.325 373.444 470.949C373.444 471.573 372.948 472.077 372.333 472.077H366.777V473.205C366.777 473.829 366.281 474.333 365.666 474.333C365.053 474.333 364.555 473.829 364.555 473.205V472.077H363.444C362.831 472.077 362.333 471.573 362.333 470.949C362.333 470.325 362.831 469.821 363.444 469.821H364.555V467.816H363.444C362.831 467.816 362.333 467.312 362.333 466.689C362.333 466.065 362.831 465.561 363.444 465.561H364.555V458.794C364.555 458.171 365.053 457.666 365.666 457.666H370.666ZM373.444 462.741C373.444 461.183 372.201 459.922 370.666 459.922H366.777V465.561H370.666C372.201 465.561 373.444 464.299 373.444 462.741Z" fill="white"/>
<rect x="356.5" y="453.5" width="25" height="25" rx="4.5" stroke="white"/>
</g>
<g filter="url(#filter2_dd_10427_506111)">
<rect x="330" y="376" width="24" height="24" rx="4" fill="#FF6F00"/>
<path d="M343.666 379.666C346.427 379.666 348.666 381.938 348.666 384.741C348.666 387.543 346.427 389.816 343.666 389.816H339.777V391.821H345.333C345.948 391.821 346.444 392.325 346.444 392.949C346.444 393.573 345.948 394.077 345.333 394.077H339.777V395.205C339.777 395.829 339.281 396.333 338.666 396.333C338.053 396.333 337.555 395.829 337.555 395.205V394.077H336.444C335.831 394.077 335.333 393.573 335.333 392.949C335.333 392.325 335.831 391.821 336.444 391.821H337.555V389.816H336.444C335.831 389.816 335.333 389.312 335.333 388.689C335.333 388.065 335.831 387.561 336.444 387.561H337.555V380.794C337.555 380.171 338.053 379.666 338.666 379.666H343.666ZM346.444 384.741C346.444 383.183 345.201 381.922 343.666 381.922H339.777V387.561H343.666C345.201 387.561 346.444 386.299 346.444 384.741Z" fill="white"/>
<rect x="329.5" y="375.5" width="25" height="25" rx="4.5" stroke="white"/>
</g>
<g filter="url(#filter3_dd_10427_506111)">
<rect x="277" y="347" width="24" height="24" rx="4" fill="#FF6F00"/>
<path d="M290.666 350.666C293.427 350.666 295.666 352.938 295.666 355.741C295.666 358.543 293.427 360.816 290.666 360.816H286.777V362.821H292.333C292.948 362.821 293.444 363.325 293.444 363.949C293.444 364.573 292.948 365.077 292.333 365.077H286.777V366.205C286.777 366.829 286.281 367.333 285.666 367.333C285.053 367.333 284.555 366.829 284.555 366.205V365.077H283.444C282.831 365.077 282.333 364.573 282.333 363.949C282.333 363.325 282.831 362.821 283.444 362.821H284.555V360.816H283.444C282.831 360.816 282.333 360.312 282.333 359.689C282.333 359.065 282.831 358.561 283.444 358.561H284.555V351.794C284.555 351.171 285.053 350.666 285.666 350.666H290.666ZM293.444 355.741C293.444 354.183 292.201 352.922 290.666 352.922H286.777V358.561H290.666C292.201 358.561 293.444 357.299 293.444 355.741Z" fill="white"/>
<rect x="276.5" y="346.5" width="25" height="25" rx="4.5" stroke="white"/>
</g>
<g filter="url(#filter4_dd_10427_506111)">
<rect x="240" y="318" width="24" height="24" rx="4" fill="#FF6F00"/>
<path d="M253.666 321.666C256.427 321.666 258.666 323.938 258.666 326.741C258.666 329.543 256.427 331.816 253.666 331.816H249.777V333.821H255.333C255.948 333.821 256.444 334.325 256.444 334.949C256.444 335.573 255.948 336.077 255.333 336.077H249.777V337.205C249.777 337.829 249.281 338.333 248.666 338.333C248.053 338.333 247.555 337.829 247.555 337.205V336.077H246.444C245.831 336.077 245.333 335.573 245.333 334.949C245.333 334.325 245.831 333.821 246.444 333.821H247.555V331.816H246.444C245.831 331.816 245.333 331.312 245.333 330.689C245.333 330.065 245.831 329.561 246.444 329.561H247.555V322.794C247.555 322.171 248.053 321.666 248.666 321.666H253.666ZM256.444 326.741C256.444 325.183 255.201 323.922 253.666 323.922H249.777V329.561H253.666C255.201 329.561 256.444 328.299 256.444 326.741Z" fill="white"/>
<rect x="239.5" y="317.5" width="25" height="25" rx="4.5" stroke="white"/>
</g>
<g filter="url(#filter5_dd_10427_506111)">
<rect x="292" y="260" width="24" height="24" rx="4" fill="#FF6F00"/>
<path d="M305.666 263.666C308.427 263.666 310.666 265.938 310.666 268.741C310.666 271.543 308.427 273.816 305.666 273.816H301.777V275.821H307.333C307.948 275.821 308.444 276.325 308.444 276.949C308.444 277.573 307.948 278.077 307.333 278.077H301.777V279.205C301.777 279.829 301.281 280.333 300.666 280.333C300.053 280.333 299.555 279.829 299.555 279.205V278.077H298.444C297.831 278.077 297.333 277.573 297.333 276.949C297.333 276.325 297.831 275.821 298.444 275.821H299.555V273.816H298.444C297.831 273.816 297.333 273.312 297.333 272.689C297.333 272.065 297.831 271.561 298.444 271.561H299.555V264.794C299.555 264.171 300.053 263.666 300.666 263.666H305.666ZM308.444 268.741C308.444 267.183 307.201 265.922 305.666 265.922H301.777V271.561H305.666C307.201 271.561 308.444 270.299 308.444 268.741Z" fill="white"/>
<rect x="291.5" y="259.5" width="25" height="25" rx="4.5" stroke="white"/>
</g>
<g filter="url(#filter6_dd_10427_506111)">
<rect x="211" y="191" width="24" height="24" rx="4" fill="#FF6F00"/>
<path d="M224.666 194.666C227.427 194.666 229.666 196.938 229.666 199.741C229.666 202.543 227.427 204.816 224.666 204.816H220.777V206.821H226.333C226.948 206.821 227.444 207.325 227.444 207.949C227.444 208.573 226.948 209.077 226.333 209.077H220.777V210.205C220.777 210.829 220.281 211.333 219.666 211.333C219.053 211.333 218.555 210.829 218.555 210.205V209.077H217.444C216.831 209.077 216.333 208.573 216.333 207.949C216.333 207.325 216.831 206.821 217.444 206.821H218.555V204.816H217.444C216.831 204.816 216.333 204.312 216.333 203.689C216.333 203.065 216.831 202.561 217.444 202.561H218.555V195.794C218.555 195.171 219.053 194.666 219.666 194.666H224.666ZM227.444 199.741C227.444 198.183 226.201 196.922 224.666 196.922H220.777V202.561H224.666C226.201 202.561 227.444 201.299 227.444 199.741Z" fill="white"/>
<rect x="210.5" y="190.5" width="25" height="25" rx="4.5" stroke="white"/>
</g>
<g filter="url(#filter7_dd_10427_506111)">
<rect x="252" y="220" width="24" height="24" rx="4" fill="#FF6F00"/>
<path d="M265.666 223.666C268.427 223.666 270.666 225.938 270.666 228.741C270.666 231.543 268.427 233.816 265.666 233.816H261.777V235.821H267.333C267.948 235.821 268.444 236.325 268.444 236.949C268.444 237.573 267.948 238.077 267.333 238.077H261.777V239.205C261.777 239.829 261.281 240.333 260.666 240.333C260.053 240.333 259.555 239.829 259.555 239.205V238.077H258.444C257.831 238.077 257.333 237.573 257.333 236.949C257.333 236.325 257.831 235.821 258.444 235.821H259.555V233.816H258.444C257.831 233.816 257.333 233.312 257.333 232.689C257.333 232.065 257.831 231.561 258.444 231.561H259.555V224.794C259.555 224.171 260.053 223.666 260.666 223.666H265.666ZM268.444 228.741C268.444 227.183 267.201 225.922 265.666 225.922H261.777V231.561H265.666C267.201 231.561 268.444 230.299 268.444 228.741Z" fill="white"/>
<rect x="251.5" y="219.5" width="25" height="25" rx="4.5" stroke="white"/>
</g>
<g filter="url(#filter8_dd_10427_506111)">
<rect x="166" y="137" width="24" height="24" rx="4" fill="#FF6F00"/>
<path d="M179.666 140.666C182.427 140.666 184.666 142.938 184.666 145.741C184.666 148.543 182.427 150.816 179.666 150.816H175.777V152.821H181.333C181.948 152.821 182.444 153.325 182.444 153.949C182.444 154.573 181.948 155.077 181.333 155.077H175.777V156.205C175.777 156.829 175.281 157.333 174.666 157.333C174.053 157.333 173.555 156.829 173.555 156.205V155.077H172.444C171.831 155.077 171.333 154.573 171.333 153.949C171.333 153.325 171.831 152.821 172.444 152.821H173.555V150.816H172.444C171.831 150.816 171.333 150.312 171.333 149.689C171.333 149.065 171.831 148.561 172.444 148.561H173.555V141.794C173.555 141.171 174.053 140.666 174.666 140.666H179.666ZM182.444 145.741C182.444 144.183 181.201 142.922 179.666 142.922H175.777V148.561H179.666C181.201 148.561 182.444 147.299 182.444 145.741Z" fill="white"/>
<rect x="165.5" y="136.5" width="25" height="25" rx="4.5" stroke="white"/>
</g>
<g filter="url(#filter9_dd_10427_506111)">
<rect x="306" y="303" width="24" height="24" rx="4" fill="#FF6F00"/>
<path d="M319.666 306.666C322.427 306.666 324.666 308.938 324.666 311.741C324.666 314.543 322.427 316.816 319.666 316.816H315.777V318.821H321.333C321.948 318.821 322.444 319.325 322.444 319.949C322.444 320.573 321.948 321.077 321.333 321.077H315.777V322.205C315.777 322.829 315.281 323.333 314.666 323.333C314.053 323.333 313.555 322.829 313.555 322.205V321.077H312.444C311.831 321.077 311.333 320.573 311.333 319.949C311.333 319.325 311.831 318.821 312.444 318.821H313.555V316.816H312.444C311.831 316.816 311.333 316.312 311.333 315.689C311.333 315.065 311.831 314.561 312.444 314.561H313.555V307.794C313.555 307.171 314.053 306.666 314.666 306.666H319.666ZM322.444 311.741C322.444 310.183 321.201 308.922 319.666 308.922H315.777V314.561H319.666C321.201 314.561 322.444 313.299 322.444 311.741Z" fill="white"/>
<rect x="305.5" y="302.5" width="25" height="25" rx="4.5" stroke="white"/>
</g>
<g filter="url(#filter10_dd_10427_506111)">
<rect x="380" y="567" width="24" height="24" rx="4" fill="#FF6F00"/>
<path d="M393.666 570.666C396.427 570.666 398.666 572.938 398.666 575.741C398.666 578.543 396.427 580.816 393.666 580.816H389.777V582.821H395.333C395.948 582.821 396.444 583.325 396.444 583.949C396.444 584.573 395.948 585.077 395.333 585.077H389.777V586.205C389.777 586.829 389.281 587.333 388.666 587.333C388.053 587.333 387.555 586.829 387.555 586.205V585.077H386.444C385.831 585.077 385.333 584.573 385.333 583.949C385.333 583.325 385.831 582.821 386.444 582.821H387.555V580.816H386.444C385.831 580.816 385.333 580.312 385.333 579.689C385.333 579.065 385.831 578.561 386.444 578.561H387.555V571.794C387.555 571.171 388.053 570.666 388.666 570.666H393.666ZM396.444 575.741C396.444 574.183 395.201 572.922 393.666 572.922H389.777V578.561H393.666C395.201 578.561 396.444 577.299 396.444 575.741Z" fill="white"/>
<rect x="379.5" y="566.5" width="25" height="25" rx="4.5" stroke="white"/>
</g>
</g>
<defs>
<filter id="filter0_dd_10427_506111" x="367" y="510" width="58" height="58" filterUnits="userSpaceOnUse" color-interpolation-filters="sRGB">
<feFlood flood-opacity="0" result="BackgroundImageFix"/>
<feColorMatrix in="SourceAlpha" type="matrix" values="0 0 0 0 0 0 0 0 0 0 0 0 0 0 0 0 0 0 127 0" result="hardAlpha"/>
<feOffset dy="8"/>
<feGaussianBlur stdDeviation="8"/>
<feColorMatrix type="matrix" values="0 0 0 0 0.423529 0 0 0 0 0.521569 0 0 0 0 0.623529 0 0 0 0.1 0"/>
<feBlend mode="multiply" in2="BackgroundImageFix" result="effect1_dropShadow_10427_506111"/>
<feColorMatrix in="SourceAlpha" type="matrix" values="0 0 0 0 0 0 0 0 0 0 0 0 0 0 0 0 0 0 127 0" result="hardAlpha"/>
<feOffset dy="4"/>
<feGaussianBlur stdDeviation="4"/>
<feColorMatrix type="matrix" values="0 0 0 0 0.423529 0 0 0 0 0.521569 0 0 0 0 0.623529 0 0 0 0.1 0"/>
<feBlend mode="multiply" in2="effect1_dropShadow_10427_506111" result="effect2_dropShadow_10427_506111"/>
<feBlend mode="normal" in="SourceGraphic" in2="effect2_dropShadow_10427_506111" result="shape"/>
</filter>
<filter id="filter1_dd_10427_506111" x="340" y="445" width="58" height="58" filterUnits="userSpaceOnUse" color-interpolation-filters="sRGB">
<feFlood flood-opacity="0" result="BackgroundImageFix"/>
<feColorMatrix in="SourceAlpha" type="matrix" values="0 0 0 0 0 0 0 0 0 0 0 0 0 0 0 0 0 0 127 0" result="hardAlpha"/>
<feOffset dy="8"/>
<feGaussianBlur stdDeviation="8"/>
<feColorMatrix type="matrix" values="0 0 0 0 0.423529 0 0 0 0 0.521569 0 0 0 0 0.623529 0 0 0 0.1 0"/>
<feBlend mode="multiply" in2="BackgroundImageFix" result="effect1_dropShadow_10427_506111"/>
<feColorMatrix in="SourceAlpha" type="matrix" values="0 0 0 0 0 0 0 0 0 0 0 0 0 0 0 0 0 0 127 0" result="hardAlpha"/>
<feOffset dy="4"/>
<feGaussianBlur stdDeviation="4"/>
<feColorMatrix type="matrix" values="0 0 0 0 0.423529 0 0 0 0 0.521569 0 0 0 0 0.623529 0 0 0 0.1 0"/>
<feBlend mode="multiply" in2="effect1_dropShadow_10427_506111" result="effect2_dropShadow_10427_506111"/>
<feBlend mode="normal" in="SourceGraphic" in2="effect2_dropShadow_10427_506111" result="shape"/>
</filter>
<filter id="filter2_dd_10427_506111" x="313" y="367" width="58" height="58" filterUnits="userSpaceOnUse" color-interpolation-filters="sRGB">
<feFlood flood-opacity="0" result="BackgroundImageFix"/>
<feColorMatrix in="SourceAlpha" type="matrix" values="0 0 0 0 0 0 0 0 0 0 0 0 0 0 0 0 0 0 127 0" result="hardAlpha"/>
<feOffset dy="8"/>
<feGaussianBlur stdDeviation="8"/>
<feColorMatrix type="matrix" values="0 0 0 0 0.423529 0 0 0 0 0.521569 0 0 0 0 0.623529 0 0 0 0.1 0"/>
<feBlend mode="multiply" in2="BackgroundImageFix" result="effect1_dropShadow_10427_506111"/>
<feColorMatrix in="SourceAlpha" type="matrix" values="0 0 0 0 0 0 0 0 0 0 0 0 0 0 0 0 0 0 127 0" result="hardAlpha"/>
<feOffset dy="4"/>
<feGaussianBlur stdDeviation="4"/>
<feColorMatrix type="matrix" values="0 0 0 0 0.423529 0 0 0 0 0.521569 0 0 0 0 0.623529 0 0 0 0.1 0"/>
<feBlend mode="multiply" in2="effect1_dropShadow_10427_506111" result="effect2_dropShadow_10427_506111"/>
<feBlend mode="normal" in="SourceGraphic" in2="effect2_dropShadow_10427_506111" result="shape"/>
</filter>
<filter id="filter3_dd_10427_506111" x="260" y="338" width="58" height="58" filterUnits="userSpaceOnUse" color-interpolation-filters="sRGB">
<feFlood flood-opacity="0" result="BackgroundImageFix"/>
<feColorMatrix in="SourceAlpha" type="matrix" values="0 0 0 0 0 0 0 0 0 0 0 0 0 0 0 0 0 0 127 0" result="hardAlpha"/>
<feOffset dy="8"/>
<feGaussianBlur stdDeviation="8"/>
<feColorMatrix type="matrix" values="0 0 0 0 0.423529 0 0 0 0 0.521569 0 0 0 0 0.623529 0 0 0 0.1 0"/>
<feBlend mode="multiply" in2="BackgroundImageFix" result="effect1_dropShadow_10427_506111"/>
<feColorMatrix in="SourceAlpha" type="matrix" values="0 0 0 0 0 0 0 0 0 0 0 0 0 0 0 0 0 0 127 0" result="hardAlpha"/>
<feOffset dy="4"/>
<feGaussianBlur stdDeviation="4"/>
<feColorMatrix type="matrix" values="0 0 0 0 0.423529 0 0 0 0 0.521569 0 0 0 0 0.623529 0 0 0 0.1 0"/>
<feBlend mode="multiply" in2="effect1_dropShadow_10427_506111" result="effect2_dropShadow_10427_506111"/>
<feBlend mode="normal" in="SourceGraphic" in2="effect2_dropShadow_10427_506111" result="shape"/>
</filter>
<filter id="filter4_dd_10427_506111" x="223" y="309" width="58" height="58" filterUnits="userSpaceOnUse" color-interpolation-filters="sRGB">
<feFlood flood-opacity="0" result="BackgroundImageFix"/>
<feColorMatrix in="SourceAlpha" type="matrix" values="0 0 0 0 0 0 0 0 0 0 0 0 0 0 0 0 0 0 127 0" result="hardAlpha"/>
<feOffset dy="8"/>
<feGaussianBlur stdDeviation="8"/>
<feColorMatrix type="matrix" values="0 0 0 0 0.423529 0 0 0 0 0.521569 0 0 0 0 0.623529 0 0 0 0.1 0"/>
<feBlend mode="multiply" in2="BackgroundImageFix" result="effect1_dropShadow_10427_506111"/>
<feColorMatrix in="SourceAlpha" type="matrix" values="0 0 0 0 0 0 0 0 0 0 0 0 0 0 0 0 0 0 127 0" result="hardAlpha"/>
<feOffset dy="4"/>
<feGaussianBlur stdDeviation="4"/>
<feColorMatrix type="matrix" values="0 0 0 0 0.423529 0 0 0 0 0.521569 0 0 0 0 0.623529 0 0 0 0.1 0"/>
<feBlend mode="multiply" in2="effect1_dropShadow_10427_506111" result="effect2_dropShadow_10427_506111"/>
<feBlend mode="normal" in="SourceGraphic" in2="effect2_dropShadow_10427_506111" result="shape"/>
</filter>
<filter id="filter5_dd_10427_506111" x="275" y="251" width="58" height="58" filterUnits="userSpaceOnUse" color-interpolation-filters="sRGB">
<feFlood flood-opacity="0" result="BackgroundImageFix"/>
<feColorMatrix in="SourceAlpha" type="matrix" values="0 0 0 0 0 0 0 0 0 0 0 0 0 0 0 0 0 0 127 0" result="hardAlpha"/>
<feOffset dy="8"/>
<feGaussianBlur stdDeviation="8"/>
<feColorMatrix type="matrix" values="0 0 0 0 0.423529 0 0 0 0 0.521569 0 0 0 0 0.623529 0 0 0 0.1 0"/>
<feBlend mode="multiply" in2="BackgroundImageFix" result="effect1_dropShadow_10427_506111"/>
<feColorMatrix in="SourceAlpha" type="matrix" values="0 0 0 0 0 0 0 0 0 0 0 0 0 0 0 0 0 0 127 0" result="hardAlpha"/>
<feOffset dy="4"/>
<feGaussianBlur stdDeviation="4"/>
<feColorMatrix type="matrix" values="0 0 0 0 0.423529 0 0 0 0 0.521569 0 0 0 0 0.623529 0 0 0 0.1 0"/>
<feBlend mode="multiply" in2="effect1_dropShadow_10427_506111" result="effect2_dropShadow_10427_506111"/>
<feBlend mode="normal" in="SourceGraphic" in2="effect2_dropShadow_10427_506111" result="shape"/>
</filter>
<filter id="filter6_dd_10427_506111" x="194" y="182" width="58" height="58" filterUnits="userSpaceOnUse" color-interpolation-filters="sRGB">
<feFlood flood-opacity="0" result="BackgroundImageFix"/>
<feColorMatrix in="SourceAlpha" type="matrix" values="0 0 0 0 0 0 0 0 0 0 0 0 0 0 0 0 0 0 127 0" result="hardAlpha"/>
<feOffset dy="8"/>
<feGaussianBlur stdDeviation="8"/>
<feColorMatrix type="matrix" values="0 0 0 0 0.423529 0 0 0 0 0.521569 0 0 0 0 0.623529 0 0 0 0.1 0"/>
<feBlend mode="multiply" in2="BackgroundImageFix" result="effect1_dropShadow_10427_506111"/>
<feColorMatrix in="SourceAlpha" type="matrix" values="0 0 0 0 0 0 0 0 0 0 0 0 0 0 0 0 0 0 127 0" result="hardAlpha"/>
<feOffset dy="4"/>
<feGaussianBlur stdDeviation="4"/>
<feColorMatrix type="matrix" values="0 0 0 0 0.423529 0 0 0 0 0.521569 0 0 0 0 0.623529 0 0 0 0.1 0"/>
<feBlend mode="multiply" in2="effect1_dropShadow_10427_506111" result="effect2_dropShadow_10427_506111"/>
<feBlend mode="normal" in="SourceGraphic" in2="effect2_dropShadow_10427_506111" result="shape"/>
</filter>
<filter id="filter7_dd_10427_506111" x="235" y="211" width="58" height="58" filterUnits="userSpaceOnUse" color-interpolation-filters="sRGB">
<feFlood flood-opacity="0" result="BackgroundImageFix"/>
<feColorMatrix in="SourceAlpha" type="matrix" values="0 0 0 0 0 0 0 0 0 0 0 0 0 0 0 0 0 0 127 0" result="hardAlpha"/>
<feOffset dy="8"/>
<feGaussianBlur stdDeviation="8"/>
<feColorMatrix type="matrix" values="0 0 0 0 0.423529 0 0 0 0 0.521569 0 0 0 0 0.623529 0 0 0 0.1 0"/>
<feBlend mode="multiply" in2="BackgroundImageFix" result="effect1_dropShadow_10427_506111"/>
<feColorMatrix in="SourceAlpha" type="matrix" values="0 0 0 0 0 0 0 0 0 0 0 0 0 0 0 0 0 0 127 0" result="hardAlpha"/>
<feOffset dy="4"/>
<feGaussianBlur stdDeviation="4"/>
<feColorMatrix type="matrix" values="0 0 0 0 0.423529 0 0 0 0 0.521569 0 0 0 0 0.623529 0 0 0 0.1 0"/>
<feBlend mode="multiply" in2="effect1_dropShadow_10427_506111" result="effect2_dropShadow_10427_506111"/>
<feBlend mode="normal" in="SourceGraphic" in2="effect2_dropShadow_10427_506111" result="shape"/>
</filter>
<filter id="filter8_dd_10427_506111" x="149" y="128" width="58" height="58" filterUnits="userSpaceOnUse" color-interpolation-filters="sRGB">
<feFlood flood-opacity="0" result="BackgroundImageFix"/>
<feColorMatrix in="SourceAlpha" type="matrix" values="0 0 0 0 0 0 0 0 0 0 0 0 0 0 0 0 0 0 127 0" result="hardAlpha"/>
<feOffset dy="8"/>
<feGaussianBlur stdDeviation="8"/>
<feColorMatrix type="matrix" values="0 0 0 0 0.423529 0 0 0 0 0.521569 0 0 0 0 0.623529 0 0 0 0.1 0"/>
<feBlend mode="multiply" in2="BackgroundImageFix" result="effect1_dropShadow_10427_506111"/>
<feColorMatrix in="SourceAlpha" type="matrix" values="0 0 0 0 0 0 0 0 0 0 0 0 0 0 0 0 0 0 127 0" result="hardAlpha"/>
<feOffset dy="4"/>
<feGaussianBlur stdDeviation="4"/>
<feColorMatrix type="matrix" values="0 0 0 0 0.423529 0 0 0 0 0.521569 0 0 0 0 0.623529 0 0 0 0.1 0"/>
<feBlend mode="multiply" in2="effect1_dropShadow_10427_506111" result="effect2_dropShadow_10427_506111"/>
<feBlend mode="normal" in="SourceGraphic" in2="effect2_dropShadow_10427_506111" result="shape"/>
</filter>
<filter id="filter9_dd_10427_506111" x="289" y="294" width="58" height="58" filterUnits="userSpaceOnUse" color-interpolation-filters="sRGB">
<feFlood flood-opacity="0" result="BackgroundImageFix"/>
<feColorMatrix in="SourceAlpha" type="matrix" values="0 0 0 0 0 0 0 0 0 0 0 0 0 0 0 0 0 0 127 0" result="hardAlpha"/>
<feOffset dy="8"/>
<feGaussianBlur stdDeviation="8"/>
<feColorMatrix type="matrix" values="0 0 0 0 0.423529 0 0 0 0 0.521569 0 0 0 0 0.623529 0 0 0 0.1 0"/>
<feBlend mode="multiply" in2="BackgroundImageFix" result="effect1_dropShadow_10427_506111"/>
<feColorMatrix in="SourceAlpha" type="matrix" values="0 0 0 0 0 0 0 0 0 0 0 0 0 0 0 0 0 0 127 0" result="hardAlpha"/>
<feOffset dy="4"/>
<feGaussianBlur stdDeviation="4"/>
<feColorMatrix type="matrix" values="0 0 0 0 0.423529 0 0 0 0 0.521569 0 0 0 0 0.623529 0 0 0 0.1 0"/>
<feBlend mode="multiply" in2="effect1_dropShadow_10427_506111" result="effect2_dropShadow_10427_506111"/>
<feBlend mode="normal" in="SourceGraphic" in2="effect2_dropShadow_10427_506111" result="shape"/>
</filter>
<filter id="filter10_dd_10427_506111" x="363" y="558" width="58" height="58" filterUnits="userSpaceOnUse" color-interpolation-filters="sRGB">
<feFlood flood-opacity="0" result="BackgroundImageFix"/>
<feColorMatrix in="SourceAlpha" type="matrix" values="0 0 0 0 0 0 0 0 0 0 0 0 0 0 0 0 0 0 127 0" result="hardAlpha"/>
<feOffset dy="8"/>
<feGaussianBlur stdDeviation="8"/>
<feColorMatrix type="matrix" values="0 0 0 0 0.423529 0 0 0 0 0.521569 0 0 0 0 0.623529 0 0 0 0.1 0"/>
<feBlend mode="multiply" in2="BackgroundImageFix" result="effect1_dropShadow_10427_506111"/>
<feColorMatrix in="SourceAlpha" type="matrix" values="0 0 0 0 0 0 0 0 0 0 0 0 0 0 0 0 0 0 127 0" result="hardAlpha"/>
<feOffset dy="4"/>
<feGaussianBlur stdDeviation="4"/>
<feColorMatrix type="matrix" values="0 0 0 0 0.423529 0 0 0 0 0.521569 0 0 0 0 0.623529 0 0 0 0.1 0"/>
<feBlend mode="multiply" in2="effect1_dropShadow_10427_506111" result="effect2_dropShadow_10427_506111"/>
<feBlend mode="normal" in="SourceGraphic" in2="effect2_dropShadow_10427_506111" result="shape"/>
</filter>
<clipPath id="clip0_10427_506111">
<rect width="1920" height="600" fill="white"/>
</clipPath>
</defs>
</svg>
