<svg width="96" height="75" viewBox="0 0 96 75" fill="none" xmlns="http://www.w3.org/2000/svg">
<path d="M3.85 2.76V3.64C4.43667 3.64667 4.91667 3.76667 5.29 4C5.66333 4.22667 5.93667 4.54 6.11 4.94C6.29 5.33333 6.38 5.78 6.38 6.28C6.38 6.65333 6.33 7.00667 6.23 7.34C6.13667 7.66667 5.98667 7.95333 5.78 8.2C5.57333 8.44667 5.31 8.64 4.99 8.78C4.67667 8.92 4.29667 8.99333 3.85 9V10.1H3.01V9C2.57 8.99333 2.19 8.92 1.87 8.78C1.55 8.64 1.28667 8.44667 1.08 8.2C0.88 7.95333 0.73 7.66667 0.63 7.34C0.53 7.00667 0.48 6.65333 0.48 6.28C0.48 5.91333 0.53 5.57 0.63 5.25C0.73 4.93 0.883333 4.65 1.09 4.41C1.29667 4.17 1.56 3.98333 1.88 3.85C2.2 3.71 2.57667 3.64 3.01 3.64V2.76H3.85ZM3.01 4.38C2.62333 4.38667 2.30667 4.46667 2.06 4.62C1.81333 4.76667 1.63 4.98 1.51 5.26C1.39667 5.54 1.34 5.88 1.34 6.28C1.34 6.7 1.4 7.06 1.52 7.36C1.64667 7.65333 1.83333 7.87667 2.08 8.03C2.33333 8.18333 2.64333 8.26333 3.01 8.27V4.38ZM3.85 8.27C4.23 8.26333 4.54333 8.18333 4.79 8.03C5.03667 7.87 5.22 7.64333 5.34 7.35C5.46 7.05 5.52 6.69333 5.52 6.28C5.52 5.86667 5.46 5.52 5.34 5.24C5.22667 4.96 5.04667 4.75 4.8 4.61C4.56 4.46333 4.24333 4.38667 3.85 4.38V8.27ZM10.8455 10H7.65547V2.86H10.8455V3.62H8.51547V5.89H10.7055V6.65H8.51547V9.23H10.8455V10ZM16.0979 2.86V9.23H16.8279V11.91H15.9979V10H12.2179V11.91H11.3879V9.23H11.8679C12.0612 8.73667 12.2379 8.23333 12.3979 7.72C12.5579 7.20667 12.6912 6.68667 12.7979 6.16C12.9112 5.62667 12.9979 5.08667 13.0579 4.54C13.1246 3.98667 13.1646 3.42667 13.1779 2.86H16.0979ZM13.9679 3.63C13.9479 4.10333 13.9046 4.58667 13.8379 5.08C13.7712 5.56667 13.6846 6.05 13.5779 6.53C13.4779 7.01 13.3579 7.48 13.2179 7.94C13.0846 8.39333 12.9346 8.82333 12.7679 9.23H15.2379V3.63H13.9679ZM21.0213 10H17.8313V2.86H21.0213V3.62H18.6913V5.89H20.8813V6.65H18.6913V9.23H21.0213V10ZM23.8037 2.86C24.5837 2.86 25.1537 3.03667 25.5137 3.39C25.8803 3.74333 26.0637 4.27 26.0637 4.97C26.0637 5.31 26.017 5.62 25.9237 5.9C25.837 6.17333 25.7003 6.41 25.5137 6.61C25.327 6.81 25.087 6.96333 24.7937 7.07C24.5003 7.17 24.1503 7.22 23.7437 7.22H23.1737V10H22.3137V2.86H23.8037ZM23.7637 3.61H23.1737V6.47H23.6537C24.0137 6.47 24.3037 6.42 24.5237 6.32C24.7437 6.22 24.907 6.06 25.0137 5.84C25.127 5.62 25.1837 5.33667 25.1837 4.99C25.1837 4.50333 25.067 4.15333 24.8337 3.94C24.607 3.72 24.2503 3.61 23.7637 3.61ZM30.3123 10L29.6923 7.78H27.6723L27.0523 10H26.1523L28.2023 2.85H29.1523L31.2123 10H30.3123ZM28.8923 4.7C28.8723 4.6 28.8457 4.49 28.8123 4.37C28.7857 4.24333 28.759 4.11667 28.7323 3.99C28.7057 3.86333 28.6857 3.75333 28.6723 3.66C28.6523 3.77333 28.6323 3.89 28.6123 4.01C28.5923 4.13 28.5657 4.25 28.5323 4.37C28.5057 4.48333 28.479 4.59333 28.4523 4.7L27.8523 6.99H29.5023L28.8923 4.7ZM36.0607 10H35.1907V3.65H33.6507C33.6174 4.02333 33.5774 4.42 33.5307 4.84C33.4907 5.26 33.4474 5.67667 33.4007 6.09C33.3607 6.49667 33.3174 6.87667 33.2707 7.23C33.2307 7.58333 33.1907 7.88 33.1507 8.12C33.0774 8.56667 32.9874 8.93667 32.8807 9.23C32.7807 9.51667 32.6407 9.73333 32.4607 9.88C32.2807 10.02 32.0374 10.09 31.7307 10.09C31.6307 10.09 31.534 10.08 31.4407 10.06C31.3474 10.04 31.2674 10.0133 31.2007 9.98V9.24C31.254 9.26667 31.314 9.29 31.3807 9.31C31.454 9.32333 31.5307 9.33 31.6107 9.33C31.764 9.33 31.8874 9.27667 31.9807 9.17C32.074 9.05667 32.1474 8.88667 32.2007 8.66C32.2607 8.43333 32.314 8.15 32.3607 7.81C32.394 7.59 32.4307 7.30667 32.4707 6.96C32.5174 6.60667 32.564 6.21 32.6107 5.77C32.6574 5.32333 32.7074 4.85333 32.7607 4.36C32.814 3.86 32.864 3.36 32.9107 2.86H36.0607V10ZM37.6359 10V2.86H38.4959V5.85H39.2859C39.8059 5.85 40.2326 5.93 40.5659 6.09C40.8993 6.25 41.1459 6.48333 41.3059 6.79C41.4659 7.09 41.5459 7.46 41.5459 7.9C41.5459 8.33333 41.4593 8.70667 41.2859 9.02C41.1193 9.33333 40.8726 9.57667 40.5459 9.75C40.2193 9.91667 39.8159 10 39.3359 10H37.6359ZM39.3059 9.25C39.7526 9.25 40.0893 9.13667 40.3159 8.91C40.5493 8.68333 40.6659 8.34667 40.6659 7.9C40.6659 7.6 40.6126 7.35333 40.5059 7.16C40.4059 6.96667 40.2526 6.82667 40.0459 6.74C39.8393 6.64667 39.5759 6.6 39.2559 6.6H38.4959V9.25H39.3059ZM47.0936 10H46.2336V6.66H43.5936V10H42.7336V2.86H43.5936V5.89H46.2336V2.86H47.0936V10ZM48.6809 10V2.86H49.5409V5.85H50.2609C50.7809 5.85 51.2042 5.93 51.5309 6.09C51.8642 6.25 52.1075 6.48333 52.2609 6.79C52.4209 7.09 52.5009 7.46 52.5009 7.9C52.5009 8.33333 52.4175 8.70667 52.2509 9.02C52.0842 9.33333 51.8375 9.57667 51.5109 9.75C51.1909 9.91667 50.7909 10 50.3109 10H48.6809ZM50.2809 9.25C50.7275 9.25 51.0609 9.13667 51.2809 8.91C51.5075 8.68333 51.6209 8.34667 51.6209 7.9C51.6209 7.6 51.5709 7.35667 51.4709 7.17C51.3709 6.97667 51.2175 6.83667 51.0109 6.75C50.8109 6.65667 50.5509 6.61 50.2309 6.61H49.5409V9.25H50.2809ZM53.5109 10V2.86H54.3709V10H53.5109ZM59.946 0.749999C59.9193 1.08333 59.846 1.36333 59.726 1.59C59.606 1.81 59.4327 1.97667 59.206 2.09C58.9793 2.20333 58.696 2.26 58.356 2.26C58.016 2.26 57.7327 2.20667 57.506 2.1C57.286 1.98667 57.1193 1.82 57.006 1.6C56.8927 1.38 56.8227 1.09667 56.796 0.749999H57.526C57.5593 1.10333 57.6393 1.35333 57.766 1.5C57.8927 1.64667 58.0927 1.72 58.366 1.72C58.6327 1.72 58.8327 1.64333 58.966 1.49C59.0993 1.33667 59.1793 1.09 59.206 0.749999H59.946ZM55.976 2.86H56.796V7.02C56.796 7.14 56.796 7.26667 56.796 7.4C56.796 7.52667 56.7927 7.66 56.786 7.8C56.7793 7.93333 56.7727 8.07333 56.766 8.22C56.7593 8.36 56.7527 8.5 56.746 8.64H56.786L59.666 2.86H60.686V10H59.866V5.78C59.866 5.65333 59.866 5.52 59.866 5.38C59.8727 5.23333 59.8793 5.09 59.886 4.95C59.8927 4.80333 59.8993 4.66333 59.906 4.53C59.9127 4.39667 59.9227 4.27333 59.936 4.16H59.896L56.996 10H55.976V2.86ZM64.3645 10V2.86H68.6645V10H67.8045V3.63H65.2245V10H64.3645ZM71.7529 2.86C72.5329 2.86 73.1029 3.03667 73.4629 3.39C73.8296 3.74333 74.0129 4.27 74.0129 4.97C74.0129 5.31 73.9662 5.62 73.8729 5.9C73.7862 6.17333 73.6496 6.41 73.4629 6.61C73.2762 6.81 73.0362 6.96333 72.7429 7.07C72.4496 7.17 72.0996 7.22 71.6929 7.22H71.1229V10H70.2629V2.86H71.7529ZM71.7129 3.61H71.1229V6.47H71.6029C71.9629 6.47 72.2529 6.42 72.4729 6.32C72.6929 6.22 72.8562 6.06 72.9629 5.84C73.0762 5.62 73.1329 5.33667 73.1329 4.99C73.1329 4.50333 73.0162 4.15333 72.7829 3.94C72.5562 3.72 72.1996 3.61 71.7129 3.61ZM80.0548 6.42C80.0548 6.94667 80.0048 7.43333 79.9048 7.88C79.8048 8.32667 79.6481 8.71667 79.4348 9.05C79.2281 9.38333 78.9648 9.64333 78.6448 9.83C78.3248 10.01 77.9414 10.1 77.4948 10.1C77.0348 10.1 76.6414 10.0067 76.3148 9.82C75.9948 9.63333 75.7281 9.37333 75.5148 9.04C75.3081 8.70667 75.1548 8.31667 75.0548 7.87C74.9614 7.41667 74.9148 6.93 74.9148 6.41C74.9148 5.62333 75.0081 4.96 75.1948 4.42C75.3881 3.87333 75.6748 3.46 76.0548 3.18C76.4414 2.9 76.9214 2.76 77.4948 2.76C78.0881 2.76 78.5714 2.92 78.9448 3.24C79.3248 3.56 79.6048 3.99667 79.7848 4.55C79.9648 5.09667 80.0548 5.72 80.0548 6.42ZM75.8148 6.42C75.8148 7.04667 75.8748 7.57667 75.9948 8.01C76.1214 8.43667 76.3081 8.76333 76.5548 8.99C76.8014 9.21667 77.1114 9.33 77.4848 9.33C77.8581 9.33 78.1648 9.22 78.4048 9C78.6514 8.78 78.8348 8.45333 78.9548 8.02C79.0814 7.58667 79.1448 7.05333 79.1448 6.42C79.1448 5.47333 79.0081 4.75667 78.7348 4.27C78.4681 3.77667 78.0548 3.53 77.4948 3.53C77.1148 3.53 76.7981 3.64 76.5448 3.86C76.2981 4.08 76.1148 4.40667 75.9948 4.84C75.8748 5.26667 75.8148 5.79333 75.8148 6.42ZM84.5662 10H81.3762V2.86H84.5662V3.62H82.2362V5.89H84.4262V6.65H82.2362V9.23H84.5662V10ZM90.0386 10H89.0486L86.7186 6.35V10H85.8586V2.86H86.7186V6.29L88.9686 2.86H89.9186L87.6286 6.3L90.0386 10ZM92.6095 10H91.7595V3.63H90.1195V2.86H94.2495V3.63H92.6095V10ZM0.372 22.676L2.184 20.156L3.204 20.684L1.896 22.76L3.204 24.824L2.184 25.364L0.372 22.844V22.676ZM2.892 22.676L4.716 20.156L5.736 20.684L4.428 22.76L5.736 24.824L4.716 25.364L2.892 22.844V22.676ZM12.9692 21.704C12.9692 22.36 12.9052 22.96 12.7772 23.504C12.6572 24.04 12.4652 24.504 12.2012 24.896C11.9452 25.288 11.6212 25.592 11.2292 25.808C10.8372 26.016 10.3692 26.12 9.82519 26.12C9.28919 26.12 8.82119 26.016 8.42119 25.808C8.02119 25.592 7.69319 25.288 7.43719 24.896C7.18119 24.496 6.98919 24.028 6.86119 23.492C6.74119 22.948 6.68119 22.348 6.68119 21.692C6.68119 20.748 6.79719 19.952 7.02919 19.304C7.26119 18.648 7.60919 18.152 8.07319 17.816C8.54519 17.472 9.12919 17.3 9.82519 17.3C10.5452 17.3 11.1372 17.484 11.6012 17.852C12.0652 18.22 12.4092 18.736 12.6332 19.4C12.8572 20.056 12.9692 20.824 12.9692 21.704ZM8.21719 21.704C8.21719 22.384 8.27319 22.96 8.38519 23.432C8.50519 23.896 8.68519 24.248 8.92519 24.488C9.16519 24.728 9.46519 24.848 9.82519 24.848C10.1852 24.848 10.4812 24.732 10.7132 24.5C10.9532 24.26 11.1292 23.908 11.2412 23.444C11.3612 22.972 11.4212 22.392 11.4212 21.704C11.4212 20.672 11.2892 19.892 11.0252 19.364C10.7692 18.828 10.3692 18.56 9.82519 18.56C9.45719 18.56 9.15319 18.68 8.91319 18.92C8.68119 19.16 8.50519 19.516 8.38519 19.988C8.27319 20.452 8.21719 21.024 8.21719 21.704ZM14.3634 26V17.432H18.6474V18.68H15.8394V20.816H16.3674C16.9994 20.816 17.5234 20.916 17.9394 21.116C18.3554 21.308 18.6634 21.596 18.8634 21.98C19.0634 22.356 19.1634 22.816 19.1634 23.36C19.1634 23.92 19.0594 24.396 18.8514 24.788C18.6434 25.18 18.3314 25.48 17.9154 25.688C17.5074 25.896 17.0074 26 16.4154 26H14.3634ZM16.3554 24.776C16.8034 24.776 17.1354 24.66 17.3514 24.428C17.5754 24.196 17.6874 23.848 17.6874 23.384C17.6874 23.072 17.6354 22.816 17.5314 22.616C17.4354 22.416 17.2874 22.272 17.0874 22.184C16.8874 22.096 16.6314 22.052 16.3194 22.052H15.8394V24.776H16.3554ZM29.9143 24.764V28.436H28.4983V26H20.4103V17.432H21.8863V24.74H23.9263V17.432H25.3903V24.74H27.4303V17.432H28.9063V24.764H29.9143ZM34.9046 26H30.9806V17.432H34.9046V18.668H32.4566V20.924H34.7366V22.16H32.4566V24.752H34.9046V26ZM39.2535 18.56C38.9655 18.56 38.7095 18.64 38.4855 18.8C38.2695 18.952 38.0895 19.172 37.9455 19.46C37.8015 19.748 37.6935 20.084 37.6215 20.468C37.5575 20.852 37.5255 21.272 37.5255 21.728C37.5255 22.392 37.5935 22.96 37.7295 23.432C37.8655 23.896 38.0655 24.252 38.3295 24.5C38.6015 24.748 38.9295 24.872 39.3135 24.872C39.5935 24.872 39.8615 24.832 40.1175 24.752C40.3735 24.672 40.6295 24.576 40.8855 24.464V25.724C40.6295 25.86 40.3575 25.96 40.0695 26.024C39.7815 26.088 39.4695 26.12 39.1335 26.12C38.4535 26.12 37.8815 25.944 37.4175 25.592C36.9535 25.24 36.6015 24.736 36.3615 24.08C36.1215 23.424 36.0015 22.636 36.0015 21.716C36.0015 21.084 36.0695 20.5 36.2055 19.964C36.3415 19.428 36.5455 18.964 36.8175 18.572C37.0895 18.172 37.4215 17.864 37.8135 17.648C38.2135 17.424 38.6735 17.312 39.1935 17.312C39.5375 17.312 39.8735 17.356 40.2015 17.444C40.5375 17.524 40.8495 17.652 41.1375 17.828L40.6815 19.016C40.4655 18.88 40.2375 18.772 39.9975 18.692C39.7575 18.604 39.5095 18.56 39.2535 18.56ZM42.2775 17.432H43.6935V21.776C43.6935 21.92 43.6895 22.076 43.6815 22.244C43.6815 22.412 43.6775 22.584 43.6695 22.76C43.6615 22.936 43.6535 23.112 43.6455 23.288C43.6375 23.464 43.6255 23.636 43.6095 23.804H43.6575L46.5855 17.432H48.3495V26H46.9455V21.608C46.9455 21.456 46.9455 21.292 46.9455 21.116C46.9535 20.94 46.9615 20.76 46.9695 20.576C46.9775 20.392 46.9855 20.212 46.9935 20.036C47.0095 19.86 47.0215 19.696 47.0295 19.544H46.9935L44.0415 26H42.2775V17.432ZM53.0113 18.56C52.7233 18.56 52.4673 18.64 52.2433 18.8C52.0273 18.952 51.8473 19.172 51.7033 19.46C51.5593 19.748 51.4513 20.084 51.3793 20.468C51.3153 20.852 51.2833 21.272 51.2833 21.728C51.2833 22.392 51.3513 22.96 51.4873 23.432C51.6233 23.896 51.8233 24.252 52.0873 24.5C52.3593 24.748 52.6873 24.872 53.0713 24.872C53.3513 24.872 53.6193 24.832 53.8753 24.752C54.1313 24.672 54.3873 24.576 54.6433 24.464V25.724C54.3873 25.86 54.1153 25.96 53.8273 26.024C53.5393 26.088 53.2273 26.12 52.8913 26.12C52.2113 26.12 51.6393 25.944 51.1753 25.592C50.7113 25.24 50.3593 24.736 50.1193 24.08C49.8793 23.424 49.7593 22.636 49.7593 21.716C49.7593 21.084 49.8273 20.5 49.9633 19.964C50.0993 19.428 50.3033 18.964 50.5753 18.572C50.8473 18.172 51.1793 17.864 51.5713 17.648C51.9713 17.424 52.4313 17.312 52.9513 17.312C53.2953 17.312 53.6313 17.356 53.9593 17.444C54.2953 17.524 54.6073 17.652 54.8953 17.828L54.4393 19.016C54.2233 18.88 53.9953 18.772 53.7553 18.692C53.5153 18.604 53.2673 18.56 53.0113 18.56ZM58.5913 26H57.1273V18.68H55.3633V17.432H60.3433V18.68H58.5913V26ZM65.2913 26H61.3673V17.432H65.2913V18.668H62.8433V20.924H65.1233V22.16H62.8433V24.752H65.2913V26ZM69.8442 26L67.9962 19.244H67.9482C67.9642 19.476 67.9762 19.716 67.9842 19.964C68.0002 20.212 68.0122 20.448 68.0202 20.672C68.0282 20.896 68.0322 21.104 68.0322 21.296V26H66.6642V17.432H68.7042L70.4802 23.852H70.5042L72.2922 17.432H74.3202V26H72.9162V21.272C72.9162 21.08 72.9162 20.872 72.9162 20.648C72.9242 20.424 72.9362 20.192 72.9522 19.952C72.9682 19.712 72.9802 19.476 72.9882 19.244H72.9402L71.0682 26H69.8442ZM81.4881 26H80.0121V22.16H77.4801V26H76.0041V17.432H77.4801V20.912H80.0121V17.432H81.4881V26ZM83.1642 26V17.432H84.6402V20.816H85.1562C85.7882 20.816 86.3082 20.916 86.7162 21.116C87.1242 21.316 87.4282 21.604 87.6282 21.98C87.8362 22.356 87.9402 22.816 87.9402 23.36C87.9402 23.912 87.8322 24.388 87.6162 24.788C87.4082 25.18 87.1002 25.48 86.6922 25.688C86.2842 25.896 85.7842 26 85.1922 26H83.1642ZM85.1442 24.776C85.5762 24.776 85.9042 24.66 86.1282 24.428C86.3522 24.196 86.4642 23.848 86.4642 23.384C86.4642 23.072 86.4122 22.816 86.3082 22.616C86.2122 22.416 86.0642 22.272 85.8642 22.184C85.6722 22.096 85.4242 22.052 85.1202 22.052H84.6402V24.776H85.1442ZM88.9122 26V17.432H90.3762V26H88.9122ZM95.9828 26H92.0588V17.432H95.9828V18.668H93.5348V20.924H95.8148V22.16H93.5348V24.752H95.9828V26ZM4.02 42L2.172 35.244H2.124C2.14 35.476 2.152 35.716 2.16 35.964C2.176 36.212 2.188 36.448 2.196 36.672C2.204 36.896 2.208 37.104 2.208 37.296V42H0.84V33.432H2.88L4.656 39.852H4.68L6.468 33.432H8.496V42H7.092V37.272C7.092 37.08 7.092 36.872 7.092 36.648C7.1 36.424 7.112 36.192 7.128 35.952C7.144 35.712 7.156 35.476 7.164 35.244H7.116L5.244 42H4.02ZM14.1038 42H10.1798V33.432H14.1038V34.668H11.6558V36.924H13.9358V38.16H11.6558V40.752H14.1038V42ZM17.5767 33.432C18.4727 33.432 19.1367 33.656 19.5687 34.104C20.0007 34.544 20.2167 35.188 20.2167 36.036C20.2167 36.452 20.1647 36.832 20.0607 37.176C19.9567 37.52 19.7927 37.82 19.5687 38.076C19.3527 38.324 19.0727 38.516 18.7287 38.652C18.3927 38.78 17.9847 38.844 17.5047 38.844H16.9527V42H15.4767V33.432H17.5767ZM17.5047 34.656H16.9527V37.62H17.3607C17.6647 37.62 17.9167 37.568 18.1167 37.464C18.3247 37.36 18.4807 37.196 18.5847 36.972C18.6887 36.74 18.7407 36.44 18.7407 36.072C18.7407 35.576 18.6367 35.216 18.4287 34.992C18.2287 34.768 17.9207 34.656 17.5047 34.656ZM21.465 42V33.432H22.941V36.816H23.457C24.089 36.816 24.609 36.916 25.017 37.116C25.425 37.316 25.729 37.604 25.929 37.98C26.137 38.356 26.241 38.816 26.241 39.36C26.241 39.912 26.133 40.388 25.917 40.788C25.709 41.18 25.401 41.48 24.993 41.688C24.585 41.896 24.085 42 23.493 42H21.465ZM23.445 40.776C23.877 40.776 24.205 40.66 24.429 40.428C24.653 40.196 24.765 39.848 24.765 39.384C24.765 39.072 24.713 38.816 24.609 38.616C24.513 38.416 24.365 38.272 24.165 38.184C23.973 38.096 23.725 38.052 23.421 38.052H22.941V40.776H23.445ZM27.213 42V33.432H28.677V42H27.213ZM34.815 33.432C35.711 33.432 36.375 33.656 36.807 34.104C37.239 34.544 37.455 35.188 37.455 36.036C37.455 36.452 37.403 36.832 37.299 37.176C37.195 37.52 37.031 37.82 36.807 38.076C36.591 38.324 36.311 38.516 35.967 38.652C35.631 38.78 35.223 38.844 34.743 38.844H34.191V42H32.715V33.432H34.815ZM34.743 34.656H34.191V37.62H34.599C34.903 37.62 35.155 37.568 35.355 37.464C35.563 37.36 35.719 37.196 35.823 36.972C35.927 36.74 35.979 36.44 35.979 36.072C35.979 35.576 35.875 35.216 35.667 34.992C35.467 34.768 35.159 34.656 34.743 34.656ZM42.3712 42L41.8432 39.708H39.6472L39.1192 42H37.5352L39.8152 33.42H41.6512L43.9432 42H42.3712ZM41.0152 36.048C40.9752 35.888 40.9392 35.724 40.9072 35.556C40.8752 35.388 40.8432 35.224 40.8112 35.064C40.7872 34.896 40.7632 34.74 40.7392 34.596C40.7232 34.74 40.6992 34.896 40.6672 35.064C40.6352 35.224 40.6032 35.388 40.5712 35.556C40.5392 35.716 40.5032 35.876 40.4632 36.036L39.9232 38.448H41.5672L41.0152 36.048ZM49.1293 35.424C49.1293 35.984 48.9893 36.444 48.7093 36.804C48.4373 37.156 48.0413 37.388 47.5213 37.5V37.536C48.1213 37.608 48.5733 37.824 48.8773 38.184C49.1813 38.536 49.3333 39.012 49.3333 39.612C49.3333 40.1 49.2293 40.536 49.0213 40.92C48.8213 41.296 48.5093 41.592 48.0853 41.808C47.6613 42.016 47.1253 42.12 46.4773 42.12C46.0453 42.12 45.6493 42.084 45.2893 42.012C44.9293 41.948 44.6053 41.848 44.3173 41.712V40.368C44.4933 40.472 44.6893 40.564 44.9053 40.644C45.1293 40.724 45.3573 40.784 45.5893 40.824C45.8213 40.864 46.0413 40.884 46.2493 40.884C46.8013 40.884 47.2053 40.772 47.4613 40.548C47.7173 40.324 47.8453 39.98 47.8453 39.516C47.8453 39.052 47.6893 38.712 47.3773 38.496C47.0733 38.272 46.6293 38.16 46.0453 38.16H45.2893V36.936H45.9973C46.3973 36.936 46.7173 36.892 46.9573 36.804C47.2053 36.708 47.3813 36.564 47.4853 36.372C47.5973 36.18 47.6533 35.936 47.6533 35.64C47.6533 35.28 47.5533 35.008 47.3533 34.824C47.1613 34.64 46.8773 34.548 46.5013 34.548C46.1973 34.548 45.9133 34.604 45.6493 34.716C45.3933 34.82 45.1613 34.968 44.9533 35.16L44.3293 34.128C44.5613 33.944 44.7973 33.792 45.0373 33.672C45.2773 33.552 45.5373 33.464 45.8173 33.408C46.1053 33.344 46.4213 33.312 46.7653 33.312C47.2613 33.312 47.6853 33.4 48.0373 33.576C48.3893 33.752 48.6573 34 48.8413 34.32C49.0333 34.632 49.1293 35 49.1293 35.424ZM52.9702 33.432C53.5702 33.432 54.0662 33.508 54.4582 33.66C54.8582 33.804 55.1582 34.032 55.3582 34.344C55.5582 34.656 55.6582 35.056 55.6582 35.544C55.6582 35.888 55.6102 36.192 55.5142 36.456C55.4182 36.72 55.2782 36.94 55.0942 37.116C54.9102 37.284 54.6942 37.396 54.4462 37.452V37.512C54.7342 37.584 54.9822 37.704 55.1902 37.872C55.3982 38.032 55.5542 38.248 55.6582 38.52C55.7702 38.792 55.8262 39.128 55.8262 39.528C55.8262 40.032 55.7262 40.472 55.5262 40.848C55.3262 41.216 55.0342 41.5 54.6502 41.7C54.2742 41.9 53.8222 42 53.2942 42H50.7502V33.432H52.9702ZM53.0062 36.96C53.4142 36.96 53.7062 36.856 53.8822 36.648C54.0662 36.44 54.1582 36.132 54.1582 35.724C54.1582 35.356 54.0582 35.084 53.8582 34.908C53.6662 34.724 53.3702 34.632 52.9702 34.632H52.2262V36.96H53.0062ZM52.2262 38.124V40.788H53.1502C53.5502 40.788 53.8422 40.672 54.0262 40.44C54.2182 40.2 54.3142 39.86 54.3142 39.42C54.3142 39.14 54.2662 38.908 54.1702 38.724C54.0822 38.532 53.9502 38.384 53.7742 38.28C53.5982 38.176 53.3702 38.124 53.0902 38.124H52.2262ZM57.172 33.432H58.588V37.776C58.588 37.92 58.584 38.076 58.576 38.244C58.576 38.412 58.572 38.584 58.564 38.76C58.556 38.936 58.548 39.112 58.54 39.288C58.532 39.464 58.52 39.636 58.504 39.804H58.552L61.48 33.432H63.244V42H61.84V37.608C61.84 37.456 61.84 37.292 61.84 37.116C61.848 36.94 61.856 36.76 61.864 36.576C61.872 36.392 61.88 36.212 61.888 36.036C61.904 35.86 61.916 35.696 61.924 35.544H61.888L58.936 42H57.172V33.432ZM67.4858 42H66.0218V34.68H64.2578V33.432H69.2378V34.68H67.4858V42ZM70.2619 33.432H71.6779V37.776C71.6779 37.92 71.6739 38.076 71.6659 38.244C71.6659 38.412 71.6619 38.584 71.6539 38.76C71.6459 38.936 71.6379 39.112 71.6299 39.288C71.6219 39.464 71.6099 39.636 71.5939 39.804H71.6419L74.5699 33.432H76.3339V42H74.9299V37.608C74.9299 37.456 74.9299 37.292 74.9299 37.116C74.9379 36.94 74.9459 36.76 74.9539 36.576C74.9619 36.392 74.9699 36.212 74.9779 36.036C74.9939 35.86 75.0059 35.696 75.0139 35.544H74.9779L72.0259 42H70.2619V33.432ZM80.4077 38.58L78.8717 42H77.2397L79.0997 38.232C78.8357 38.104 78.6077 37.936 78.4157 37.728C78.2317 37.512 78.0877 37.252 77.9837 36.948C77.8797 36.636 77.8277 36.292 77.8277 35.916C77.8277 35.092 78.0557 34.472 78.5117 34.056C78.9757 33.64 79.6597 33.432 80.5637 33.432H82.6397V42H81.1637V38.58H80.4077ZM80.6117 34.644C80.3157 34.644 80.0717 34.692 79.8797 34.788C79.6957 34.884 79.5557 35.028 79.4597 35.22C79.3717 35.412 79.3277 35.664 79.3277 35.976C79.3277 36.456 79.4317 36.816 79.6397 37.056C79.8477 37.296 80.1637 37.416 80.5877 37.416H81.1637V34.644H80.6117ZM6.144 49.432V56.74H7.02V60.436H5.604V58H1.488V60.436H0.06V56.74H0.612C0.828 56.196 1.02 55.644 1.188 55.084C1.356 54.516 1.504 53.932 1.632 53.332C1.76 52.724 1.864 52.096 1.944 51.448C2.024 50.8 2.08 50.128 2.112 49.432H6.144ZM3.396 50.668C3.364 51.188 3.312 51.712 3.24 52.24C3.176 52.768 3.088 53.288 2.976 53.8C2.872 54.312 2.752 54.816 2.616 55.312C2.488 55.808 2.34 56.284 2.172 56.74H4.68V50.668H3.396ZM14.0825 53.704C14.0825 54.36 14.0185 54.96 13.8905 55.504C13.7705 56.04 13.5785 56.504 13.3145 56.896C13.0585 57.288 12.7345 57.592 12.3425 57.808C11.9505 58.016 11.4825 58.12 10.9385 58.12C10.4025 58.12 9.93447 58.016 9.53447 57.808C9.13447 57.592 8.80647 57.288 8.55047 56.896C8.29447 56.496 8.10247 56.028 7.97447 55.492C7.85447 54.948 7.79447 54.348 7.79447 53.692C7.79447 52.748 7.91047 51.952 8.14247 51.304C8.37447 50.648 8.72247 50.152 9.18647 49.816C9.65847 49.472 10.2425 49.3 10.9385 49.3C11.6585 49.3 12.2505 49.484 12.7145 49.852C13.1785 50.22 13.5225 50.736 13.7465 51.4C13.9705 52.056 14.0825 52.824 14.0825 53.704ZM9.33047 53.704C9.33047 54.384 9.38647 54.96 9.49847 55.432C9.61847 55.896 9.79847 56.248 10.0385 56.488C10.2785 56.728 10.5785 56.848 10.9385 56.848C11.2985 56.848 11.5945 56.732 11.8265 56.5C12.0665 56.26 12.2425 55.908 12.3545 55.444C12.4745 54.972 12.5345 54.392 12.5345 53.704C12.5345 52.672 12.4025 51.892 12.1385 51.364C11.8825 50.828 11.4825 50.56 10.9385 50.56C10.5705 50.56 10.2665 50.68 10.0265 50.92C9.79447 51.16 9.61847 51.516 9.49847 51.988C9.38647 52.452 9.33047 53.024 9.33047 53.704ZM17.5767 49.432C18.4727 49.432 19.1367 49.656 19.5687 50.104C20.0007 50.544 20.2167 51.188 20.2167 52.036C20.2167 52.452 20.1647 52.832 20.0607 53.176C19.9567 53.52 19.7927 53.82 19.5687 54.076C19.3527 54.324 19.0727 54.516 18.7287 54.652C18.3927 54.78 17.9847 54.844 17.5047 54.844H16.9527V58H15.4767V49.432H17.5767ZM17.5047 50.656H16.9527V53.62H17.3607C17.6647 53.62 17.9167 53.568 18.1167 53.464C18.3247 53.36 18.4807 53.196 18.5847 52.972C18.6887 52.74 18.7407 52.44 18.7407 52.072C18.7407 51.576 18.6367 51.216 18.4287 50.992C18.2287 50.768 17.9207 50.656 17.5047 50.656ZM27.477 53.704C27.477 54.36 27.413 54.96 27.285 55.504C27.165 56.04 26.973 56.504 26.709 56.896C26.453 57.288 26.129 57.592 25.737 57.808C25.345 58.016 24.877 58.12 24.333 58.12C23.797 58.12 23.329 58.016 22.929 57.808C22.529 57.592 22.201 57.288 21.945 56.896C21.689 56.496 21.497 56.028 21.369 55.492C21.249 54.948 21.189 54.348 21.189 53.692C21.189 52.748 21.305 51.952 21.537 51.304C21.769 50.648 22.117 50.152 22.581 49.816C23.053 49.472 23.637 49.3 24.333 49.3C25.053 49.3 25.645 49.484 26.109 49.852C26.573 50.22 26.917 50.736 27.141 51.4C27.365 52.056 27.477 52.824 27.477 53.704ZM22.725 53.704C22.725 54.384 22.781 54.96 22.893 55.432C23.013 55.896 23.193 56.248 23.433 56.488C23.673 56.728 23.973 56.848 24.333 56.848C24.693 56.848 24.989 56.732 25.221 56.5C25.461 56.26 25.637 55.908 25.749 55.444C25.869 54.972 25.929 54.392 25.929 53.704C25.929 52.672 25.797 51.892 25.533 51.364C25.277 50.828 24.877 50.56 24.333 50.56C23.965 50.56 23.661 50.68 23.421 50.92C23.189 51.16 23.013 51.516 22.893 51.988C22.781 52.452 22.725 53.024 22.725 53.704ZM30.2052 53.548L27.9612 49.432H29.5212L31.6932 53.56V49.432H33.1092V53.56L35.2692 49.432H36.8292L34.5732 53.548L36.8892 58H35.2812L33.1092 53.62V58H31.6932V53.62L29.4972 58H27.8892L30.2052 53.548ZM43.1678 58H41.6918V54.16H39.1598V58H37.6838V49.432H39.1598V52.912H41.6918V49.432H43.1678V58ZM50.8559 53.704C50.8559 54.36 50.7919 54.96 50.6639 55.504C50.5439 56.04 50.3519 56.504 50.0879 56.896C49.8319 57.288 49.5079 57.592 49.1159 57.808C48.7239 58.016 48.2559 58.12 47.7119 58.12C47.1759 58.12 46.7079 58.016 46.3079 57.808C45.9079 57.592 45.5799 57.288 45.3239 56.896C45.0679 56.496 44.8759 56.028 44.7479 55.492C44.6279 54.948 44.5679 54.348 44.5679 53.692C44.5679 52.748 44.6839 51.952 44.9159 51.304C45.1479 50.648 45.4959 50.152 45.9599 49.816C46.4319 49.472 47.0159 49.3 47.7119 49.3C48.4319 49.3 49.0239 49.484 49.4879 49.852C49.9519 50.22 50.2959 50.736 50.5199 51.4C50.7439 52.056 50.8559 52.824 50.8559 53.704ZM46.1039 53.704C46.1039 54.384 46.1599 54.96 46.2719 55.432C46.3919 55.896 46.5719 56.248 46.8119 56.488C47.0519 56.728 47.3519 56.848 47.7119 56.848C48.0719 56.848 48.3679 56.732 48.5999 56.5C48.8399 56.26 49.0159 55.908 49.1279 55.444C49.2479 54.972 49.3079 54.392 49.3079 53.704C49.3079 52.672 49.1759 51.892 48.9119 51.364C48.6559 50.828 48.2559 50.56 47.7119 50.56C47.3439 50.56 47.0399 50.68 46.7999 50.92C46.5679 51.16 46.3919 51.516 46.2719 51.988C46.1599 52.452 46.1039 53.024 46.1039 53.704ZM56.3662 49.432V50.68H53.7262V58H52.2502V49.432H56.3662ZM63.3247 53.704C63.3247 54.36 63.2607 54.96 63.1327 55.504C63.0127 56.04 62.8207 56.504 62.5567 56.896C62.3007 57.288 61.9767 57.592 61.5847 57.808C61.1927 58.016 60.7247 58.12 60.1807 58.12C59.6447 58.12 59.1767 58.016 58.7767 57.808C58.3767 57.592 58.0487 57.288 57.7927 56.896C57.5367 56.496 57.3447 56.028 57.2167 55.492C57.0967 54.948 57.0367 54.348 57.0367 53.692C57.0367 52.748 57.1527 51.952 57.3847 51.304C57.6167 50.648 57.9647 50.152 58.4287 49.816C58.9007 49.472 59.4847 49.3 60.1807 49.3C60.9007 49.3 61.4927 49.484 61.9567 49.852C62.4207 50.22 62.7647 50.736 62.9887 51.4C63.2127 52.056 63.3247 52.824 63.3247 53.704ZM58.5727 53.704C58.5727 54.384 58.6287 54.96 58.7407 55.432C58.8607 55.896 59.0407 56.248 59.2807 56.488C59.5207 56.728 59.8207 56.848 60.1807 56.848C60.5407 56.848 60.8367 56.732 61.0687 56.5C61.3087 56.26 61.4847 55.908 61.5967 55.444C61.7167 54.972 61.7767 54.392 61.7767 53.704C61.7767 52.672 61.6447 51.892 61.3807 51.364C61.1247 50.828 60.7247 50.56 60.1807 50.56C59.8127 50.56 59.5087 50.68 59.2687 50.92C59.0367 51.16 58.8607 51.516 58.7407 51.988C58.6287 52.452 58.5727 53.024 58.5727 53.704ZM5.868 74H4.26L2.952 70.796L1.584 74H0.036L2.1 69.584L0.192 65.432H1.764L2.952 68.408L4.128 65.432H5.7L3.804 69.62L5.868 74ZM12.6762 69.704C12.6762 70.36 12.6122 70.96 12.4842 71.504C12.3642 72.04 12.1722 72.504 11.9082 72.896C11.6522 73.288 11.3282 73.592 10.9362 73.808C10.5442 74.016 10.0762 74.12 9.53222 74.12C8.99622 74.12 8.52822 74.016 8.12822 73.808C7.72822 73.592 7.40022 73.288 7.14422 72.896C6.88822 72.496 6.69622 72.028 6.56822 71.492C6.44822 70.948 6.38822 70.348 6.38822 69.692C6.38822 68.748 6.50422 67.952 6.73622 67.304C6.96822 66.648 7.31622 66.152 7.78022 65.816C8.25222 65.472 8.83622 65.3 9.53222 65.3C10.2522 65.3 10.8442 65.484 11.3082 65.852C11.7722 66.22 12.1162 66.736 12.3402 67.4C12.5642 68.056 12.6762 68.824 12.6762 69.704ZM7.92422 69.704C7.92422 70.384 7.98022 70.96 8.09222 71.432C8.21222 71.896 8.39222 72.248 8.63222 72.488C8.87222 72.728 9.17222 72.848 9.53222 72.848C9.89222 72.848 10.1882 72.732 10.4202 72.5C10.6602 72.26 10.8362 71.908 10.9482 71.444C11.0682 70.972 11.1282 70.392 11.1282 69.704C11.1282 68.672 10.9962 67.892 10.7322 67.364C10.4762 66.828 10.0762 66.56 9.53222 66.56C9.16422 66.56 8.86022 66.68 8.62022 66.92C8.38822 67.16 8.21222 67.516 8.09222 67.988C7.98022 68.452 7.92422 69.024 7.92422 69.704ZM18.3324 67.424C18.3324 67.984 18.1924 68.444 17.9124 68.804C17.6404 69.156 17.2444 69.388 16.7244 69.5V69.536C17.3244 69.608 17.7764 69.824 18.0804 70.184C18.3844 70.536 18.5364 71.012 18.5364 71.612C18.5364 72.1 18.4324 72.536 18.2244 72.92C18.0244 73.296 17.7124 73.592 17.2884 73.808C16.8644 74.016 16.3284 74.12 15.6804 74.12C15.2484 74.12 14.8524 74.084 14.4924 74.012C14.1324 73.948 13.8084 73.848 13.5204 73.712V72.368C13.6964 72.472 13.8924 72.564 14.1084 72.644C14.3324 72.724 14.5604 72.784 14.7924 72.824C15.0244 72.864 15.2444 72.884 15.4524 72.884C16.0044 72.884 16.4084 72.772 16.6644 72.548C16.9204 72.324 17.0484 71.98 17.0484 71.516C17.0484 71.052 16.8924 70.712 16.5804 70.496C16.2764 70.272 15.8324 70.16 15.2484 70.16H14.4924V68.936H15.2004C15.6004 68.936 15.9204 68.892 16.1604 68.804C16.4084 68.708 16.5844 68.564 16.6884 68.372C16.8004 68.18 16.8564 67.936 16.8564 67.64C16.8564 67.28 16.7564 67.008 16.5564 66.824C16.3644 66.64 16.0804 66.548 15.7044 66.548C15.4004 66.548 15.1164 66.604 14.8524 66.716C14.5964 66.82 14.3644 66.968 14.1564 67.16L13.5324 66.128C13.7644 65.944 14.0004 65.792 14.2404 65.672C14.4804 65.552 14.7404 65.464 15.0204 65.408C15.3084 65.344 15.6244 65.312 15.9684 65.312C16.4644 65.312 16.8884 65.4 17.2404 65.576C17.5924 65.752 17.8604 66 18.0444 66.32C18.2364 66.632 18.3324 67 18.3324 67.424ZM22.3413 70.58L20.8053 74H19.1733L21.0333 70.232C20.7693 70.104 20.5413 69.936 20.3493 69.728C20.1653 69.512 20.0213 69.252 19.9173 68.948C19.8133 68.636 19.7613 68.292 19.7613 67.916C19.7613 67.092 19.9893 66.472 20.4453 66.056C20.9093 65.64 21.5933 65.432 22.4973 65.432H24.5733V74H23.0973V70.58H22.3413ZM22.5453 66.644C22.2493 66.644 22.0053 66.692 21.8133 66.788C21.6293 66.884 21.4893 67.028 21.3933 67.22C21.3053 67.412 21.2613 67.664 21.2613 67.976C21.2613 68.456 21.3653 68.816 21.5733 69.056C21.7813 69.296 22.0973 69.416 22.5213 69.416H23.0973V66.644H22.5453ZM31.442 62.744C31.41 63.168 31.314 63.528 31.154 63.824C30.994 64.112 30.766 64.332 30.47 64.484C30.182 64.628 29.814 64.7 29.366 64.7C28.918 64.7 28.546 64.628 28.25 64.484C27.954 64.332 27.73 64.112 27.578 63.824C27.434 63.536 27.35 63.176 27.326 62.744H28.502C28.518 63.152 28.594 63.444 28.73 63.62C28.874 63.796 29.09 63.884 29.378 63.884C29.642 63.884 29.846 63.796 29.99 63.62C30.142 63.436 30.23 63.144 30.254 62.744H31.442ZM26.258 65.432H27.674V69.776C27.674 69.92 27.67 70.076 27.662 70.244C27.662 70.412 27.658 70.584 27.65 70.76C27.642 70.936 27.634 71.112 27.626 71.288C27.618 71.464 27.606 71.636 27.59 71.804H27.638L30.566 65.432H32.33V74H30.926V69.608C30.926 69.456 30.926 69.292 30.926 69.116C30.934 68.94 30.942 68.76 30.95 68.576C30.958 68.392 30.966 68.212 30.974 68.036C30.99 67.86 31.002 67.696 31.01 67.544H30.974L28.022 74H26.258V65.432ZM37.0973 66.56C36.8093 66.56 36.5533 66.64 36.3293 66.8C36.1133 66.952 35.9333 67.172 35.7893 67.46C35.6453 67.748 35.5373 68.084 35.4653 68.468C35.4013 68.852 35.3693 69.272 35.3693 69.728C35.3693 70.392 35.4373 70.96 35.5733 71.432C35.7093 71.896 35.9093 72.252 36.1733 72.5C36.4453 72.748 36.7733 72.872 37.1573 72.872C37.4373 72.872 37.7053 72.832 37.9613 72.752C38.2173 72.672 38.4733 72.576 38.7293 72.464V73.724C38.4733 73.86 38.2013 73.96 37.9133 74.024C37.6253 74.088 37.3133 74.12 36.9773 74.12C36.2973 74.12 35.7253 73.944 35.2613 73.592C34.7973 73.24 34.4453 72.736 34.2053 72.08C33.9653 71.424 33.8453 70.636 33.8453 69.716C33.8453 69.084 33.9133 68.5 34.0493 67.964C34.1853 67.428 34.3893 66.964 34.6613 66.572C34.9333 66.172 35.2653 65.864 35.6573 65.648C36.0573 65.424 36.5173 65.312 37.0373 65.312C37.3813 65.312 37.7173 65.356 38.0453 65.444C38.3813 65.524 38.6933 65.652 38.9813 65.828L38.5253 67.016C38.3093 66.88 38.0813 66.772 37.8413 66.692C37.6013 66.604 37.3533 66.56 37.0973 66.56ZM42.6773 74H41.2133V66.68H39.4493V65.432H44.4293V66.68H42.6773V74ZM47.6733 65.432C48.2733 65.432 48.7693 65.508 49.1613 65.66C49.5613 65.804 49.8613 66.032 50.0613 66.344C50.2613 66.656 50.3613 67.056 50.3613 67.544C50.3613 67.888 50.3133 68.192 50.2173 68.456C50.1213 68.72 49.9813 68.94 49.7973 69.116C49.6133 69.284 49.3973 69.396 49.1493 69.452V69.512C49.4373 69.584 49.6853 69.704 49.8933 69.872C50.1013 70.032 50.2573 70.248 50.3613 70.52C50.4733 70.792 50.5293 71.128 50.5293 71.528C50.5293 72.032 50.4293 72.472 50.2293 72.848C50.0293 73.216 49.7373 73.5 49.3533 73.7C48.9773 73.9 48.5253 74 47.9973 74H45.4533V65.432H47.6733ZM47.7093 68.96C48.1173 68.96 48.4093 68.856 48.5853 68.648C48.7693 68.44 48.8613 68.132 48.8613 67.724C48.8613 67.356 48.7613 67.084 48.5613 66.908C48.3693 66.724 48.0733 66.632 47.6733 66.632H46.9293V68.96H47.7093ZM46.9293 70.124V72.788H47.8533C48.2533 72.788 48.5453 72.672 48.7293 72.44C48.9213 72.2 49.0173 71.86 49.0173 71.42C49.0173 71.14 48.9693 70.908 48.8733 70.724C48.7853 70.532 48.6533 70.384 48.4773 70.28C48.3013 70.176 48.0733 70.124 47.7933 70.124H46.9293ZM55.8712 74L55.3432 71.708H53.1472L52.6192 74H51.0352L53.3152 65.42H55.1512L57.4432 74H55.8712ZM54.5152 68.048C54.4752 67.888 54.4392 67.724 54.4072 67.556C54.3752 67.388 54.3432 67.224 54.3112 67.064C54.2872 66.896 54.2632 66.74 54.2392 66.596C54.2232 66.74 54.1992 66.896 54.1672 67.064C54.1352 67.224 54.1032 67.388 54.0712 67.556C54.0392 67.716 54.0032 67.876 53.9632 68.036L53.4232 70.448H55.0672L54.5152 68.048ZM63.2053 70.844L61.3813 73.364L60.3613 72.824L61.6693 70.76L60.3613 68.684L61.3813 68.156L63.2053 70.676V70.844ZM60.6733 70.844L58.8493 73.364L57.8413 72.824L59.1373 70.76L57.8413 68.684L58.8493 68.156L60.6733 70.676V70.844Z" fill="#DCAA44"/>
</svg>
