<svg width="120" height="89" viewBox="0 0 120 89" fill="none" xmlns="http://www.w3.org/2000/svg">
<path d="M75.6797 5.71126H73.608V6.80946H74.534C74.8315 6.80197 75.1271 6.85866 75.4007 6.97567C75.6303 7.07981 75.8244 7.24906 75.9587 7.46244C76.0919 7.68017 76.1598 7.93149 76.1546 8.18665C76.1626 8.37832 76.1278 8.56936 76.0529 8.74594C75.9779 8.92253 75.8647 9.08024 75.7213 9.20767C75.3883 9.48192 74.9648 9.62168 74.534 9.59946H72.8066V5.08203H75.6738L75.6797 5.71126ZM73.608 7.43869V8.97023H74.5281C74.7459 8.97669 74.958 8.90032 75.1217 8.75652C75.1992 8.67941 75.2589 8.58638 75.2968 8.48388C75.3348 8.38138 75.35 8.27186 75.3413 8.16291C75.3473 8.06219 75.3307 7.9614 75.2927 7.86794C75.2547 7.77447 75.1963 7.69069 75.1217 7.62271C74.9557 7.48356 74.7446 7.40969 74.5281 7.41495L73.608 7.43869Z" fill="#DCAA44"/>
<path d="M79.4377 7.58116H77.5796V8.97023H79.7523V9.59946H76.7842V5.08203H79.7167V5.71126H77.5678V6.95786H79.4258L79.4377 7.58116Z" fill="#DCAA44"/>
<path d="M82.6251 6.31038C82.6276 6.21673 82.608 6.12381 82.5677 6.0392C82.5275 5.9546 82.4678 5.88072 82.3935 5.82361C82.2114 5.6965 81.992 5.63382 81.7702 5.64553C81.5673 5.63794 81.3681 5.70087 81.2063 5.82361C81.1332 5.87635 81.0739 5.94601 81.0336 6.02665C80.9933 6.10729 80.9731 6.1965 80.9748 6.28663H80.1971C80.192 6.05103 80.2627 5.82001 80.399 5.62772C80.5496 5.42504 80.7558 5.27039 80.9926 5.1825C81.2456 5.07367 81.5186 5.01907 81.794 5.02223C82.2164 4.99969 82.6342 5.11877 82.9812 5.36059C83.1223 5.47263 83.2347 5.6167 83.3091 5.78084C83.3834 5.94498 83.4175 6.12448 83.4086 6.30444C83.4161 6.51742 83.3512 6.72664 83.2246 6.89806C83.0901 7.07868 82.9097 7.22009 82.7022 7.30766C82.9355 7.37452 83.1427 7.51126 83.2959 7.69945C83.4308 7.89209 83.4995 8.12331 83.4917 8.35836C83.4989 8.54511 83.4604 8.73079 83.3798 8.89936C83.2991 9.06794 83.1786 9.21435 83.0287 9.32596C82.667 9.58143 82.2304 9.70887 81.788 9.68807C81.4903 9.69134 81.1952 9.63272 80.9214 9.51592C80.681 9.42254 80.4742 9.25917 80.3277 9.04696C80.2002 8.84455 80.1342 8.60945 80.1378 8.37024H80.9214C80.9185 8.46538 80.9386 8.55981 80.98 8.64556C81.0213 8.73131 81.0826 8.80587 81.1588 8.86294C81.3269 8.99764 81.537 9.06906 81.7524 9.06477C81.9899 9.07703 82.2244 9.00792 82.4173 8.86887C82.4993 8.81208 82.5657 8.73554 82.6103 8.64631C82.6549 8.55708 82.6763 8.45805 82.6725 8.35836C82.6827 8.25549 82.6681 8.15168 82.6298 8.05563C82.5916 7.95958 82.5309 7.87408 82.4529 7.8063C82.2596 7.67984 82.0305 7.61943 81.7999 7.63415H81.2716V6.98117H81.7702C82.3461 6.98117 82.6251 6.76153 82.6251 6.31038Z" fill="#DCAA44"/>
<path d="M87.7837 7.45616C87.795 7.86355 87.7181 8.26855 87.5581 8.6434C87.4207 8.9608 87.1912 9.22964 86.8992 9.4151C86.6024 9.59 86.2642 9.68223 85.9197 9.68223C85.5753 9.68223 85.2371 9.59 84.9403 9.4151C84.6495 9.22368 84.4238 8.94832 84.2932 8.62559C84.1281 8.2667 84.0469 7.87488 84.0558 7.47991V7.22465C84.0444 6.81667 84.1235 6.41124 84.2873 6.03741C84.4281 5.71875 84.6592 5.44838 84.9522 5.25977C85.2458 5.07758 85.5861 4.98477 85.9316 4.99265C86.2746 4.98785 86.6117 5.08221 86.9023 5.2644C87.193 5.44658 87.4248 5.70882 87.57 6.01961C87.735 6.39307 87.8141 6.79877 87.8015 7.20684L87.7837 7.45616ZM87.0001 7.21872C87.0253 6.81472 86.9258 6.41274 86.7152 6.0671C86.621 5.944 86.4997 5.84427 86.3607 5.77562C86.2217 5.70698 86.0688 5.67127 85.9138 5.67127C85.7588 5.67127 85.6059 5.70698 85.4669 5.77562C85.3279 5.84427 85.2066 5.944 85.1124 6.0671C84.9037 6.40501 84.8023 6.79825 84.8216 7.19497V7.45616C84.7958 7.861 84.8975 8.26373 85.1124 8.60778C85.2065 8.73199 85.3281 8.83272 85.4677 8.90207C85.6072 8.97142 85.7609 9.00751 85.9168 9.00751C86.0726 9.00751 86.2263 8.97142 86.3659 8.90207C86.5054 8.83272 86.627 8.73199 86.7211 8.60778C86.9291 8.25905 87.0264 7.85542 87.0001 7.45023V7.21872Z" fill="#DCAA44"/>
<path d="M92.1172 9.59946H91.3336V5.71126H89.345V9.59946H88.5615V5.08203H92.1231L92.1172 9.59946Z" fill="#DCAA44"/>
<path d="M95.5726 8.54282H93.7917L93.4296 9.59946H92.6104L94.32 5.08203H95.0205L96.7598 9.59946H95.9406L95.5726 8.54282ZM94.041 7.91359H95.3529L94.6999 6.03775L94.041 7.91359Z" fill="#DCAA44"/>
<path d="M100.69 8.12711C100.665 8.55834 100.474 8.96307 100.155 9.25498C99.8067 9.53614 99.3674 9.67976 98.9203 9.65864C98.584 9.66552 98.2526 9.57702 97.9645 9.40339C97.6947 9.22382 97.4826 8.97032 97.3532 8.67323C97.1935 8.33142 97.1123 7.95822 97.1156 7.58098V7.15951C97.1088 6.7717 97.1858 6.38698 97.3413 6.03163C97.4801 5.7216 97.7072 5.45937 97.9943 5.27774C98.2902 5.10157 98.6293 5.01114 98.9737 5.01654C99.4053 5.00271 99.8272 5.14616 100.161 5.42021C100.478 5.72006 100.667 6.13031 100.69 6.56589H99.9056C99.8957 6.30731 99.7973 6.05999 99.6267 5.86542C99.4384 5.71143 99.1986 5.635 98.9559 5.65172C98.8036 5.64375 98.6518 5.67375 98.5139 5.73903C98.3761 5.80431 98.2567 5.90282 98.1664 6.0257C97.9646 6.35515 97.8673 6.73804 97.8874 7.12389V7.52161C97.864 7.913 97.9547 8.30276 98.1486 8.64355C98.2339 8.76772 98.3496 8.86788 98.4848 8.93441C98.6199 9.00094 98.7699 9.03161 98.9203 9.02347C99.1697 9.04438 99.4178 8.97016 99.6147 8.8157C99.7905 8.62809 99.8937 8.38394 99.9056 8.12711H100.69Z" fill="#DCAA44"/>
<path d="M104.951 9.59946H104.173V7.59303H102.149V9.59946H101.365V5.08203H102.149V6.95786H104.173V5.08203H104.951V9.59946Z" fill="#DCAA44"/>
<path d="M106.66 6.80946H107.586C107.884 6.80197 108.179 6.85866 108.453 6.97567C108.683 7.07981 108.877 7.24906 109.011 7.46244C109.144 7.68017 109.212 7.93149 109.207 8.18665C109.215 8.37832 109.18 8.56936 109.105 8.74594C109.03 8.92253 108.917 9.08024 108.774 9.20767C108.441 9.48192 108.017 9.62168 107.586 9.59946H105.859V5.08203H106.643L106.66 6.80946ZM106.66 7.43869V8.97023H107.58C107.693 8.97729 107.806 8.96205 107.913 8.92538C108.02 8.88871 108.119 8.83133 108.204 8.75652C108.281 8.67941 108.341 8.58638 108.379 8.48388C108.417 8.38138 108.432 8.27186 108.423 8.16291C108.429 8.06277 108.413 7.96264 108.376 7.86939C108.339 7.77614 108.282 7.69199 108.21 7.62271C108.042 7.48588 107.832 7.41233 107.616 7.41495L106.66 7.43869ZM110.412 9.59946H109.628V5.08203H110.412V9.59946Z" fill="#DCAA44"/>
<path d="M114.009 7.58116H112.151V8.97023H114.324V9.59946H111.356V5.08203H114.288V5.71126H112.139V6.95786H113.997L114.009 7.58116Z" fill="#DCAA44"/>
<path d="M39.4281 15.2854H38.8939V17.2146H38.1162V12.7031H38.8939V14.6027H39.3272L40.6569 12.7031H41.6186L40.0633 14.8698L41.7551 17.2443H40.8113L39.4281 15.2854Z" fill="#DCAA44"/>
<path d="M44.6932 16.1719H42.9124L42.574 17.2166H41.7607L43.4644 12.6992H44.1708L45.8805 17.2166H45.0613L44.6932 16.1719ZM43.1617 15.5426H44.4736L43.8147 13.6549L43.1617 15.5426Z" fill="#DCAA44"/>
<path d="M49.8216 12.7031V17.2146H49.0439V15.4338C48.7008 15.5224 48.3476 15.5663 47.9932 15.5644C47.5543 15.5954 47.1187 15.4691 46.7644 15.2082C46.6206 15.0693 46.5089 14.9006 46.4371 14.714C46.3653 14.5274 46.3352 14.3273 46.3489 14.1278V12.7031H47.1325V14.1456C47.1237 14.2526 47.1365 14.3603 47.1702 14.4623C47.2038 14.5643 47.2576 14.6585 47.3284 14.7392C47.5191 14.8817 47.7564 14.9474 47.9932 14.9233C48.3456 14.9403 48.6986 14.9123 49.0439 14.8402V12.7031H49.8216Z" fill="#DCAA44"/>
<path d="M53.378 15.2082H51.526V16.621H53.6927V17.2146H50.7246V12.7031H53.657V13.3383H51.526V14.5849H53.378V15.2082Z" fill="#DCAA44"/>
<path d="M57.7532 15.7541C57.7438 15.9682 57.6917 16.1783 57.5999 16.372C57.5082 16.5657 57.3786 16.7391 57.219 16.882C56.8712 17.1642 56.4315 17.3079 55.9842 17.2857C55.6499 17.2914 55.3208 17.203 55.0344 17.0304C54.755 16.8554 54.5339 16.6013 54.3993 16.3003C54.2424 15.9575 54.1614 15.5849 54.1618 15.208V14.7806C54.1529 14.392 54.2321 14.0064 54.3933 13.6527C54.5299 13.3431 54.7551 13.0808 55.0404 12.8988C55.3363 12.7227 55.6755 12.6322 56.0198 12.6376C56.4514 12.6238 56.8734 12.7673 57.2071 13.0413C57.5254 13.34 57.7148 13.7509 57.7354 14.187H56.9874C56.9745 13.928 56.874 13.681 56.7025 13.4865C56.5154 13.3298 56.2752 13.2512 56.0317 13.2669C55.8803 13.2588 55.7292 13.2888 55.5923 13.3542C55.4555 13.4195 55.3371 13.518 55.2481 13.6409C55.0424 13.9689 54.9429 14.3524 54.9632 14.739V15.1427C54.933 15.5324 55.0176 15.9225 55.2066 16.2646C55.2903 16.3907 55.4056 16.4927 55.541 16.5604C55.6764 16.6281 55.8272 16.6592 55.9783 16.6505C56.2277 16.6714 56.4758 16.5972 56.6728 16.4427C56.8508 16.256 56.9561 16.0117 56.9696 15.7541H57.7532Z" fill="#DCAA44"/>
<path d="M61.6949 13.3383H60.288V17.2146H59.5103V13.3383H58.1094V12.7031H61.6711L61.6949 13.3383Z" fill="#DCAA44"/>
<path d="M62.2646 17.2168V12.7053H63.814C64.2332 12.6713 64.6517 12.7801 65.0012 13.014C65.1372 13.1226 65.2449 13.2625 65.3152 13.4216C65.3855 13.5808 65.4162 13.7546 65.4049 13.9282C65.4064 14.1275 65.3463 14.3224 65.2329 14.4862C65.1124 14.6602 64.943 14.7945 64.7461 14.872C64.9836 14.9186 65.1951 15.0519 65.3396 15.246C65.4774 15.4375 65.5483 15.6691 65.5414 15.9049C65.5539 16.0888 65.5234 16.273 65.4523 16.443C65.3812 16.613 65.2714 16.7641 65.1318 16.8844C64.7891 17.1351 64.368 17.2552 63.9446 17.2228L62.2646 17.2168ZM63.0482 14.6049H63.82C64.0313 14.6209 64.2413 14.5621 64.4136 14.4387C64.4811 14.381 64.5349 14.309 64.5708 14.2278C64.6068 14.1467 64.624 14.0585 64.6213 13.9697C64.6289 13.8795 64.6158 13.7887 64.5829 13.7043C64.55 13.62 64.4981 13.5442 64.4314 13.483C64.2549 13.3702 64.0465 13.3181 63.8377 13.3346H63.072L63.0482 14.6049ZM63.0482 15.1985V16.6232H63.9209C64.1351 16.641 64.3479 16.575 64.5146 16.4392C64.5843 16.3744 64.639 16.2951 64.6749 16.2069C64.7108 16.1188 64.7269 16.0238 64.7222 15.9287C64.7349 15.8314 64.725 15.7324 64.6934 15.6395C64.6617 15.5466 64.6093 15.4622 64.5399 15.3929C64.4705 15.3235 64.386 15.2709 64.2931 15.2393C64.2002 15.2077 64.1013 15.1978 64.004 15.2104L63.0482 15.1985Z" fill="#DCAA44"/>
<path d="M68.8889 15.2082H67.0309V16.621H69.1976V17.2146H66.2295V12.7031H69.162V13.3383H67.0131V14.5849H68.8711L68.8889 15.2082Z" fill="#DCAA44"/>
<path d="M73.4008 17.2146H72.6172V15.2201H70.5989V17.2146H69.8154V12.7031H70.5989V14.5849H72.6172V12.7031H73.4008V17.2146Z" fill="#DCAA44"/>
<path d="M77.8941 17.2146H77.1105V15.2201H75.0862V17.2146H74.3027V12.7031H75.0862V14.5849H77.1105V12.7031H77.8941V17.2146Z" fill="#DCAA44"/>
<path d="M79.5981 14.4306H80.5242C80.8221 14.4244 81.1179 14.4831 81.3909 14.6027C81.6247 14.7027 81.8217 14.8728 81.9548 15.0895C82.0832 15.3089 82.1489 15.5595 82.1448 15.8137C82.1518 16.0047 82.1173 16.1949 82.0435 16.3713C81.9697 16.5476 81.8584 16.7057 81.7174 16.8347C81.3844 17.1084 80.9604 17.2462 80.5301 17.2206H78.8027V12.7031H79.5863L79.5981 14.4306ZM79.5981 15.0657V16.621H80.5242C80.742 16.6275 80.9541 16.5511 81.1178 16.4073C81.1943 16.3295 81.2534 16.2364 81.2913 16.1341C81.3292 16.0317 81.3449 15.9225 81.3374 15.8137C81.3418 15.7137 81.325 15.6139 81.2882 15.5208C81.2513 15.4277 81.1953 15.3435 81.1237 15.2735C80.9561 15.1379 80.7457 15.0663 80.5301 15.0717L79.5981 15.0657ZM83.3736 17.2146H82.59V12.7031H83.3736V17.2146Z" fill="#DCAA44"/>
<path d="M86.9473 15.2082H85.0952V16.621H87.262V17.2146H84.2939V12.7031H87.262V13.3383H85.119V14.5849H86.9711L86.9473 15.2082Z" fill="#DCAA44"/>
<path d="M93.5891 18.3326H92.8412V17.2166H89.8731V18.3267H89.1133V16.5933H89.4754C89.6807 16.38 89.8297 16.1189 89.9087 15.8335C90.0233 15.4673 90.093 15.0886 90.1165 14.7056L90.2352 12.6992H93.0846V16.623H93.6782L93.5891 18.3326ZM90.3361 16.623H92.2713V13.3403H90.9535L90.8763 14.6106C90.8683 15.3162 90.6825 16.0083 90.3361 16.623Z" fill="#DCAA44"/>
<path d="M97.7982 15.0831C97.8101 15.4912 97.7311 15.8967 97.5667 16.2704C97.4299 16.5864 97.2027 16.8549 96.9137 17.0421C96.6175 17.2235 96.2755 17.3162 95.9283 17.3092C95.5832 17.3138 95.2438 17.2212 94.9488 17.0421C94.6577 16.8567 94.4267 16.5906 94.2839 16.2763C94.1244 15.9156 94.0434 15.5251 94.0465 15.1306V14.8398C94.038 14.4314 94.119 14.0262 94.2839 13.6525C94.4241 13.3368 94.653 13.0687 94.9429 12.8808C95.2365 12.6986 95.5768 12.6058 95.9223 12.6137C96.2667 12.6083 96.6059 12.6987 96.9018 12.8749C97.1942 13.0625 97.4237 13.3333 97.5607 13.6525C97.7236 14.0164 97.8047 14.4115 97.7982 14.8101V15.0831ZM97.0146 14.8457C97.0398 14.4417 96.9403 14.0397 96.7297 13.6941C96.6355 13.571 96.5142 13.4712 96.3752 13.4026C96.2362 13.334 96.0833 13.2982 95.9283 13.2982C95.7733 13.2982 95.6204 13.334 95.4814 13.4026C95.3424 13.4712 95.2211 13.571 95.1269 13.6941C94.9153 14.0308 94.8137 14.4249 94.836 14.8219V15.0831C94.8111 15.4879 94.9127 15.8904 95.1269 16.2348C95.2153 16.3644 95.3353 16.4695 95.4754 16.5401C95.6156 16.6107 95.7714 16.6446 95.9283 16.6384C96.0848 16.6469 96.2409 16.6148 96.3813 16.5451C96.5218 16.4754 96.6418 16.3705 96.7297 16.2407C96.9419 15.8935 97.0414 15.4892 97.0146 15.0831V14.8457Z" fill="#DCAA44"/>
<path d="M99.3414 15.5487V17.2167H98.54V12.7052H100.273C100.705 12.6841 101.128 12.8261 101.46 13.103C101.607 13.2332 101.724 13.3945 101.801 13.5752C101.878 13.7559 101.913 13.9515 101.905 14.1477C101.916 14.3414 101.882 14.5349 101.807 14.7137C101.732 14.8926 101.617 15.0522 101.472 15.1806C101.121 15.4439 100.688 15.5743 100.249 15.5487H99.3414ZM99.3414 14.9135H100.285C100.514 14.9302 100.74 14.8603 100.92 14.7176C101 14.642 101.061 14.5492 101.099 14.4463C101.137 14.3434 101.151 14.2331 101.14 14.124C101.147 14.0151 101.131 13.9059 101.094 13.8036C101.056 13.7013 100.997 13.6082 100.92 13.5304C100.758 13.3828 100.546 13.3022 100.326 13.3048H99.3651L99.3414 14.9135Z" fill="#DCAA44"/>
<path d="M106.198 15.0831C106.21 15.4912 106.131 15.8967 105.967 16.2704C105.83 16.5864 105.603 16.8549 105.314 17.0421C105.018 17.2235 104.676 17.3162 104.328 17.3092C103.983 17.3138 103.644 17.2212 103.349 17.0421C103.059 16.8486 102.832 16.574 102.696 16.2526C102.536 15.8919 102.455 15.5013 102.458 15.1069V14.8398C102.45 14.4314 102.531 14.0262 102.696 13.6525C102.836 13.3368 103.065 13.0687 103.355 12.8808C103.649 12.6986 103.989 12.6058 104.334 12.6137C104.679 12.6083 105.018 12.6987 105.314 12.8749C105.602 13.0643 105.827 13.3349 105.961 13.6525C106.124 14.0164 106.205 14.4115 106.198 14.8101V15.0831ZM105.415 14.8457C105.44 14.4417 105.34 14.0397 105.13 13.6941C105.036 13.571 104.914 13.4712 104.775 13.4026C104.636 13.334 104.483 13.2982 104.328 13.2982C104.173 13.2982 104.02 13.334 103.881 13.4026C103.743 13.4712 103.621 13.571 103.527 13.6941C103.315 14.0308 103.214 14.4249 103.236 14.8219V15.0831C103.211 15.4879 103.313 15.8904 103.527 16.2348C103.615 16.3644 103.735 16.4695 103.876 16.5401C104.016 16.6107 104.172 16.6446 104.328 16.6384C104.485 16.6469 104.641 16.6148 104.781 16.5451C104.922 16.4754 105.042 16.3705 105.13 16.2407C105.342 15.8935 105.442 15.4892 105.415 15.0831V14.8457Z" fill="#DCAA44"/>
<path d="M109.819 13.3383H107.736V17.2146H106.952V12.7031H109.819V13.3383Z" fill="#DCAA44"/>
<path d="M113.239 12.7031H114.022V17.2146H113.239V14.0032L111.256 17.2146H110.466V12.7031H111.256V15.9265L113.239 12.7031Z" fill="#DCAA44"/>
<path d="M119.162 2.64734e-10H32.9027C32.7338 0.000964778 32.569 0.0523216 32.4294 0.147497C32.2898 0.242673 32.1818 0.377338 32.1192 0.534257L0.0637373 87.7962C0.0618792 87.8298 0.0618792 87.8635 0.0637373 87.8971C0.0637373 87.9327 0.0637373 87.9624 0.0637373 87.9921C0.0607855 88.0336 0.0607855 88.0752 0.0637373 88.1167V88.1939C0.0691746 88.2447 0.0811459 88.2946 0.0993544 88.3423C0.146765 88.5013 0.240358 88.6426 0.368248 88.7483C0.496138 88.854 0.652555 88.9193 0.817634 88.9359H0.90074C1.00004 88.9349 1.09843 88.9168 1.19161 88.8825L96.8058 54.0608C96.968 54.0021 97.108 53.8948 97.2068 53.7535C97.3056 53.6121 97.3584 53.4438 97.3579 53.2713V38.4843L119.536 26.8731C119.676 26.8032 119.793 26.6956 119.875 26.5623C119.957 26.4291 120 26.2756 119.999 26.1192V0.842938C120 0.732523 119.979 0.623044 119.937 0.520808C119.895 0.418572 119.834 0.3256 119.756 0.247247C119.678 0.168895 119.585 0.10671 119.483 0.0642761C119.382 0.0218421 119.272 -2.77674e-06 119.162 2.64734e-10ZM96.0757 52.9626L1.69025 87.3153L31.6205 23.1511H96.0757V52.9626ZM119.37 26.1192C119.368 26.16 119.355 26.1996 119.332 26.2333C119.309 26.267 119.277 26.2933 119.239 26.3092L97.3579 37.7719V22.6881C97.3579 22.4645 97.2691 22.2501 97.111 22.0921C96.9529 21.934 96.7385 21.8452 96.5149 21.8452H31.3415C31.1816 21.8452 31.0251 21.8911 30.8904 21.9774C30.7557 22.0636 30.6486 22.1867 30.5817 22.3319L3.27522 80.9458L32.7128 0.771704C32.728 0.733614 32.7542 0.700886 32.788 0.677645C32.8218 0.654404 32.8617 0.641691 32.9027 0.641108H119.162C119.189 0.640286 119.217 0.645099 119.242 0.655249C119.268 0.665399 119.291 0.680674 119.311 0.700133C119.33 0.719592 119.345 0.742825 119.355 0.768404C119.366 0.793983 119.37 0.821367 119.37 0.848874V26.1192Z" fill="#DCAA44"/>
<path d="M35.6167 27.5262H34.1564V23.9645H32.8564V32.2454H34.1564V28.6837H35.6167V32.2454H36.9405V23.9882H35.6167V27.5262ZM90.3484 23.9645H89.0425V32.2454H90.3425L90.3484 23.9645ZM39.0835 23.9645L37.7775 32.2454H38.9648L39.1785 30.7436H40.7812L41.0068 32.2454H42.3187L40.9949 23.9882L39.0835 23.9645ZM39.3447 29.6038L39.9383 25.4485L40.5675 29.6038H39.3447ZM50.3088 27.3718L49.8636 29.2121V23.9882H48.6764V32.2454H50.0061L51.0924 28.4582L51.6267 26.428V32.2454H52.8139V23.9882H51.3892L50.3088 27.3718ZM70.9133 30.1322L71.0558 25.1398H72.1837V32.2454H73.5075V23.9882H69.8389L69.6252 30.2271C69.6252 30.9929 69.4115 31.076 68.8238 31.076V32.2633H69.0256C70.3316 32.2573 70.8777 31.6696 70.9252 30.1559L70.9133 30.1322ZM88.3064 30.1797V29.129C88.3064 27.8111 87.6712 27.0869 86.3712 27.0869H85.7776V23.9882H84.4716V32.2454H86.383C87.6831 32.2454 88.3182 31.5272 88.3182 30.2034L88.3064 30.1797ZM85.7597 28.2445H86.3534C86.7689 28.2445 86.9945 28.4344 86.9945 29.0221V30.2746C86.9945 30.8683 86.7689 31.0523 86.3534 31.0523H85.7597V28.2445ZM78.4107 30.1797V29.129C78.4107 27.8111 77.7756 27.0869 76.4755 27.0869H75.8819V23.9882H74.5819V32.2454H76.4934C77.7637 32.2454 78.4226 31.5272 78.4226 30.2034L78.4107 30.1797ZM75.8641 28.2445H76.4577C76.8733 28.2445 77.0929 28.4344 77.0929 29.0221V30.2746C77.0929 30.8683 76.8733 31.0523 76.4577 31.0523H75.8641V28.2445ZM80.6131 28.6837H82.0852V32.2454H83.409V23.9882H82.0852V27.5499H80.6131V23.9882H79.313V32.2454H80.6131V28.6837ZM47.2042 23.9348H45.9101V31.0642H44.4379V23.9882H43.1379V32.2454H46.5334V33.3555H47.7978V31.0879H47.2042V23.9348ZM66.7936 32.192H68.1055L66.7817 23.9348H64.8822L63.5643 32.192H64.7516L64.9712 30.6902H66.568L66.7936 32.192ZM65.1434 29.5742L65.7726 25.4188L66.3662 29.5742H65.1434ZM94.8896 25.1102V23.9229H91.3279V32.2454H94.8896V31.0582H92.6457V28.6481H94.4266V27.4609H92.6457V25.1636L94.8896 25.1102ZM55.7108 23.8398C54.4345 23.8398 53.7399 24.5937 53.7399 25.9115V30.2746C53.7399 31.5984 54.4345 32.3523 55.7108 32.3523C56.987 32.3523 57.6816 31.5984 57.6816 30.2746V25.965C57.7112 24.6471 57.0167 23.8932 55.7404 23.8932L55.7108 23.8398ZM56.3934 30.3459C56.3934 30.9395 56.1382 31.1591 55.7226 31.1591C55.3071 31.1591 55.0518 30.9336 55.0518 30.3459V25.8878C55.0518 25.2942 55.313 25.0745 55.7226 25.0745C56.1322 25.0745 56.3934 25.2942 56.3934 25.8878V30.3459ZM59.9551 28.7075H61.4332V32.2692H62.7511V23.9882H61.4332V27.5499H59.9551V23.9882H58.6848V32.2454H59.9551V28.7075ZM78.1614 35.077V33.8898H74.5997V42.147H78.1614V40.9598H75.9235V38.5853H77.7043V37.3981H75.9235V35.077H78.1614ZM82.0793 42.147H83.409L81.6282 37.5643L83.409 33.8838H82.1149L80.4172 37.4812V33.8957H79.1171V42.147H80.4172V39.6182L80.8149 38.8643L82.0793 42.147ZM86.7333 42.147V35.077H88.0867V33.8898H84.0739V35.077H85.4333V42.147H86.7333ZM92.7585 40.105V39.0424C92.7585 37.7186 92.1233 37.0003 90.8233 37.0003H90.2297V33.8957H88.9297V42.147H90.8233C92.1233 42.147 92.7585 41.4347 92.7585 40.1168V40.105ZM90.2297 38.1816H90.8233C91.2388 38.1816 91.4644 38.3657 91.4644 38.9593V40.194C91.4644 40.7876 91.2388 40.9776 90.8233 40.9776H90.2297V38.1816ZM68.9603 36.9944V35.9378C68.9603 34.6199 68.3252 33.8957 67.0251 33.8957H65.1137V42.147H66.4137V39.0543H67.0073C68.3073 39.0543 68.9425 38.336 68.9425 37.0122L68.9603 36.9944ZM66.4137 35.0592H67.0073C67.4169 35.0592 67.6425 35.2492 67.6425 35.8368V37.0775C67.6425 37.6711 67.4169 37.8551 67.0073 37.8551H66.4137V35.0592ZM59.9551 42.147H61.2492V35.077H62.7273V42.147H64.0452V33.8957H59.9551V42.147ZM93.4887 42.147H94.7887V33.8957H93.4887V42.147ZM71.7028 33.8007C70.4325 33.8007 69.732 34.5606 69.732 35.8784V40.1762C69.732 41.494 70.4325 42.2539 71.7028 42.2539C72.9732 42.2539 73.6737 41.494 73.6737 40.1762V35.8784C73.6737 34.5606 72.9791 33.8007 71.7028 33.8007ZM72.3796 40.2534C72.3796 40.847 72.1184 41.0726 71.7028 41.0726C71.2873 41.0726 71.0321 40.847 71.0321 40.2534V35.7953C71.0321 35.2017 71.2933 34.982 71.7028 34.982C72.1124 34.982 72.3796 35.2076 72.3796 35.7953V40.2534ZM92.3133 47.2165L91.8384 49.033V43.8091H90.6512V52.0664H92.0106L93.0969 48.2791L93.6252 46.2489V52.0664H94.8124V43.8091H93.3818L92.3133 47.2165ZM73.1275 43.7142C71.8513 43.7142 71.1567 44.4681 71.1567 45.7918V50.0837C71.1567 51.4075 71.8513 52.1613 73.1275 52.1613C74.4038 52.1613 75.0983 51.4075 75.0983 50.0837V45.7918C75.0983 44.4681 74.4038 43.7142 73.1275 43.7142ZM73.7983 50.1668C73.7983 50.7604 73.5431 50.98 73.1275 50.98C72.712 50.98 72.4567 50.7545 72.4567 50.1668V45.7087C72.4567 45.1151 72.712 44.8955 73.1275 44.8955C73.5431 44.8955 73.7983 45.1151 73.7983 45.7087V50.1668ZM68.4558 43.8091H66.5443V52.0664H67.8384V48.9617H68.432C69.7261 48.9617 70.3672 48.2435 70.3672 46.9197V45.8512C70.3672 44.5215 69.7261 43.8091 68.432 43.8091H68.4558ZM69.0909 47.0087C69.0909 47.6024 68.8654 47.7864 68.4558 47.7864H67.8621V44.9904H68.4558C68.8654 44.9904 69.0909 45.1745 69.0909 45.7681V47.0087ZM77.9537 43.7142C76.6833 43.7142 76.0244 44.4681 76.0244 45.7918V50.0837C76.0244 51.4075 76.6833 52.1613 77.9537 52.1613C79.224 52.1613 79.8889 51.4075 79.8889 50.0837V48.9855H78.666V50.1727C78.666 50.7663 78.4048 50.9741 77.9893 50.9741C77.5737 50.9741 77.3185 50.7604 77.3185 50.1727V45.7087C77.3185 45.1151 77.5797 44.8955 77.9893 44.8955C78.3989 44.8955 78.666 45.1151 78.666 45.7087V46.5932H79.8889V45.7918C79.8651 44.4681 79.2062 43.7142 77.9299 43.7142H77.9537ZM82.7026 43.7142C81.4323 43.7142 80.7674 44.4681 80.7674 45.7918V50.0837C80.7674 51.4075 81.4323 52.1613 82.7026 52.1613C83.973 52.1613 84.6378 51.4075 84.6378 50.0837V48.9855H83.409V50.1727C83.409 50.7663 83.1538 50.9741 82.7382 50.9741C82.3227 50.9741 82.0674 50.7604 82.0674 50.1727V45.7087C82.0674 45.1151 82.3286 44.8955 82.7382 44.8955C83.1478 44.8955 83.409 45.1151 83.409 45.7087V46.5932H84.6378V45.7918C84.6141 44.4681 83.9551 43.7142 82.6789 43.7142H82.7026ZM87.1904 47.2165L86.7214 49.033V43.8091H85.5342V52.0664H86.8698L87.9502 48.2791L88.4845 46.2489V52.0664H89.6717V43.8091H88.2411L87.1904 47.2165Z" fill="#DCAA44"/>
</svg>
