<svg width="39" height="48" viewBox="0 0 39 48" fill="none" xmlns="http://www.w3.org/2000/svg">
<path fill-rule="evenodd" clip-rule="evenodd" d="M31.1267 0.190772C31.3333 0.160106 31.5013 0.0974388 31.5013 0.0534388C31.5013 0.00943882 31.548 -0.0118945 31.6053 0.00677215C31.688 0.0347721 31.7133 3.1841 31.7307 15.3068C31.744 25.7841 31.7787 30.5708 31.8373 30.5708C31.936 30.5708 32.4427 30.9161 32.4853 31.0108C32.4943 31.0286 32.5076 31.0438 32.5243 31.0548C32.5409 31.0658 32.5601 31.0722 32.58 31.0734C32.668 31.0734 35.1653 32.6374 35.384 32.8294C35.4387 32.8774 35.5053 32.9174 35.5307 32.9174C35.588 32.9174 36.8147 33.7041 36.9627 33.8334C37.0173 33.8828 37.088 33.9228 37.1187 33.9228C37.148 33.9228 37.4493 34.0988 37.7867 34.3148L38.4 34.7054V48.0001H35.9067V42.0988C35.9067 36.8454 35.8933 36.1828 35.776 36.0654C35.704 35.9934 35.5947 35.9334 35.5333 35.9334C35.472 35.9334 35.4093 35.9041 35.3933 35.8694C35.364 35.7974 34.02 34.9361 33.5173 34.6668C33.4133 34.6121 33.3307 34.5334 33.3307 34.4961C33.3307 34.4561 33.2947 34.4254 33.2507 34.4254C33.1787 34.4254 32.7 34.1308 32.1493 33.7454C32.0253 33.6588 31.8853 33.5881 31.8373 33.5881C31.7773 33.5881 31.7507 35.8588 31.7507 40.7934V48.0001H7.31467L7.29333 35.1161L7.27333 22.2334H2.53333L2.51333 35.1161L2.49333 48.0001H0V33.9294C0 26.1908 0.0226667 19.8001 0.0506667 19.7268C0.096 19.6081 0.496 19.5934 3.70667 19.5934H7.31333L7.33467 13.9268C7.35333 8.9881 7.372 8.24944 7.48133 8.19344C7.60133 8.12811 8.184 7.92944 8.68533 7.78011C9.188 7.62944 9.76933 7.42944 9.89333 7.3641C9.964 7.3281 10.1507 7.27077 10.3093 7.2361C10.4386 7.21217 10.5635 7.16902 10.68 7.1081C10.7974 7.0478 10.9233 7.00555 11.0533 6.98277C11.1838 6.96013 11.3101 6.91787 11.428 6.85744C11.5459 6.79701 11.6722 6.75476 11.8027 6.7321C11.9328 6.70889 12.0586 6.66618 12.176 6.60544C12.289 6.54601 12.4104 6.5042 12.536 6.48144C12.6867 6.44944 12.912 6.36944 13.0347 6.30544C13.162 6.23968 13.3011 6.1998 13.444 6.1881C13.5467 6.1881 13.6307 6.15477 13.6307 6.11477C13.6307 6.07477 13.8093 6.00277 14.0253 5.95477C14.3973 5.87477 14.844 5.7321 15.1267 5.60544C15.196 5.57477 15.7573 5.38677 16.3733 5.18544C16.9907 4.98544 17.6133 4.77077 17.7587 4.7081C17.8711 4.6551 17.9897 4.61701 18.112 4.59477C18.1953 4.58462 18.276 4.55836 18.3493 4.51744C18.4293 4.47477 18.7747 4.35344 19.1173 4.24944C19.46 4.14544 19.7787 4.03077 19.8267 3.9961C19.8747 3.96144 20.0613 3.8961 20.2427 3.84944C20.648 3.74544 22.104 3.26277 22.2787 3.17344C22.4125 3.11761 22.5513 3.07474 22.6933 3.04544C22.8229 3.02204 22.9484 2.97933 23.0653 2.91877C23.1779 2.85948 23.2988 2.81766 23.424 2.79477C23.576 2.76277 23.8 2.68277 23.9227 2.61877C24.0499 2.55256 24.1891 2.51222 24.332 2.5001C24.436 2.5001 24.5187 2.46544 24.5187 2.4241C24.5187 2.38144 24.672 2.32144 24.8587 2.28944C25.0453 2.25744 25.2987 2.17877 25.4187 2.1161C25.5332 2.0535 25.6585 2.01322 25.788 1.99744C25.868 1.99744 26 1.9601 26.0787 1.91344C26.2813 1.7961 29.7253 0.656106 29.8787 0.656106C29.948 0.656106 30.0053 0.621439 30.0053 0.577439C30.0053 0.534772 30.1733 0.473439 30.3787 0.442772C30.5853 0.412106 30.752 0.354772 30.752 0.317439C30.752 0.278772 30.9213 0.222772 31.1267 0.190772ZM29.2 28.9108C29.224 28.9708 29.2467 23.2614 29.2507 16.2214C29.2547 9.18144 29.248 3.4241 29.2373 3.42544C29.1183 3.46716 29 3.51117 28.8827 3.55744C28.7 3.62677 28.4387 3.71744 28.3013 3.75744C27.846 3.89088 27.3979 4.04753 26.9587 4.22677C26.8147 4.29077 26.6387 4.3441 26.5693 4.3441C26.4987 4.3441 26.42 4.37744 26.3947 4.4201C26.368 4.46277 26.1973 4.52144 26.016 4.55344C25.8333 4.58411 25.6653 4.64011 25.6427 4.67611C25.62 4.71344 25.472 4.76811 25.3133 4.79744C25.1333 4.835 24.9588 4.89456 24.7933 4.97477C24.6632 5.04281 24.5209 5.08449 24.3747 5.09744C24.2707 5.09744 24.188 5.13077 24.188 5.1721C24.188 5.2121 24.052 5.2721 23.8853 5.3041C23.72 5.33477 23.524 5.39611 23.4493 5.43744C23.3747 5.48144 22.6787 5.72544 21.9013 5.9801C21.124 6.23344 20.4307 6.47344 20.3613 6.51344C20.2907 6.55344 20.1107 6.61211 19.9613 6.64544C19.8107 6.67877 19.588 6.75877 19.464 6.82277C19.3384 6.88805 19.2011 6.92792 19.06 6.9401C18.96 6.9401 18.856 6.9761 18.8307 7.01877C18.804 7.06144 18.6627 7.12277 18.516 7.15477C18.3693 7.18677 18.192 7.2441 18.1227 7.28144C17.9593 7.35333 17.7919 7.41566 17.6213 7.4681C16.568 7.80544 14.404 8.54944 14.2853 8.61477C14.2107 8.65477 14.0147 8.71477 13.8493 8.74677C13.684 8.77744 13.548 8.83477 13.548 8.8721C13.548 8.91077 13.38 8.96677 13.1747 8.99877C12.968 9.02944 12.8 9.08411 12.8 9.11877C12.8 9.15611 12.66 9.21211 12.488 9.24411C12.3514 9.265 12.2185 9.30541 12.0933 9.36411C12.048 9.39744 11.5613 9.57077 11.0133 9.74944C10.464 9.92811 9.96933 10.1094 9.912 10.1521C9.83067 10.2121 9.808 11.2628 9.808 14.9108V19.5908L14.3173 19.6334C16.7973 19.6561 19.864 19.6961 21.132 19.7214L23.4387 19.7668V24.2574C23.4387 28.3721 23.4507 28.7374 23.572 28.6361C23.7187 28.5148 23.9467 28.3748 24.2707 28.2094C24.384 28.1508 24.4973 28.0828 24.52 28.0588C24.5844 28.0074 24.6536 27.9622 24.7267 27.9241C25.14 27.6974 25.3107 27.5894 25.416 27.4921C25.4801 27.4332 25.5615 27.3964 25.648 27.3868C25.7133 27.3868 25.7667 27.3588 25.768 27.3241C25.768 27.2894 25.8667 27.2148 25.9893 27.1574C26.1667 27.0748 26.2533 27.0761 26.424 27.1628C26.748 27.3281 27.0507 27.5068 27.096 27.5614C27.1187 27.5881 27.412 27.7774 27.7467 27.9801C28.08 28.1841 28.4547 28.4161 28.5773 28.4961C28.7 28.5761 28.88 28.6774 28.9773 28.7214C29.076 28.7641 29.1773 28.8494 29.2 28.9108ZM20.8573 30.2774L20.86 26.2348L20.8627 22.1921H9.808V45.4868H14.048V39.9774C14.048 36.9468 14.0773 34.4308 14.1107 34.3841C14.1827 34.3081 14.2664 34.2442 14.3587 34.1948C14.828 33.9321 14.92 33.8748 15.0253 33.7761C15.088 33.7188 15.1773 33.6708 15.2253 33.6708C15.272 33.6708 15.4773 33.5588 15.68 33.4201C15.8099 33.3245 15.9477 33.2402 16.092 33.1681C16.1147 33.1681 16.3853 33.0081 16.692 32.8121C17.2368 32.4637 17.7867 32.1232 18.3413 31.7908C18.7613 31.5348 19.1413 31.3241 19.1867 31.3241C19.232 31.3241 19.2813 31.2961 19.2973 31.2601C19.312 31.2254 19.6707 30.9894 20.0907 30.7374L20.8573 30.2774ZM27.5107 30.8134C26.8947 30.4294 26.3773 30.0854 26.3613 30.0494C26.308 29.9228 26.0547 29.9921 25.7253 30.2228C25.5783 30.3278 25.4256 30.4248 25.268 30.5134C25.1489 30.5758 25.0332 30.6444 24.9213 30.7188C24.8013 30.7988 24.4173 31.0334 24.0707 31.2414L23.4413 31.6188L23.44 38.5521V45.4854H29.256V31.9361L28.944 31.7241C28.4699 31.4153 27.992 31.1109 27.5107 30.8134ZM20.8627 45.4868V39.4108C20.8627 34.6054 20.84 33.3361 20.7587 33.3374C20.7013 33.3388 20.5613 33.4134 20.4467 33.5041C20.332 33.5934 20.1947 33.6681 20.1413 33.6694C20.088 33.6694 20.032 33.7014 20.0173 33.7388C19.98 33.8321 18.9933 34.4254 18.8773 34.4254C18.8267 34.4254 18.784 34.4574 18.784 34.4961C18.784 34.5348 18.7 34.6108 18.5973 34.6641C18.4947 34.7174 18.2987 34.8374 18.1613 34.9308C18.024 35.0241 17.8093 35.1441 17.6827 35.2001C17.5573 35.2548 17.4547 35.3294 17.4547 35.3654C17.4547 35.4014 17.42 35.4321 17.3787 35.4321C17.3373 35.4321 17.1507 35.5321 16.9627 35.6548L16.6227 35.8801V45.4868H20.8627Z" fill="#325C92"/>
</svg>
